<svg xmlns="http://www.w3.org/2000/svg" xml:lang="en" height="392.79999999999984pt" width="755.6800000000001pt" viewBox="-2.000000000000005 -2.0 755.6800000000001 392.79999999999984"><path d="M 297.1240172530881 172.97931320473046 L 297.01989063333514 177.08363746665944 L 293.0839044066734 173.70993498666368 Z" style="stroke:black;fill:black;stroke-linecap:butt;stroke-linejoin:miter;" /><path d="M 295.0518975200043 175.39678622666156 L 289.872 181.43999999999986 Z" style="stroke:black;fill:black;stroke-width:2;stroke-linecap:butt;stroke-linejoin:miter;" /><polygon points="142.56,204.76799999999986 80.35199999999999,204.76799999999983 80.35199999999999,173.66399999999985 142.56,173.66399999999985 " style="stroke:black;fill:none;stroke-width:2;stroke-linecap:round;stroke-linejoin:round;" /><path d="M 0.0,-0.0 L -2.3807133775424547e-15,12.96 L -4.761426755084909e-15,25.92" style="stroke:white;fill:none;stroke-width:2;stroke-linecap:round;stroke-linejoin:round;" /><path d="M -4.761426755084909e-15,25.92 L 12.959999999999997,25.92 L 25.919999999999995,25.92" style="stroke:white;fill:none;stroke-width:2;stroke-linecap:round;stroke-linejoin:round;" /><path d="M 25.919999999999995,25.92 L 38.879999999999995,25.92 L 51.839999999999996,25.92" style="stroke:white;fill:none;stroke-width:2;stroke-linecap:round;stroke-linejoin:round;" /><path d="M 51.839999999999996,25.92 L 64.80000000000001,25.92 L 77.76,25.92" style="stroke:white;fill:none;stroke-width:2;stroke-linecap:round;stroke-linejoin:round;" /><path d="M 77.76,25.92 L 90.72,25.92 L 103.68,25.92" style="stroke:white;fill:none;stroke-width:2;stroke-linecap:round;stroke-linejoin:round;" /><path d="M 103.68,25.92 L 116.64000000000001,25.92 L 129.60000000000002,25.92" style="stroke:white;fill:none;stroke-width:2;stroke-linecap:round;stroke-linejoin:round;" /><path d="M 129.60000000000002,25.92 L 142.56,25.92 L 155.52,25.92" style="stroke:white;fill:none;stroke-width:2;stroke-linecap:round;stroke-linejoin:round;" /><path d="M 155.52,25.92 L 168.48000000000002,25.92 L 181.44,25.92" style="stroke:white;fill:none;stroke-width:2;stroke-linecap:round;stroke-linejoin:round;" /><path d="M 181.44,25.92 L 194.4,25.92 L 207.36,25.92" style="stroke:white;fill:none;stroke-width:2;stroke-linecap:round;stroke-linejoin:round;" /><path d="M 207.36,25.92 L 220.32000000000002,25.92 L 233.28000000000003,25.92" style="stroke:white;fill:none;stroke-width:2;stroke-linecap:round;stroke-linejoin:round;" /><path d="M 233.28000000000003,25.92 L 246.24,25.92 L 259.20000000000005,25.92" style="stroke:white;fill:none;stroke-width:2;stroke-linecap:round;stroke-linejoin:round;" /><path d="M 259.20000000000005,25.92 L 272.16,25.92 L 285.12,25.92" style="stroke:white;fill:none;stroke-width:2;stroke-linecap:round;stroke-linejoin:round;" /><path d="M 285.12,25.92 L 298.08000000000004,25.92 L 311.04,25.92" style="stroke:white;fill:none;stroke-width:2;stroke-linecap:round;stroke-linejoin:round;" /><path d="M 311.04,25.92 L 324.0,25.92 L 336.96000000000004,25.92" style="stroke:white;fill:none;stroke-width:2;stroke-linecap:round;stroke-linejoin:round;" /><path d="M 336.96000000000004,25.92 L 349.92,25.92 L 362.88,25.92" style="stroke:white;fill:none;stroke-width:2;stroke-linecap:round;stroke-linejoin:round;" /><path d="M 362.88,25.92 L 375.84000000000003,25.92 L 388.8,25.92" style="stroke:white;fill:none;stroke-width:2;stroke-linecap:round;stroke-linejoin:round;" /><path d="M 388.8,25.92 L 401.76000000000005,25.92 L 414.72,25.92" style="stroke:white;fill:none;stroke-width:2;stroke-linecap:round;stroke-linejoin:round;" /><path d="M 414.72,25.92 L 427.68,25.92 L 440.64000000000004,25.92" style="stroke:white;fill:none;stroke-width:2;stroke-linecap:round;stroke-linejoin:round;" /><path d="M 440.64000000000004,25.92 L 453.6,25.92 L 466.56000000000006,25.92" style="stroke:white;fill:none;stroke-width:2;stroke-linecap:round;stroke-linejoin:round;" /><path d="M 466.56000000000006,25.92 L 479.52000000000004,25.92 L 492.48,25.92" style="stroke:white;fill:none;stroke-width:2;stroke-linecap:round;stroke-linejoin:round;" /><path d="M 492.48,25.92 L 505.44000000000005,25.92 L 518.4000000000001,25.92" style="stroke:white;fill:none;stroke-width:2;stroke-linecap:round;stroke-linejoin:round;" /><path d="M 518.4000000000001,25.92 L 531.36,25.92 L 544.32,25.92" style="stroke:white;fill:none;stroke-width:2;stroke-linecap:round;stroke-linejoin:round;" /><path d="M 544.32,25.92 L 557.2800000000001,25.92 L 570.24,25.92" style="stroke:white;fill:none;stroke-width:2;stroke-linecap:round;stroke-linejoin:round;" /><path d="M 570.24,25.92 L 583.2,25.92 L 596.1600000000001,25.92" style="stroke:white;fill:none;stroke-width:2;stroke-linecap:round;stroke-linejoin:round;" /><path d="M 596.1600000000001,25.92 L 609.12,25.92 L 622.08,25.92" style="stroke:white;fill:none;stroke-width:2;stroke-linecap:round;stroke-linejoin:round;" /><path d="M 622.08,25.92 L 635.0400000000001,25.92 L 648.0,25.92" style="stroke:white;fill:none;stroke-width:2;stroke-linecap:round;stroke-linejoin:round;" /><path d="M 648.0,25.92 L 660.96,25.92 L 673.9200000000001,25.92" style="stroke:white;fill:none;stroke-width:2;stroke-linecap:round;stroke-linejoin:round;" /><path d="M 673.9200000000001,25.92 L 686.88,25.92 L 699.84,25.92" style="stroke:white;fill:none;stroke-width:2;stroke-linecap:round;stroke-linejoin:round;" /><path d="M 699.84,25.92 L 712.8000000000001,25.92 L 725.76,25.92" style="stroke:white;fill:none;stroke-width:2;stroke-linecap:round;stroke-linejoin:round;" /><path d="M 725.76,25.92 L 738.72,25.92 L 751.6800000000001,25.92" style="stroke:white;fill:none;stroke-width:2;stroke-linecap:round;stroke-linejoin:round;" /><path d="M 751.6800000000001,25.92 L 751.6800000000001,38.88 L 751.6800000000001,51.84" style="stroke:white;fill:none;stroke-width:2;stroke-linecap:round;stroke-linejoin:round;" /><path d="M 751.6800000000001,51.84 L 738.72,51.84 L 725.76,51.839999999999996" style="stroke:white;fill:none;stroke-width:2;stroke-linecap:round;stroke-linejoin:round;" /><path d="M 725.76,51.839999999999996 L 712.8000000000001,51.839999999999996 L 699.84,51.83999999999999" style="stroke:white;fill:none;stroke-width:2;stroke-linecap:round;stroke-linejoin:round;" /><path d="M 699.84,51.83999999999999 L 686.88,51.83999999999999 L 673.9200000000001,51.83999999999999" style="stroke:white;fill:none;stroke-width:2;stroke-linecap:round;stroke-linejoin:round;" /><path d="M 673.9200000000001,51.83999999999999 L 660.96,51.83999999999999 L 648.0,51.83999999999998" style="stroke:white;fill:none;stroke-width:2;stroke-linecap:round;stroke-linejoin:round;" /><path d="M 648.0,51.83999999999998 L 635.0400000000001,51.83999999999998 L 622.08,51.839999999999975" style="stroke:white;fill:none;stroke-width:2;stroke-linecap:round;stroke-linejoin:round;" /><path d="M 622.08,51.839999999999975 L 609.12,51.839999999999975 L 596.1600000000001,51.83999999999997" style="stroke:white;fill:none;stroke-width:2;stroke-linecap:round;stroke-linejoin:round;" /><path d="M 596.1600000000001,51.83999999999997 L 583.2,51.83999999999997 L 570.24,51.83999999999996" style="stroke:white;fill:none;stroke-width:2;stroke-linecap:round;stroke-linejoin:round;" /><path d="M 570.24,51.83999999999996 L 557.2800000000001,51.83999999999996 L 544.32,51.83999999999996" style="stroke:white;fill:none;stroke-width:2;stroke-linecap:round;stroke-linejoin:round;" /><path d="M 544.32,51.83999999999996 L 531.36,51.83999999999996 L 518.4000000000001,51.839999999999954" style="stroke:white;fill:none;stroke-width:2;stroke-linecap:round;stroke-linejoin:round;" /><path d="M 518.4000000000001,51.839999999999954 L 505.44000000000005,51.839999999999954 L 492.48,51.83999999999995" style="stroke:white;fill:none;stroke-width:2;stroke-linecap:round;stroke-linejoin:round;" /><path d="M 492.48,51.83999999999995 L 479.52000000000004,51.83999999999995 L 466.56000000000006,51.83999999999994" style="stroke:white;fill:none;stroke-width:2;stroke-linecap:round;stroke-linejoin:round;" /><path d="M 466.56000000000006,51.83999999999994 L 453.6,51.83999999999994 L 440.64000000000004,51.83999999999993" style="stroke:white;fill:none;stroke-width:2;stroke-linecap:round;stroke-linejoin:round;" /><path d="M 440.64000000000004,51.83999999999993 L 427.68,51.83999999999993 L 414.72,51.839999999999925" style="stroke:white;fill:none;stroke-width:2;stroke-linecap:round;stroke-linejoin:round;" /><path d="M 414.72,51.839999999999925 L 401.76000000000005,51.839999999999925 L 388.8,51.839999999999925" style="stroke:white;fill:none;stroke-width:2;stroke-linecap:round;stroke-linejoin:round;" /><path d="M 388.8,51.839999999999925 L 375.84000000000003,51.839999999999925 L 362.88,51.83999999999992" style="stroke:white;fill:none;stroke-width:2;stroke-linecap:round;stroke-linejoin:round;" /><path d="M 362.88,51.83999999999992 L 349.92,51.83999999999992 L 336.96000000000004,51.83999999999991" style="stroke:white;fill:none;stroke-width:2;stroke-linecap:round;stroke-linejoin:round;" /><path d="M 336.96000000000004,51.83999999999991 L 324.0,51.83999999999991 L 311.04,51.839999999999904" style="stroke:white;fill:none;stroke-width:2;stroke-linecap:round;stroke-linejoin:round;" /><path d="M 311.04,51.839999999999904 L 298.08000000000004,51.839999999999904 L 285.12,51.8399999999999" style="stroke:white;fill:none;stroke-width:2;stroke-linecap:round;stroke-linejoin:round;" /><path d="M 285.12,51.8399999999999 L 272.16,51.8399999999999 L 259.20000000000005,51.8399999999999" style="stroke:white;fill:none;stroke-width:2;stroke-linecap:round;stroke-linejoin:round;" /><path d="M 259.20000000000005,51.8399999999999 L 246.24,51.8399999999999 L 233.28000000000003,51.83999999999989" style="stroke:white;fill:none;stroke-width:2;stroke-linecap:round;stroke-linejoin:round;" /><path d="M 233.28000000000003,51.83999999999989 L 220.32000000000002,51.83999999999989 L 207.36,51.83999999999988" style="stroke:white;fill:none;stroke-width:2;stroke-linecap:round;stroke-linejoin:round;" /><path d="M 207.36,51.83999999999988 L 194.4,51.83999999999988 L 181.44,51.839999999999876" style="stroke:white;fill:none;stroke-width:2;stroke-linecap:round;stroke-linejoin:round;" /><path d="M 181.44,51.839999999999876 L 168.48000000000002,51.839999999999876 L 155.52,51.83999999999987" style="stroke:white;fill:none;stroke-width:2;stroke-linecap:round;stroke-linejoin:round;" /><path d="M 155.52,51.83999999999987 L 142.56,51.83999999999987 L 129.60000000000002,51.83999999999987" style="stroke:white;fill:none;stroke-width:2;stroke-linecap:round;stroke-linejoin:round;" /><path d="M 129.60000000000002,51.83999999999987 L 116.64000000000001,51.83999999999987 L 103.68,51.83999999999986" style="stroke:white;fill:none;stroke-width:2;stroke-linecap:round;stroke-linejoin:round;" /><path d="M 103.68,51.83999999999986 L 90.72,51.83999999999986 L 77.76,51.839999999999854" style="stroke:white;fill:none;stroke-width:2;stroke-linecap:round;stroke-linejoin:round;" /><path d="M 77.76,51.839999999999854 L 64.80000000000001,51.839999999999854 L 51.84,51.83999999999985" style="stroke:white;fill:none;stroke-width:2;stroke-linecap:round;stroke-linejoin:round;" /><path d="M 51.84,51.83999999999985 L 38.88,51.83999999999985 L 25.92,51.83999999999984" style="stroke:white;fill:none;stroke-width:2;stroke-linecap:round;stroke-linejoin:round;" /><path d="M 25.92,51.83999999999984 L 12.96,51.83999999999984 L 0.0,51.83999999999984" style="stroke:white;fill:none;stroke-width:2;stroke-linecap:round;stroke-linejoin:round;" /><path d="M 0.0,51.83999999999984 L -2.3807133775424547e-15,64.79999999999984 L -4.761426755084909e-15,77.75999999999985" style="stroke:white;fill:none;stroke-width:2;stroke-linecap:round;stroke-linejoin:round;" /><path d="M -4.761426755084909e-15,77.75999999999985 L 12.959999999999997,77.75999999999985 L 25.919999999999995,77.75999999999985" style="stroke:white;fill:none;stroke-width:2;stroke-linecap:round;stroke-linejoin:round;" /><path d="M 25.919999999999995,77.75999999999985 L 38.879999999999995,77.75999999999985 L 51.839999999999996,77.75999999999985" style="stroke:white;fill:none;stroke-width:2;stroke-linecap:round;stroke-linejoin:round;" /><path d="M 51.839999999999996,77.75999999999985 L 64.80000000000001,77.75999999999985 L 77.76,77.75999999999985" style="stroke:white;fill:none;stroke-width:2;stroke-linecap:round;stroke-linejoin:round;" /><path d="M 77.76,77.75999999999985 L 90.72,77.75999999999985 L 103.68,77.75999999999985" style="stroke:white;fill:none;stroke-width:2;stroke-linecap:round;stroke-linejoin:round;" /><path d="M 103.68,77.75999999999985 L 116.64000000000001,77.75999999999985 L 129.60000000000002,77.75999999999985" style="stroke:white;fill:none;stroke-width:2;stroke-linecap:round;stroke-linejoin:round;" /><path d="M 129.60000000000002,77.75999999999985 L 142.56,77.75999999999985 L 155.52,77.75999999999985" style="stroke:white;fill:none;stroke-width:2;stroke-linecap:round;stroke-linejoin:round;" /><path d="M 155.52,77.75999999999985 L 168.48000000000002,77.75999999999985 L 181.44,77.75999999999985" style="stroke:white;fill:none;stroke-width:2;stroke-linecap:round;stroke-linejoin:round;" /><path d="M 181.44,77.75999999999985 L 194.4,77.75999999999985 L 207.36,77.75999999999985" style="stroke:white;fill:none;stroke-width:2;stroke-linecap:round;stroke-linejoin:round;" /><path d="M 207.36,77.75999999999985 L 220.32000000000002,77.75999999999985 L 233.28000000000003,77.75999999999985" style="stroke:white;fill:none;stroke-width:2;stroke-linecap:round;stroke-linejoin:round;" /><path d="M 233.28000000000003,77.75999999999985 L 246.24,77.75999999999985 L 259.20000000000005,77.75999999999985" style="stroke:white;fill:none;stroke-width:2;stroke-linecap:round;stroke-linejoin:round;" /><path d="M 259.20000000000005,77.75999999999985 L 272.16,77.75999999999985 L 285.12,77.75999999999985" style="stroke:white;fill:none;stroke-width:2;stroke-linecap:round;stroke-linejoin:round;" /><path d="M 285.12,77.75999999999985 L 298.08000000000004,77.75999999999985 L 311.04,77.75999999999985" style="stroke:white;fill:none;stroke-width:2;stroke-linecap:round;stroke-linejoin:round;" /><path d="M 311.04,77.75999999999985 L 324.0,77.75999999999985 L 336.96000000000004,77.75999999999985" style="stroke:white;fill:none;stroke-width:2;stroke-linecap:round;stroke-linejoin:round;" /><path d="M 336.96000000000004,77.75999999999985 L 349.92,77.75999999999985 L 362.88,77.75999999999985" style="stroke:white;fill:none;stroke-width:2;stroke-linecap:round;stroke-linejoin:round;" /><path d="M 362.88,77.75999999999985 L 375.84000000000003,77.75999999999985 L 388.8,77.75999999999985" style="stroke:white;fill:none;stroke-width:2;stroke-linecap:round;stroke-linejoin:round;" /><path d="M 388.8,77.75999999999985 L 401.76000000000005,77.75999999999985 L 414.72,77.75999999999985" style="stroke:white;fill:none;stroke-width:2;stroke-linecap:round;stroke-linejoin:round;" /><path d="M 414.72,77.75999999999985 L 427.68,77.75999999999985 L 440.64000000000004,77.75999999999985" style="stroke:white;fill:none;stroke-width:2;stroke-linecap:round;stroke-linejoin:round;" /><path d="M 440.64000000000004,77.75999999999985 L 453.6,77.75999999999985 L 466.56000000000006,77.75999999999985" style="stroke:white;fill:none;stroke-width:2;stroke-linecap:round;stroke-linejoin:round;" /><path d="M 466.56000000000006,77.75999999999985 L 479.52000000000004,77.75999999999985 L 492.48,77.75999999999985" style="stroke:white;fill:none;stroke-width:2;stroke-linecap:round;stroke-linejoin:round;" /><path d="M 492.48,77.75999999999985 L 505.44000000000005,77.75999999999985 L 518.4000000000001,77.75999999999985" style="stroke:white;fill:none;stroke-width:2;stroke-linecap:round;stroke-linejoin:round;" /><path d="M 518.4000000000001,77.75999999999985 L 531.36,77.75999999999985 L 544.32,77.75999999999985" style="stroke:white;fill:none;stroke-width:2;stroke-linecap:round;stroke-linejoin:round;" /><path d="M 544.32,77.75999999999985 L 557.2800000000001,77.75999999999985 L 570.24,77.75999999999985" style="stroke:white;fill:none;stroke-width:2;stroke-linecap:round;stroke-linejoin:round;" /><path d="M 570.24,77.75999999999985 L 583.2,77.75999999999985 L 596.1600000000001,77.75999999999985" style="stroke:white;fill:none;stroke-width:2;stroke-linecap:round;stroke-linejoin:round;" /><path d="M 596.1600000000001,77.75999999999985 L 609.12,77.75999999999985 L 622.08,77.75999999999985" style="stroke:white;fill:none;stroke-width:2;stroke-linecap:round;stroke-linejoin:round;" /><path d="M 622.08,77.75999999999985 L 635.0400000000001,77.75999999999985 L 648.0,77.75999999999985" style="stroke:white;fill:none;stroke-width:2;stroke-linecap:round;stroke-linejoin:round;" /><path d="M 648.0,77.75999999999985 L 660.96,77.75999999999985 L 673.9200000000001,77.75999999999985" style="stroke:white;fill:none;stroke-width:2;stroke-linecap:round;stroke-linejoin:round;" /><path d="M 673.9200000000001,77.75999999999985 L 686.88,77.75999999999985 L 699.84,77.75999999999985" style="stroke:white;fill:none;stroke-width:2;stroke-linecap:round;stroke-linejoin:round;" /><path d="M 699.84,77.75999999999985 L 712.8000000000001,77.75999999999985 L 725.76,77.75999999999985" style="stroke:white;fill:none;stroke-width:2;stroke-linecap:round;stroke-linejoin:round;" /><path d="M 725.76,77.75999999999985 L 738.72,77.75999999999985 L 751.6800000000001,77.75999999999985" style="stroke:white;fill:none;stroke-width:2;stroke-linecap:round;stroke-linejoin:round;" /><path d="M 751.6800000000001,77.75999999999985 L 751.6800000000001,90.71999999999984 L 751.6800000000001,103.67999999999985" style="stroke:white;fill:none;stroke-width:2;stroke-linecap:round;stroke-linejoin:round;" /><path d="M 751.6800000000001,103.67999999999985 L 738.72,103.67999999999985 L 725.76,103.67999999999985" style="stroke:white;fill:none;stroke-width:2;stroke-linecap:round;stroke-linejoin:round;" /><path d="M 725.76,103.67999999999985 L 712.8000000000001,103.67999999999985 L 699.84,103.67999999999985" style="stroke:white;fill:none;stroke-width:2;stroke-linecap:round;stroke-linejoin:round;" /><path d="M 699.84,103.67999999999985 L 686.88,103.67999999999985 L 673.9200000000001,103.67999999999985" style="stroke:white;fill:none;stroke-width:2;stroke-linecap:round;stroke-linejoin:round;" /><path d="M 673.9200000000001,103.67999999999985 L 660.96,103.67999999999985 L 648.0,103.67999999999985" style="stroke:white;fill:none;stroke-width:2;stroke-linecap:round;stroke-linejoin:round;" /><path d="M 648.0,103.67999999999985 L 635.0400000000001,103.67999999999985 L 622.08,103.67999999999985" style="stroke:white;fill:none;stroke-width:2;stroke-linecap:round;stroke-linejoin:round;" /><path d="M 622.08,103.67999999999985 L 609.12,103.67999999999985 L 596.1600000000001,103.67999999999985" style="stroke:white;fill:none;stroke-width:2;stroke-linecap:round;stroke-linejoin:round;" /><path d="M 596.1600000000001,103.67999999999985 L 583.2,103.67999999999985 L 570.24,103.67999999999985" style="stroke:white;fill:none;stroke-width:2;stroke-linecap:round;stroke-linejoin:round;" /><path d="M 570.24,103.67999999999985 L 557.2800000000001,103.67999999999985 L 544.32,103.67999999999985" style="stroke:white;fill:none;stroke-width:2;stroke-linecap:round;stroke-linejoin:round;" /><path d="M 544.32,103.67999999999985 L 531.36,103.67999999999985 L 518.4000000000001,103.67999999999985" style="stroke:white;fill:none;stroke-width:2;stroke-linecap:round;stroke-linejoin:round;" /><path d="M 518.4000000000001,103.67999999999985 L 505.44000000000005,103.67999999999985 L 492.48,103.67999999999985" style="stroke:white;fill:none;stroke-width:2;stroke-linecap:round;stroke-linejoin:round;" /><path d="M 492.48,103.67999999999985 L 479.52000000000004,103.67999999999985 L 466.56000000000006,103.67999999999985" style="stroke:white;fill:none;stroke-width:2;stroke-linecap:round;stroke-linejoin:round;" /><path d="M 466.56000000000006,103.67999999999985 L 453.6,103.67999999999985 L 440.64000000000004,103.67999999999985" style="stroke:white;fill:none;stroke-width:2;stroke-linecap:round;stroke-linejoin:round;" /><path d="M 440.64000000000004,103.67999999999985 L 427.68,103.67999999999985 L 414.72,103.67999999999985" style="stroke:white;fill:none;stroke-width:2;stroke-linecap:round;stroke-linejoin:round;" /><path d="M 414.72,103.67999999999985 L 401.76000000000005,103.67999999999985 L 388.8,103.67999999999985" style="stroke:white;fill:none;stroke-width:2;stroke-linecap:round;stroke-linejoin:round;" /><path d="M 388.8,103.67999999999985 L 375.84000000000003,103.67999999999985 L 362.88,103.67999999999985" style="stroke:white;fill:none;stroke-width:2;stroke-linecap:round;stroke-linejoin:round;" /><path d="M 362.88,103.67999999999985 L 349.92,103.67999999999985 L 336.96000000000004,103.67999999999985" style="stroke:white;fill:none;stroke-width:2;stroke-linecap:round;stroke-linejoin:round;" /><path d="M 336.96000000000004,103.67999999999985 L 324.0,103.67999999999985 L 311.04,103.67999999999985" style="stroke:white;fill:none;stroke-width:2;stroke-linecap:round;stroke-linejoin:round;" /><path d="M 311.04,103.67999999999985 L 298.08000000000004,103.67999999999985 L 285.12,103.67999999999985" style="stroke:white;fill:none;stroke-width:2;stroke-linecap:round;stroke-linejoin:round;" /><path d="M 285.12,103.67999999999985 L 272.16,103.67999999999985 L 259.20000000000005,103.67999999999985" style="stroke:white;fill:none;stroke-width:2;stroke-linecap:round;stroke-linejoin:round;" /><path d="M 259.20000000000005,103.67999999999985 L 246.24,103.67999999999985 L 233.28000000000003,103.67999999999985" style="stroke:white;fill:none;stroke-width:2;stroke-linecap:round;stroke-linejoin:round;" /><path d="M 233.28000000000003,103.67999999999985 L 220.32000000000002,103.67999999999985 L 207.36,103.67999999999985" style="stroke:white;fill:none;stroke-width:2;stroke-linecap:round;stroke-linejoin:round;" /><path d="M 207.36,103.67999999999985 L 194.4,103.67999999999985 L 181.44,103.67999999999985" style="stroke:white;fill:none;stroke-width:2;stroke-linecap:round;stroke-linejoin:round;" /><path d="M 181.44,103.67999999999985 L 168.48000000000002,103.67999999999985 L 155.52,103.67999999999985" style="stroke:white;fill:none;stroke-width:2;stroke-linecap:round;stroke-linejoin:round;" /><path d="M 155.52,103.67999999999985 L 142.56,103.67999999999985 L 129.60000000000002,103.67999999999985" style="stroke:white;fill:none;stroke-width:2;stroke-linecap:round;stroke-linejoin:round;" /><path d="M 129.60000000000002,103.67999999999985 L 116.64000000000001,103.67999999999985 L 103.68,103.67999999999985" style="stroke:white;fill:none;stroke-width:2;stroke-linecap:round;stroke-linejoin:round;" /><path d="M 103.68,103.67999999999985 L 90.72,103.67999999999985 L 77.76,103.67999999999985" style="stroke:white;fill:none;stroke-width:2;stroke-linecap:round;stroke-linejoin:round;" /><path d="M 77.76,103.67999999999985 L 64.80000000000001,103.67999999999985 L 51.84,103.67999999999985" style="stroke:white;fill:none;stroke-width:2;stroke-linecap:round;stroke-linejoin:round;" /><path d="M 51.84,103.67999999999985 L 38.88,103.67999999999985 L 25.92,103.67999999999985" style="stroke:white;fill:none;stroke-width:2;stroke-linecap:round;stroke-linejoin:round;" /><path d="M 25.92,103.67999999999985 L 12.96,103.67999999999985 L 0.0,103.67999999999985" style="stroke:white;fill:none;stroke-width:2;stroke-linecap:round;stroke-linejoin:round;" /><path d="M 0.0,103.67999999999985 L -2.3807133775424547e-15,116.63999999999984 L -4.761426755084909e-15,129.59999999999985" style="stroke:white;fill:none;stroke-width:2;stroke-linecap:round;stroke-linejoin:round;" /><path d="M -4.761426755084909e-15,129.59999999999985 L 12.959999999999997,129.59999999999985 L 25.919999999999995,129.59999999999985" style="stroke:white;fill:none;stroke-width:2;stroke-linecap:round;stroke-linejoin:round;" /><path d="M 25.919999999999995,129.59999999999985 L 38.879999999999995,129.59999999999985 L 51.839999999999996,129.59999999999985" style="stroke:white;fill:none;stroke-width:2;stroke-linecap:round;stroke-linejoin:round;" /><path d="M 51.839999999999996,129.59999999999985 L 64.80000000000001,129.59999999999985 L 77.76,129.59999999999985" style="stroke:white;fill:none;stroke-width:2;stroke-linecap:round;stroke-linejoin:round;" /><path d="M 77.76,129.59999999999985 L 90.72,129.59999999999985 L 103.68,129.59999999999985" style="stroke:white;fill:none;stroke-width:2;stroke-linecap:round;stroke-linejoin:round;" /><path d="M 103.68,129.59999999999985 L 116.64000000000001,129.59999999999985 L 129.60000000000002,129.59999999999985" style="stroke:white;fill:none;stroke-width:2;stroke-linecap:round;stroke-linejoin:round;" /><path d="M 129.60000000000002,129.59999999999985 L 142.56,129.59999999999985 L 155.52,129.59999999999985" style="stroke:white;fill:none;stroke-width:2;stroke-linecap:round;stroke-linejoin:round;" /><path d="M 155.52,129.59999999999985 L 168.48000000000002,129.59999999999985 L 181.44,129.59999999999985" style="stroke:white;fill:none;stroke-width:2;stroke-linecap:round;stroke-linejoin:round;" /><path d="M 181.44,129.59999999999985 L 194.4,129.59999999999985 L 207.36,129.59999999999985" style="stroke:white;fill:none;stroke-width:2;stroke-linecap:round;stroke-linejoin:round;" /><path d="M 207.36,129.59999999999985 L 220.32000000000002,129.59999999999985 L 233.28000000000003,129.59999999999985" style="stroke:white;fill:none;stroke-width:2;stroke-linecap:round;stroke-linejoin:round;" /><path d="M 233.28000000000003,129.59999999999985 L 246.24,129.59999999999985 L 259.20000000000005,129.59999999999985" style="stroke:white;fill:none;stroke-width:2;stroke-linecap:round;stroke-linejoin:round;" /><path d="M 259.20000000000005,129.59999999999985 L 272.16,129.59999999999985 L 285.12,129.59999999999985" style="stroke:white;fill:none;stroke-width:2;stroke-linecap:round;stroke-linejoin:round;" /><path d="M 285.12,129.59999999999985 L 298.08000000000004,129.59999999999985 L 311.04,129.59999999999985" style="stroke:white;fill:none;stroke-width:2;stroke-linecap:round;stroke-linejoin:round;" /><path d="M 311.04,129.59999999999985 L 324.0,129.59999999999985 L 336.96000000000004,129.59999999999985" style="stroke:white;fill:none;stroke-width:2;stroke-linecap:round;stroke-linejoin:round;" /><path d="M 336.96000000000004,129.59999999999985 L 349.92,129.59999999999985 L 362.88,129.59999999999985" style="stroke:white;fill:none;stroke-width:2;stroke-linecap:round;stroke-linejoin:round;" /><path d="M 362.88,129.59999999999985 L 375.84000000000003,129.59999999999985 L 388.8,129.59999999999985" style="stroke:white;fill:none;stroke-width:2;stroke-linecap:round;stroke-linejoin:round;" /><path d="M 388.8,129.59999999999985 L 401.76000000000005,129.59999999999985 L 414.72,129.59999999999985" style="stroke:white;fill:none;stroke-width:2;stroke-linecap:round;stroke-linejoin:round;" /><path d="M 414.72,129.59999999999985 L 427.68,129.59999999999985 L 440.64000000000004,129.59999999999985" style="stroke:white;fill:none;stroke-width:2;stroke-linecap:round;stroke-linejoin:round;" /><path d="M 440.64000000000004,129.59999999999985 L 453.6,129.59999999999985 L 466.56000000000006,129.59999999999985" style="stroke:white;fill:none;stroke-width:2;stroke-linecap:round;stroke-linejoin:round;" /><path d="M 466.56000000000006,129.59999999999985 L 479.52000000000004,129.59999999999985 L 492.48,129.59999999999985" style="stroke:white;fill:none;stroke-width:2;stroke-linecap:round;stroke-linejoin:round;" /><path d="M 492.48,129.59999999999985 L 505.44000000000005,129.59999999999985 L 518.4000000000001,129.59999999999985" style="stroke:white;fill:none;stroke-width:2;stroke-linecap:round;stroke-linejoin:round;" /><path d="M 518.4000000000001,129.59999999999985 L 531.36,129.59999999999985 L 544.32,129.59999999999985" style="stroke:white;fill:none;stroke-width:2;stroke-linecap:round;stroke-linejoin:round;" /><path d="M 544.32,129.59999999999985 L 557.2800000000001,129.59999999999985 L 570.24,129.59999999999985" style="stroke:white;fill:none;stroke-width:2;stroke-linecap:round;stroke-linejoin:round;" /><path d="M 570.24,129.59999999999985 L 583.2,129.59999999999985 L 596.1600000000001,129.59999999999985" style="stroke:white;fill:none;stroke-width:2;stroke-linecap:round;stroke-linejoin:round;" /><path d="M 596.1600000000001,129.59999999999985 L 609.12,129.59999999999985 L 622.08,129.59999999999985" style="stroke:white;fill:none;stroke-width:2;stroke-linecap:round;stroke-linejoin:round;" /><path d="M 622.08,129.59999999999985 L 635.0400000000001,129.59999999999985 L 648.0,129.59999999999985" style="stroke:white;fill:none;stroke-width:2;stroke-linecap:round;stroke-linejoin:round;" /><path d="M 648.0,129.59999999999985 L 660.96,129.59999999999985 L 673.9200000000001,129.59999999999985" style="stroke:white;fill:none;stroke-width:2;stroke-linecap:round;stroke-linejoin:round;" /><path d="M 673.9200000000001,129.59999999999985 L 686.88,129.59999999999985 L 699.84,129.59999999999985" style="stroke:white;fill:none;stroke-width:2;stroke-linecap:round;stroke-linejoin:round;" /><path d="M 699.84,129.59999999999985 L 712.8000000000001,129.59999999999985 L 725.76,129.59999999999985" style="stroke:white;fill:none;stroke-width:2;stroke-linecap:round;stroke-linejoin:round;" /><path d="M 725.76,129.59999999999985 L 738.72,129.59999999999985 L 751.6800000000001,129.59999999999985" style="stroke:white;fill:none;stroke-width:2;stroke-linecap:round;stroke-linejoin:round;" /><path d="M 751.6800000000001,129.59999999999985 L 751.6800000000001,142.55999999999986 L 751.6800000000001,155.51999999999984" style="stroke:white;fill:none;stroke-width:2;stroke-linecap:round;stroke-linejoin:round;" /><path d="M 751.6800000000001,155.51999999999984 L 738.72,155.51999999999984 L 725.76,155.51999999999984" style="stroke:white;fill:none;stroke-width:2;stroke-linecap:round;stroke-linejoin:round;" /><path d="M 725.76,155.51999999999984 L 712.8000000000001,155.51999999999984 L 699.84,155.51999999999984" style="stroke:white;fill:none;stroke-width:2;stroke-linecap:round;stroke-linejoin:round;" /><path d="M 699.84,155.51999999999984 L 686.88,155.51999999999984 L 673.9200000000001,155.51999999999984" style="stroke:white;fill:none;stroke-width:2;stroke-linecap:round;stroke-linejoin:round;" /><path d="M 673.9200000000001,155.51999999999984 L 660.96,155.51999999999984 L 648.0,155.51999999999984" style="stroke:white;fill:none;stroke-width:2;stroke-linecap:round;stroke-linejoin:round;" /><path d="M 648.0,155.51999999999984 L 635.0400000000001,155.51999999999984 L 622.08,155.51999999999984" style="stroke:white;fill:none;stroke-width:2;stroke-linecap:round;stroke-linejoin:round;" /><path d="M 622.08,155.51999999999984 L 609.12,155.51999999999984 L 596.1600000000001,155.51999999999984" style="stroke:white;fill:none;stroke-width:2;stroke-linecap:round;stroke-linejoin:round;" /><path d="M 596.1600000000001,155.51999999999984 L 583.2,155.51999999999984 L 570.24,155.51999999999984" style="stroke:white;fill:none;stroke-width:2;stroke-linecap:round;stroke-linejoin:round;" /><path d="M 570.24,155.51999999999984 L 557.2800000000001,155.51999999999984 L 544.32,155.51999999999984" style="stroke:white;fill:none;stroke-width:2;stroke-linecap:round;stroke-linejoin:round;" /><path d="M 544.32,155.51999999999984 L 531.36,155.51999999999984 L 518.4000000000001,155.51999999999984" style="stroke:white;fill:none;stroke-width:2;stroke-linecap:round;stroke-linejoin:round;" /><path d="M 518.4000000000001,155.51999999999984 L 505.44000000000005,155.51999999999984 L 492.48,155.51999999999984" style="stroke:white;fill:none;stroke-width:2;stroke-linecap:round;stroke-linejoin:round;" /><path d="M 492.48,155.51999999999984 L 479.52000000000004,155.51999999999984 L 466.56000000000006,155.51999999999984" style="stroke:white;fill:none;stroke-width:2;stroke-linecap:round;stroke-linejoin:round;" /><path d="M 466.56000000000006,155.51999999999984 L 453.6,155.51999999999984 L 440.64000000000004,155.51999999999984" style="stroke:white;fill:none;stroke-width:2;stroke-linecap:round;stroke-linejoin:round;" /><path d="M 440.64000000000004,155.51999999999984 L 427.68,155.51999999999984 L 414.72,155.51999999999984" style="stroke:white;fill:none;stroke-width:2;stroke-linecap:round;stroke-linejoin:round;" /><path d="M 414.72,155.51999999999984 L 401.76000000000005,155.51999999999984 L 388.8,155.51999999999984" style="stroke:white;fill:none;stroke-width:2;stroke-linecap:round;stroke-linejoin:round;" /><path d="M 388.8,155.51999999999984 L 375.84000000000003,155.51999999999984 L 362.88,155.51999999999984" style="stroke:white;fill:none;stroke-width:2;stroke-linecap:round;stroke-linejoin:round;" /><path d="M 362.88,155.51999999999984 L 349.92,155.51999999999984 L 336.96000000000004,155.51999999999984" style="stroke:white;fill:none;stroke-width:2;stroke-linecap:round;stroke-linejoin:round;" /><path d="M 336.96000000000004,155.51999999999984 L 324.0,155.51999999999984 L 311.04,155.51999999999984" style="stroke:white;fill:none;stroke-width:2;stroke-linecap:round;stroke-linejoin:round;" /><path d="M 311.04,155.51999999999984 L 298.08000000000004,155.51999999999984 L 285.12,155.51999999999984" style="stroke:white;fill:none;stroke-width:2;stroke-linecap:round;stroke-linejoin:round;" /><path d="M 285.12,155.51999999999984 L 272.16,155.51999999999984 L 259.20000000000005,155.51999999999984" style="stroke:white;fill:none;stroke-width:2;stroke-linecap:round;stroke-linejoin:round;" /><path d="M 259.20000000000005,155.51999999999984 L 246.24,155.51999999999984 L 233.28000000000003,155.51999999999984" style="stroke:white;fill:none;stroke-width:2;stroke-linecap:round;stroke-linejoin:round;" /><path d="M 233.28000000000003,155.51999999999984 L 220.32000000000002,155.51999999999984 L 207.36,155.51999999999984" style="stroke:white;fill:none;stroke-width:2;stroke-linecap:round;stroke-linejoin:round;" /><path d="M 207.36,155.51999999999984 L 194.4,155.51999999999984 L 181.44,155.51999999999984" style="stroke:white;fill:none;stroke-width:2;stroke-linecap:round;stroke-linejoin:round;" /><path d="M 181.44,155.51999999999984 L 168.48000000000002,155.51999999999984 L 155.52,155.51999999999984" style="stroke:white;fill:none;stroke-width:2;stroke-linecap:round;stroke-linejoin:round;" /><path d="M 155.52,155.51999999999984 L 142.56,155.51999999999984 L 129.60000000000002,155.51999999999984" style="stroke:white;fill:none;stroke-width:2;stroke-linecap:round;stroke-linejoin:round;" /><path d="M 129.60000000000002,155.51999999999984 L 116.64000000000001,155.51999999999984 L 103.68,155.51999999999984" style="stroke:white;fill:none;stroke-width:2;stroke-linecap:round;stroke-linejoin:round;" /><path d="M 103.68,155.51999999999984 L 90.72,155.51999999999984 L 77.76,155.51999999999984" style="stroke:white;fill:none;stroke-width:2;stroke-linecap:round;stroke-linejoin:round;" /><path d="M 77.76,155.51999999999984 L 64.80000000000001,155.51999999999984 L 51.84,155.51999999999984" style="stroke:white;fill:none;stroke-width:2;stroke-linecap:round;stroke-linejoin:round;" /><path d="M 51.84,155.51999999999984 L 38.88,155.51999999999984 L 25.92,155.51999999999984" style="stroke:white;fill:none;stroke-width:2;stroke-linecap:round;stroke-linejoin:round;" /><path d="M 25.92,155.51999999999984 L 12.96,155.51999999999984 L 0.0,155.51999999999984" style="stroke:white;fill:none;stroke-width:2;stroke-linecap:round;stroke-linejoin:round;" /><path d="M 0.0,155.51999999999984 L -2.3807133775424547e-15,168.47999999999985 L -4.761426755084909e-15,181.43999999999986" style="stroke:white;fill:none;stroke-width:2;stroke-linecap:round;stroke-linejoin:round;" /><path d="M -4.761426755084909e-15,181.43999999999986 L 12.959999999999997,181.43999999999986 L 25.919999999999995,181.43999999999986" style="stroke:white;fill:none;stroke-width:2;stroke-linecap:round;stroke-linejoin:round;" /><path d="M 25.919999999999995,181.43999999999986 L 38.879999999999995,181.43999999999986 L 51.839999999999996,181.43999999999986" style="stroke:white;fill:none;stroke-width:2;stroke-linecap:round;stroke-linejoin:round;" /><path d="M 51.839999999999996,181.43999999999986 L 64.80000000000001,181.43999999999986 L 77.76,181.43999999999986" style="stroke:white;fill:none;stroke-width:2;stroke-linecap:round;stroke-linejoin:round;" /><path d="M 77.76,181.43999999999986 L 90.72,181.43999999999986 L 103.68,181.43999999999986" style="stroke:white;fill:none;stroke-width:2;stroke-linecap:round;stroke-linejoin:round;" /><path d="M 103.68,181.43999999999986 L 116.64000000000001,181.43999999999986 L 129.60000000000002,181.43999999999986" style="stroke:white;fill:none;stroke-width:2;stroke-linecap:round;stroke-linejoin:round;" /><path d="M 129.60000000000002,181.43999999999986 L 142.56,181.43999999999986 L 155.52,181.43999999999986" style="stroke:white;fill:none;stroke-width:2;stroke-linecap:round;stroke-linejoin:round;" /><path d="M 155.52,181.43999999999986 L 168.48000000000002,181.43999999999986 L 181.44,181.43999999999986" style="stroke:white;fill:none;stroke-width:2;stroke-linecap:round;stroke-linejoin:round;" /><path d="M 181.44,181.43999999999986 L 194.4,181.43999999999986 L 207.36,181.43999999999986" style="stroke:white;fill:none;stroke-width:2;stroke-linecap:round;stroke-linejoin:round;" /><path d="M 207.36,181.43999999999986 L 220.32000000000002,181.43999999999986 L 233.28000000000003,181.43999999999986" style="stroke:white;fill:none;stroke-width:2;stroke-linecap:round;stroke-linejoin:round;" /><path d="M 233.28000000000003,181.43999999999986 L 246.24,181.43999999999986 L 259.20000000000005,181.43999999999986" style="stroke:white;fill:none;stroke-width:2;stroke-linecap:round;stroke-linejoin:round;" /><path d="M 259.20000000000005,181.43999999999986 L 272.16,181.43999999999986 L 285.12,181.43999999999986" style="stroke:white;fill:none;stroke-width:2;stroke-linecap:round;stroke-linejoin:round;" /><path d="M 285.12,181.43999999999986 L 298.08000000000004,181.43999999999986 L 311.04,181.43999999999986" style="stroke:white;fill:none;stroke-width:2;stroke-linecap:round;stroke-linejoin:round;" /><path d="M 311.04,181.43999999999986 L 324.0,181.43999999999986 L 336.96000000000004,181.43999999999986" style="stroke:white;fill:none;stroke-width:2;stroke-linecap:round;stroke-linejoin:round;" /><path d="M 336.96000000000004,181.43999999999986 L 349.92,181.43999999999986 L 362.88,181.43999999999986" style="stroke:white;fill:none;stroke-width:2;stroke-linecap:round;stroke-linejoin:round;" /><path d="M 362.88,181.43999999999986 L 375.84000000000003,181.43999999999986 L 388.8,181.43999999999986" style="stroke:white;fill:none;stroke-width:2;stroke-linecap:round;stroke-linejoin:round;" /><path d="M 388.8,181.43999999999986 L 401.76000000000005,181.43999999999986 L 414.72,181.43999999999986" style="stroke:white;fill:none;stroke-width:2;stroke-linecap:round;stroke-linejoin:round;" /><path d="M 414.72,181.43999999999986 L 427.68,181.43999999999986 L 440.64000000000004,181.43999999999986" style="stroke:white;fill:none;stroke-width:2;stroke-linecap:round;stroke-linejoin:round;" /><path d="M 440.64000000000004,181.43999999999986 L 453.6,181.43999999999986 L 466.56000000000006,181.43999999999986" style="stroke:white;fill:none;stroke-width:2;stroke-linecap:round;stroke-linejoin:round;" /><path d="M 466.56000000000006,181.43999999999986 L 479.52000000000004,181.43999999999986 L 492.48,181.43999999999986" style="stroke:white;fill:none;stroke-width:2;stroke-linecap:round;stroke-linejoin:round;" /><path d="M 492.48,181.43999999999986 L 505.44000000000005,181.43999999999986 L 518.4000000000001,181.43999999999986" style="stroke:white;fill:none;stroke-width:2;stroke-linecap:round;stroke-linejoin:round;" /><path d="M 518.4000000000001,181.43999999999986 L 531.36,181.43999999999986 L 544.32,181.43999999999986" style="stroke:white;fill:none;stroke-width:2;stroke-linecap:round;stroke-linejoin:round;" /><path d="M 544.32,181.43999999999986 L 557.2800000000001,181.43999999999986 L 570.24,181.43999999999986" style="stroke:white;fill:none;stroke-width:2;stroke-linecap:round;stroke-linejoin:round;" /><path d="M 570.24,181.43999999999986 L 583.2,181.43999999999986 L 596.1600000000001,181.43999999999986" style="stroke:white;fill:none;stroke-width:2;stroke-linecap:round;stroke-linejoin:round;" /><path d="M 596.1600000000001,181.43999999999986 L 609.12,181.43999999999986 L 622.08,181.43999999999986" style="stroke:white;fill:none;stroke-width:2;stroke-linecap:round;stroke-linejoin:round;" /><path d="M 622.08,181.43999999999986 L 635.0400000000001,181.43999999999986 L 648.0,181.43999999999986" style="stroke:white;fill:none;stroke-width:2;stroke-linecap:round;stroke-linejoin:round;" /><path d="M 648.0,181.43999999999986 L 660.96,181.43999999999986 L 673.9200000000001,181.43999999999986" style="stroke:white;fill:none;stroke-width:2;stroke-linecap:round;stroke-linejoin:round;" /><path d="M 673.9200000000001,181.43999999999986 L 686.88,181.43999999999986 L 699.84,181.43999999999986" style="stroke:white;fill:none;stroke-width:2;stroke-linecap:round;stroke-linejoin:round;" /><path d="M 699.84,181.43999999999986 L 712.8000000000001,181.43999999999986 L 725.76,181.43999999999986" style="stroke:white;fill:none;stroke-width:2;stroke-linecap:round;stroke-linejoin:round;" /><path d="M 725.76,181.43999999999986 L 738.72,181.43999999999986 L 751.6800000000001,181.43999999999986" style="stroke:white;fill:none;stroke-width:2;stroke-linecap:round;stroke-linejoin:round;" /><path d="M 751.6800000000001,181.43999999999986 L 751.6800000000001,194.39999999999986 L 751.6800000000001,207.35999999999984" style="stroke:white;fill:none;stroke-width:2;stroke-linecap:round;stroke-linejoin:round;" /><path d="M 751.6800000000001,207.35999999999984 L 738.72,207.35999999999984 L 725.76,207.35999999999984" style="stroke:white;fill:none;stroke-width:2;stroke-linecap:round;stroke-linejoin:round;" /><path d="M 725.76,207.35999999999984 L 712.8000000000001,207.35999999999984 L 699.84,207.35999999999984" style="stroke:white;fill:none;stroke-width:2;stroke-linecap:round;stroke-linejoin:round;" /><path d="M 699.84,207.35999999999984 L 686.88,207.35999999999984 L 673.9200000000001,207.35999999999984" style="stroke:white;fill:none;stroke-width:2;stroke-linecap:round;stroke-linejoin:round;" /><path d="M 673.9200000000001,207.35999999999984 L 660.96,207.35999999999984 L 648.0,207.35999999999984" style="stroke:white;fill:none;stroke-width:2;stroke-linecap:round;stroke-linejoin:round;" /><path d="M 648.0,207.35999999999984 L 635.0400000000001,207.35999999999984 L 622.08,207.35999999999984" style="stroke:white;fill:none;stroke-width:2;stroke-linecap:round;stroke-linejoin:round;" /><path d="M 622.08,207.35999999999984 L 609.12,207.35999999999984 L 596.1600000000001,207.35999999999984" style="stroke:white;fill:none;stroke-width:2;stroke-linecap:round;stroke-linejoin:round;" /><path d="M 596.1600000000001,207.35999999999984 L 583.2,207.35999999999984 L 570.24,207.35999999999984" style="stroke:white;fill:none;stroke-width:2;stroke-linecap:round;stroke-linejoin:round;" /><path d="M 570.24,207.35999999999984 L 557.2800000000001,207.35999999999984 L 544.32,207.35999999999984" style="stroke:white;fill:none;stroke-width:2;stroke-linecap:round;stroke-linejoin:round;" /><path d="M 544.32,207.35999999999984 L 531.36,207.35999999999984 L 518.4000000000001,207.35999999999984" style="stroke:white;fill:none;stroke-width:2;stroke-linecap:round;stroke-linejoin:round;" /><path d="M 518.4000000000001,207.35999999999984 L 505.44000000000005,207.35999999999984 L 492.48,207.35999999999984" style="stroke:white;fill:none;stroke-width:2;stroke-linecap:round;stroke-linejoin:round;" /><path d="M 492.48,207.35999999999984 L 479.52000000000004,207.35999999999984 L 466.56000000000006,207.35999999999984" style="stroke:white;fill:none;stroke-width:2;stroke-linecap:round;stroke-linejoin:round;" /><path d="M 466.56000000000006,207.35999999999984 L 453.6,207.35999999999984 L 440.64000000000004,207.35999999999984" style="stroke:white;fill:none;stroke-width:2;stroke-linecap:round;stroke-linejoin:round;" /><path d="M 440.64000000000004,207.35999999999984 L 427.68,207.35999999999984 L 414.72,207.35999999999984" style="stroke:white;fill:none;stroke-width:2;stroke-linecap:round;stroke-linejoin:round;" /><path d="M 414.72,207.35999999999984 L 401.76000000000005,207.35999999999984 L 388.8,207.35999999999984" style="stroke:white;fill:none;stroke-width:2;stroke-linecap:round;stroke-linejoin:round;" /><path d="M 388.8,207.35999999999984 L 375.84000000000003,207.35999999999984 L 362.88,207.35999999999984" style="stroke:white;fill:none;stroke-width:2;stroke-linecap:round;stroke-linejoin:round;" /><path d="M 362.88,207.35999999999984 L 349.92,207.35999999999984 L 336.96000000000004,207.35999999999984" style="stroke:white;fill:none;stroke-width:2;stroke-linecap:round;stroke-linejoin:round;" /><path d="M 336.96000000000004,207.35999999999984 L 324.0,207.35999999999984 L 311.04,207.35999999999984" style="stroke:white;fill:none;stroke-width:2;stroke-linecap:round;stroke-linejoin:round;" /><path d="M 311.04,207.35999999999984 L 298.08000000000004,207.35999999999984 L 285.12,207.35999999999984" style="stroke:white;fill:none;stroke-width:2;stroke-linecap:round;stroke-linejoin:round;" /><path d="M 285.12,207.35999999999984 L 272.16,207.35999999999984 L 259.20000000000005,207.35999999999984" style="stroke:white;fill:none;stroke-width:2;stroke-linecap:round;stroke-linejoin:round;" /><path d="M 259.20000000000005,207.35999999999984 L 246.24,207.35999999999984 L 233.28000000000003,207.35999999999984" style="stroke:white;fill:none;stroke-width:2;stroke-linecap:round;stroke-linejoin:round;" /><path d="M 233.28000000000003,207.35999999999984 L 220.32000000000002,207.35999999999984 L 207.36,207.35999999999984" style="stroke:white;fill:none;stroke-width:2;stroke-linecap:round;stroke-linejoin:round;" /><path d="M 207.36,207.35999999999984 L 194.4,207.35999999999984 L 181.44,207.35999999999984" style="stroke:white;fill:none;stroke-width:2;stroke-linecap:round;stroke-linejoin:round;" /><path d="M 181.44,207.35999999999984 L 168.48000000000002,207.35999999999984 L 155.52,207.35999999999984" style="stroke:white;fill:none;stroke-width:2;stroke-linecap:round;stroke-linejoin:round;" /><path d="M 155.52,207.35999999999984 L 142.56,207.35999999999984 L 129.60000000000002,207.35999999999984" style="stroke:white;fill:none;stroke-width:2;stroke-linecap:round;stroke-linejoin:round;" /><path d="M 129.60000000000002,207.35999999999984 L 116.64000000000001,207.35999999999984 L 103.68,207.35999999999984" style="stroke:white;fill:none;stroke-width:2;stroke-linecap:round;stroke-linejoin:round;" /><path d="M 103.68,207.35999999999984 L 90.72,207.35999999999984 L 77.76,207.35999999999984" style="stroke:white;fill:none;stroke-width:2;stroke-linecap:round;stroke-linejoin:round;" /><path d="M 77.76,207.35999999999984 L 64.80000000000001,207.35999999999984 L 51.84,207.35999999999984" style="stroke:white;fill:none;stroke-width:2;stroke-linecap:round;stroke-linejoin:round;" /><path d="M 51.84,207.35999999999984 L 38.88,207.35999999999984 L 25.92,207.35999999999984" style="stroke:white;fill:none;stroke-width:2;stroke-linecap:round;stroke-linejoin:round;" /><path d="M 25.92,207.35999999999984 L 12.96,207.35999999999984 L 0.0,207.35999999999984" style="stroke:white;fill:none;stroke-width:2;stroke-linecap:round;stroke-linejoin:round;" /><path d="M 0.0,207.35999999999984 L -2.3807133775424547e-15,220.31999999999982 L -4.761426755084909e-15,233.27999999999983" style="stroke:white;fill:none;stroke-width:2;stroke-linecap:round;stroke-linejoin:round;" /><path d="M -4.761426755084909e-15,233.27999999999983 L 12.959999999999997,233.27999999999983 L 25.919999999999995,233.27999999999983" style="stroke:white;fill:none;stroke-width:2;stroke-linecap:round;stroke-linejoin:round;" /><path d="M 25.919999999999995,233.27999999999983 L 38.879999999999995,233.27999999999983 L 51.839999999999996,233.27999999999983" style="stroke:white;fill:none;stroke-width:2;stroke-linecap:round;stroke-linejoin:round;" /><path d="M 51.839999999999996,233.27999999999983 L 64.80000000000001,233.27999999999983 L 77.76,233.27999999999983" style="stroke:white;fill:none;stroke-width:2;stroke-linecap:round;stroke-linejoin:round;" /><path d="M 77.76,233.27999999999983 L 90.72,233.27999999999983 L 103.68,233.27999999999983" style="stroke:white;fill:none;stroke-width:2;stroke-linecap:round;stroke-linejoin:round;" /><path d="M 103.68,233.27999999999983 L 116.64000000000001,233.27999999999983 L 129.60000000000002,233.27999999999983" style="stroke:white;fill:none;stroke-width:2;stroke-linecap:round;stroke-linejoin:round;" /><path d="M 129.60000000000002,233.27999999999983 L 142.56,233.27999999999983 L 155.52,233.27999999999983" style="stroke:white;fill:none;stroke-width:2;stroke-linecap:round;stroke-linejoin:round;" /><path d="M 155.52,233.27999999999983 L 168.48000000000002,233.27999999999983 L 181.44,233.27999999999983" style="stroke:white;fill:none;stroke-width:2;stroke-linecap:round;stroke-linejoin:round;" /><path d="M 181.44,233.27999999999983 L 194.4,233.27999999999983 L 207.36,233.27999999999983" style="stroke:white;fill:none;stroke-width:2;stroke-linecap:round;stroke-linejoin:round;" /><path d="M 207.36,233.27999999999983 L 220.32000000000002,233.27999999999983 L 233.28000000000003,233.27999999999983" style="stroke:white;fill:none;stroke-width:2;stroke-linecap:round;stroke-linejoin:round;" /><path d="M 233.28000000000003,233.27999999999983 L 246.24,233.27999999999983 L 259.20000000000005,233.27999999999983" style="stroke:white;fill:none;stroke-width:2;stroke-linecap:round;stroke-linejoin:round;" /><path d="M 259.20000000000005,233.27999999999983 L 272.16,233.27999999999983 L 285.12,233.27999999999983" style="stroke:white;fill:none;stroke-width:2;stroke-linecap:round;stroke-linejoin:round;" /><path d="M 285.12,233.27999999999983 L 298.08000000000004,233.27999999999983 L 311.04,233.27999999999983" style="stroke:white;fill:none;stroke-width:2;stroke-linecap:round;stroke-linejoin:round;" /><path d="M 311.04,233.27999999999983 L 324.0,233.27999999999983 L 336.96000000000004,233.27999999999983" style="stroke:white;fill:none;stroke-width:2;stroke-linecap:round;stroke-linejoin:round;" /><path d="M 336.96000000000004,233.27999999999983 L 349.92,233.27999999999983 L 362.88,233.27999999999983" style="stroke:white;fill:none;stroke-width:2;stroke-linecap:round;stroke-linejoin:round;" /><path d="M 362.88,233.27999999999983 L 375.84000000000003,233.27999999999983 L 388.8,233.27999999999983" style="stroke:white;fill:none;stroke-width:2;stroke-linecap:round;stroke-linejoin:round;" /><path d="M 388.8,233.27999999999983 L 401.76000000000005,233.27999999999983 L 414.72,233.27999999999983" style="stroke:white;fill:none;stroke-width:2;stroke-linecap:round;stroke-linejoin:round;" /><path d="M 414.72,233.27999999999983 L 427.68,233.27999999999983 L 440.64000000000004,233.27999999999983" style="stroke:white;fill:none;stroke-width:2;stroke-linecap:round;stroke-linejoin:round;" /><path d="M 440.64000000000004,233.27999999999983 L 453.6,233.27999999999983 L 466.56000000000006,233.27999999999983" style="stroke:white;fill:none;stroke-width:2;stroke-linecap:round;stroke-linejoin:round;" /><path d="M 466.56000000000006,233.27999999999983 L 479.52000000000004,233.27999999999983 L 492.48,233.27999999999983" style="stroke:white;fill:none;stroke-width:2;stroke-linecap:round;stroke-linejoin:round;" /><path d="M 492.48,233.27999999999983 L 505.44000000000005,233.27999999999983 L 518.4000000000001,233.27999999999983" style="stroke:white;fill:none;stroke-width:2;stroke-linecap:round;stroke-linejoin:round;" /><path d="M 518.4000000000001,233.27999999999983 L 531.36,233.27999999999983 L 544.32,233.27999999999983" style="stroke:white;fill:none;stroke-width:2;stroke-linecap:round;stroke-linejoin:round;" /><path d="M 544.32,233.27999999999983 L 557.2800000000001,233.27999999999983 L 570.24,233.27999999999983" style="stroke:white;fill:none;stroke-width:2;stroke-linecap:round;stroke-linejoin:round;" /><path d="M 570.24,233.27999999999983 L 583.2,233.27999999999983 L 596.1600000000001,233.27999999999983" style="stroke:white;fill:none;stroke-width:2;stroke-linecap:round;stroke-linejoin:round;" /><path d="M 596.1600000000001,233.27999999999983 L 609.12,233.27999999999983 L 622.08,233.27999999999983" style="stroke:white;fill:none;stroke-width:2;stroke-linecap:round;stroke-linejoin:round;" /><path d="M 622.08,233.27999999999983 L 635.0400000000001,233.27999999999983 L 648.0,233.27999999999983" style="stroke:white;fill:none;stroke-width:2;stroke-linecap:round;stroke-linejoin:round;" /><path d="M 648.0,233.27999999999983 L 660.96,233.27999999999983 L 673.9200000000001,233.27999999999983" style="stroke:white;fill:none;stroke-width:2;stroke-linecap:round;stroke-linejoin:round;" /><path d="M 673.9200000000001,233.27999999999983 L 686.88,233.27999999999983 L 699.84,233.27999999999983" style="stroke:white;fill:none;stroke-width:2;stroke-linecap:round;stroke-linejoin:round;" /><path d="M 699.84,233.27999999999983 L 712.8000000000001,233.27999999999983 L 725.76,233.27999999999983" style="stroke:white;fill:none;stroke-width:2;stroke-linecap:round;stroke-linejoin:round;" /><path d="M 725.76,233.27999999999983 L 738.72,233.27999999999983 L 751.6800000000001,233.27999999999983" style="stroke:white;fill:none;stroke-width:2;stroke-linecap:round;stroke-linejoin:round;" /><path d="M 751.6800000000001,233.27999999999983 L 751.6800000000001,246.23999999999984 L 751.6800000000001,259.1999999999998" style="stroke:white;fill:none;stroke-width:2;stroke-linecap:round;stroke-linejoin:round;" /><path d="M 751.6800000000001,259.1999999999998 L 738.72,259.1999999999998 L 725.76,259.1999999999998" style="stroke:white;fill:none;stroke-width:2;stroke-linecap:round;stroke-linejoin:round;" /><path d="M 725.76,259.1999999999998 L 712.8000000000001,259.1999999999998 L 699.84,259.1999999999998" style="stroke:white;fill:none;stroke-width:2;stroke-linecap:round;stroke-linejoin:round;" /><path d="M 699.84,259.1999999999998 L 686.88,259.1999999999998 L 673.9200000000001,259.1999999999998" style="stroke:white;fill:none;stroke-width:2;stroke-linecap:round;stroke-linejoin:round;" /><path d="M 673.9200000000001,259.1999999999998 L 660.96,259.1999999999998 L 648.0,259.1999999999998" style="stroke:white;fill:none;stroke-width:2;stroke-linecap:round;stroke-linejoin:round;" /><path d="M 648.0,259.1999999999998 L 635.0400000000001,259.1999999999998 L 622.08,259.1999999999998" style="stroke:white;fill:none;stroke-width:2;stroke-linecap:round;stroke-linejoin:round;" /><path d="M 622.08,259.1999999999998 L 609.12,259.1999999999998 L 596.1600000000001,259.1999999999998" style="stroke:white;fill:none;stroke-width:2;stroke-linecap:round;stroke-linejoin:round;" /><path d="M 596.1600000000001,259.1999999999998 L 583.2,259.1999999999998 L 570.24,259.1999999999998" style="stroke:white;fill:none;stroke-width:2;stroke-linecap:round;stroke-linejoin:round;" /><path d="M 570.24,259.1999999999998 L 557.2800000000001,259.1999999999998 L 544.32,259.1999999999998" style="stroke:white;fill:none;stroke-width:2;stroke-linecap:round;stroke-linejoin:round;" /><path d="M 544.32,259.1999999999998 L 531.36,259.1999999999998 L 518.4000000000001,259.1999999999998" style="stroke:white;fill:none;stroke-width:2;stroke-linecap:round;stroke-linejoin:round;" /><path d="M 518.4000000000001,259.1999999999998 L 505.44000000000005,259.1999999999998 L 492.48,259.1999999999998" style="stroke:white;fill:none;stroke-width:2;stroke-linecap:round;stroke-linejoin:round;" /><path d="M 492.48,259.1999999999998 L 479.52000000000004,259.1999999999998 L 466.56000000000006,259.1999999999998" style="stroke:white;fill:none;stroke-width:2;stroke-linecap:round;stroke-linejoin:round;" /><path d="M 466.56000000000006,259.1999999999998 L 453.6,259.1999999999998 L 440.64000000000004,259.1999999999998" style="stroke:white;fill:none;stroke-width:2;stroke-linecap:round;stroke-linejoin:round;" /><path d="M 440.64000000000004,259.1999999999998 L 427.68,259.1999999999998 L 414.72,259.1999999999998" style="stroke:white;fill:none;stroke-width:2;stroke-linecap:round;stroke-linejoin:round;" /><path d="M 414.72,259.1999999999998 L 401.76000000000005,259.1999999999998 L 388.8,259.1999999999998" style="stroke:white;fill:none;stroke-width:2;stroke-linecap:round;stroke-linejoin:round;" /><path d="M 388.8,259.1999999999998 L 375.84000000000003,259.1999999999998 L 362.88,259.1999999999998" style="stroke:white;fill:none;stroke-width:2;stroke-linecap:round;stroke-linejoin:round;" /><path d="M 362.88,259.1999999999998 L 349.92,259.1999999999998 L 336.96000000000004,259.1999999999998" style="stroke:white;fill:none;stroke-width:2;stroke-linecap:round;stroke-linejoin:round;" /><path d="M 336.96000000000004,259.1999999999998 L 324.0,259.1999999999998 L 311.04,259.1999999999998" style="stroke:white;fill:none;stroke-width:2;stroke-linecap:round;stroke-linejoin:round;" /><path d="M 311.04,259.1999999999998 L 298.08000000000004,259.1999999999998 L 285.12,259.1999999999998" style="stroke:white;fill:none;stroke-width:2;stroke-linecap:round;stroke-linejoin:round;" /><path d="M 285.12,259.1999999999998 L 272.16,259.1999999999998 L 259.20000000000005,259.1999999999998" style="stroke:white;fill:none;stroke-width:2;stroke-linecap:round;stroke-linejoin:round;" /><path d="M 259.20000000000005,259.1999999999998 L 246.24,259.1999999999998 L 233.28000000000003,259.1999999999998" style="stroke:white;fill:none;stroke-width:2;stroke-linecap:round;stroke-linejoin:round;" /><path d="M 233.28000000000003,259.1999999999998 L 220.32000000000002,259.1999999999998 L 207.36,259.1999999999998" style="stroke:white;fill:none;stroke-width:2;stroke-linecap:round;stroke-linejoin:round;" /><path d="M 207.36,259.1999999999998 L 194.4,259.1999999999998 L 181.44,259.1999999999998" style="stroke:white;fill:none;stroke-width:2;stroke-linecap:round;stroke-linejoin:round;" /><path d="M 181.44,259.1999999999998 L 168.48000000000002,259.1999999999998 L 155.52,259.1999999999998" style="stroke:white;fill:none;stroke-width:2;stroke-linecap:round;stroke-linejoin:round;" /><path d="M 155.52,259.1999999999998 L 142.56,259.1999999999998 L 129.60000000000002,259.1999999999998" style="stroke:white;fill:none;stroke-width:2;stroke-linecap:round;stroke-linejoin:round;" /><path d="M 129.60000000000002,259.1999999999998 L 116.64000000000001,259.1999999999998 L 103.68,259.1999999999998" style="stroke:white;fill:none;stroke-width:2;stroke-linecap:round;stroke-linejoin:round;" /><path d="M 103.68,259.1999999999998 L 90.72,259.1999999999998 L 77.76,259.1999999999998" style="stroke:white;fill:none;stroke-width:2;stroke-linecap:round;stroke-linejoin:round;" /><path d="M 77.76,259.1999999999998 L 64.80000000000001,259.1999999999998 L 51.84,259.1999999999998" style="stroke:white;fill:none;stroke-width:2;stroke-linecap:round;stroke-linejoin:round;" /><path d="M 51.84,259.1999999999998 L 38.88,259.1999999999998 L 25.92,259.1999999999998" style="stroke:white;fill:none;stroke-width:2;stroke-linecap:round;stroke-linejoin:round;" /><path d="M 25.92,259.1999999999998 L 12.96,259.1999999999998 L 0.0,259.1999999999998" style="stroke:white;fill:none;stroke-width:2;stroke-linecap:round;stroke-linejoin:round;" /><path d="M 0.0,259.1999999999998 L -2.3807133775424547e-15,272.15999999999985 L -4.761426755084909e-15,285.11999999999983" style="stroke:white;fill:none;stroke-width:2;stroke-linecap:round;stroke-linejoin:round;" /><path d="M -4.761426755084909e-15,285.11999999999983 L 12.959999999999997,285.11999999999983 L 25.919999999999995,285.11999999999983" style="stroke:white;fill:none;stroke-width:2;stroke-linecap:round;stroke-linejoin:round;" /><path d="M 25.919999999999995,285.11999999999983 L 38.879999999999995,285.11999999999983 L 51.839999999999996,285.11999999999983" style="stroke:white;fill:none;stroke-width:2;stroke-linecap:round;stroke-linejoin:round;" /><path d="M 51.839999999999996,285.11999999999983 L 64.80000000000001,285.11999999999983 L 77.76,285.11999999999983" style="stroke:white;fill:none;stroke-width:2;stroke-linecap:round;stroke-linejoin:round;" /><path d="M 77.76,285.11999999999983 L 90.72,285.11999999999983 L 103.68,285.11999999999983" style="stroke:white;fill:none;stroke-width:2;stroke-linecap:round;stroke-linejoin:round;" /><path d="M 103.68,285.11999999999983 L 116.64000000000001,285.11999999999983 L 129.60000000000002,285.11999999999983" style="stroke:white;fill:none;stroke-width:2;stroke-linecap:round;stroke-linejoin:round;" /><path d="M 129.60000000000002,285.11999999999983 L 142.56,285.11999999999983 L 155.52,285.11999999999983" style="stroke:white;fill:none;stroke-width:2;stroke-linecap:round;stroke-linejoin:round;" /><path d="M 155.52,285.11999999999983 L 168.48000000000002,285.11999999999983 L 181.44,285.11999999999983" style="stroke:white;fill:none;stroke-width:2;stroke-linecap:round;stroke-linejoin:round;" /><path d="M 181.44,285.11999999999983 L 194.4,285.11999999999983 L 207.36,285.11999999999983" style="stroke:white;fill:none;stroke-width:2;stroke-linecap:round;stroke-linejoin:round;" /><path d="M 207.36,285.11999999999983 L 220.32000000000002,285.11999999999983 L 233.28000000000003,285.11999999999983" style="stroke:white;fill:none;stroke-width:2;stroke-linecap:round;stroke-linejoin:round;" /><path d="M 233.28000000000003,285.11999999999983 L 246.24,285.11999999999983 L 259.20000000000005,285.11999999999983" style="stroke:white;fill:none;stroke-width:2;stroke-linecap:round;stroke-linejoin:round;" /><path d="M 259.20000000000005,285.11999999999983 L 272.16,285.11999999999983 L 285.12,285.11999999999983" style="stroke:white;fill:none;stroke-width:2;stroke-linecap:round;stroke-linejoin:round;" /><path d="M 285.12,285.11999999999983 L 298.08000000000004,285.11999999999983 L 311.04,285.11999999999983" style="stroke:white;fill:none;stroke-width:2;stroke-linecap:round;stroke-linejoin:round;" /><path d="M 311.04,285.11999999999983 L 324.0,285.11999999999983 L 336.96000000000004,285.11999999999983" style="stroke:white;fill:none;stroke-width:2;stroke-linecap:round;stroke-linejoin:round;" /><path d="M 336.96000000000004,285.11999999999983 L 349.92,285.11999999999983 L 362.88,285.11999999999983" style="stroke:white;fill:none;stroke-width:2;stroke-linecap:round;stroke-linejoin:round;" /><path d="M 362.88,285.11999999999983 L 375.84000000000003,285.11999999999983 L 388.8,285.11999999999983" style="stroke:white;fill:none;stroke-width:2;stroke-linecap:round;stroke-linejoin:round;" /><path d="M 388.8,285.11999999999983 L 401.76000000000005,285.11999999999983 L 414.72,285.11999999999983" style="stroke:white;fill:none;stroke-width:2;stroke-linecap:round;stroke-linejoin:round;" /><path d="M 414.72,285.11999999999983 L 427.68,285.11999999999983 L 440.64000000000004,285.11999999999983" style="stroke:white;fill:none;stroke-width:2;stroke-linecap:round;stroke-linejoin:round;" /><path d="M 440.64000000000004,285.11999999999983 L 453.6,285.11999999999983 L 466.56000000000006,285.11999999999983" style="stroke:white;fill:none;stroke-width:2;stroke-linecap:round;stroke-linejoin:round;" /><path d="M 466.56000000000006,285.11999999999983 L 479.52000000000004,285.11999999999983 L 492.48,285.11999999999983" style="stroke:white;fill:none;stroke-width:2;stroke-linecap:round;stroke-linejoin:round;" /><path d="M 492.48,285.11999999999983 L 505.44000000000005,285.11999999999983 L 518.4000000000001,285.11999999999983" style="stroke:white;fill:none;stroke-width:2;stroke-linecap:round;stroke-linejoin:round;" /><path d="M 518.4000000000001,285.11999999999983 L 531.36,285.11999999999983 L 544.32,285.11999999999983" style="stroke:white;fill:none;stroke-width:2;stroke-linecap:round;stroke-linejoin:round;" /><path d="M 544.32,285.11999999999983 L 557.2800000000001,285.11999999999983 L 570.24,285.11999999999983" style="stroke:white;fill:none;stroke-width:2;stroke-linecap:round;stroke-linejoin:round;" /><path d="M 570.24,285.11999999999983 L 583.2,285.11999999999983 L 596.1600000000001,285.11999999999983" style="stroke:white;fill:none;stroke-width:2;stroke-linecap:round;stroke-linejoin:round;" /><path d="M 596.1600000000001,285.11999999999983 L 609.12,285.11999999999983 L 622.08,285.11999999999983" style="stroke:white;fill:none;stroke-width:2;stroke-linecap:round;stroke-linejoin:round;" /><path d="M 622.08,285.11999999999983 L 635.0400000000001,285.11999999999983 L 648.0,285.11999999999983" style="stroke:white;fill:none;stroke-width:2;stroke-linecap:round;stroke-linejoin:round;" /><path d="M 648.0,285.11999999999983 L 660.96,285.11999999999983 L 673.9200000000001,285.11999999999983" style="stroke:white;fill:none;stroke-width:2;stroke-linecap:round;stroke-linejoin:round;" /><path d="M 673.9200000000001,285.11999999999983 L 686.88,285.11999999999983 L 699.84,285.11999999999983" style="stroke:white;fill:none;stroke-width:2;stroke-linecap:round;stroke-linejoin:round;" /><path d="M 699.84,285.11999999999983 L 712.8000000000001,285.11999999999983 L 725.76,285.11999999999983" style="stroke:white;fill:none;stroke-width:2;stroke-linecap:round;stroke-linejoin:round;" /><path d="M 725.76,285.11999999999983 L 738.72,285.11999999999983 L 751.6800000000001,285.11999999999983" style="stroke:white;fill:none;stroke-width:2;stroke-linecap:round;stroke-linejoin:round;" /><path d="M 751.6800000000001,285.11999999999983 L 751.6800000000001,298.0799999999998 L 751.6800000000001,311.03999999999985" style="stroke:white;fill:none;stroke-width:2;stroke-linecap:round;stroke-linejoin:round;" /><path d="M 751.6800000000001,311.03999999999985 L 738.72,311.03999999999985 L 725.76,311.03999999999985" style="stroke:white;fill:none;stroke-width:2;stroke-linecap:round;stroke-linejoin:round;" /><path d="M 725.76,311.03999999999985 L 712.8000000000001,311.03999999999985 L 699.84,311.03999999999985" style="stroke:white;fill:none;stroke-width:2;stroke-linecap:round;stroke-linejoin:round;" /><path d="M 699.84,311.03999999999985 L 686.88,311.03999999999985 L 673.9200000000001,311.03999999999985" style="stroke:white;fill:none;stroke-width:2;stroke-linecap:round;stroke-linejoin:round;" /><path d="M 673.9200000000001,311.03999999999985 L 660.96,311.03999999999985 L 648.0,311.03999999999985" style="stroke:white;fill:none;stroke-width:2;stroke-linecap:round;stroke-linejoin:round;" /><path d="M 648.0,311.03999999999985 L 635.0400000000001,311.03999999999985 L 622.08,311.03999999999985" style="stroke:white;fill:none;stroke-width:2;stroke-linecap:round;stroke-linejoin:round;" /><path d="M 622.08,311.03999999999985 L 609.12,311.03999999999985 L 596.1600000000001,311.03999999999985" style="stroke:white;fill:none;stroke-width:2;stroke-linecap:round;stroke-linejoin:round;" /><path d="M 596.1600000000001,311.03999999999985 L 583.2,311.03999999999985 L 570.24,311.03999999999985" style="stroke:white;fill:none;stroke-width:2;stroke-linecap:round;stroke-linejoin:round;" /><path d="M 570.24,311.03999999999985 L 557.2800000000001,311.03999999999985 L 544.32,311.03999999999985" style="stroke:white;fill:none;stroke-width:2;stroke-linecap:round;stroke-linejoin:round;" /><path d="M 544.32,311.03999999999985 L 531.36,311.03999999999985 L 518.4000000000001,311.03999999999985" style="stroke:white;fill:none;stroke-width:2;stroke-linecap:round;stroke-linejoin:round;" /><path d="M 518.4000000000001,311.03999999999985 L 505.44000000000005,311.03999999999985 L 492.48,311.03999999999985" style="stroke:white;fill:none;stroke-width:2;stroke-linecap:round;stroke-linejoin:round;" /><path d="M 492.48,311.03999999999985 L 479.52000000000004,311.03999999999985 L 466.56000000000006,311.03999999999985" style="stroke:white;fill:none;stroke-width:2;stroke-linecap:round;stroke-linejoin:round;" /><path d="M 466.56000000000006,311.03999999999985 L 453.6,311.03999999999985 L 440.64000000000004,311.03999999999985" style="stroke:white;fill:none;stroke-width:2;stroke-linecap:round;stroke-linejoin:round;" /><path d="M 440.64000000000004,311.03999999999985 L 427.68,311.03999999999985 L 414.72,311.03999999999985" style="stroke:white;fill:none;stroke-width:2;stroke-linecap:round;stroke-linejoin:round;" /><path d="M 414.72,311.03999999999985 L 401.76000000000005,311.03999999999985 L 388.8,311.03999999999985" style="stroke:white;fill:none;stroke-width:2;stroke-linecap:round;stroke-linejoin:round;" /><path d="M 388.8,311.03999999999985 L 375.84000000000003,311.03999999999985 L 362.88,311.03999999999985" style="stroke:white;fill:none;stroke-width:2;stroke-linecap:round;stroke-linejoin:round;" /><path d="M 362.88,311.03999999999985 L 349.92,311.03999999999985 L 336.96000000000004,311.03999999999985" style="stroke:white;fill:none;stroke-width:2;stroke-linecap:round;stroke-linejoin:round;" /><path d="M 336.96000000000004,311.03999999999985 L 324.0,311.03999999999985 L 311.04,311.03999999999985" style="stroke:white;fill:none;stroke-width:2;stroke-linecap:round;stroke-linejoin:round;" /><path d="M 311.04,311.03999999999985 L 298.08000000000004,311.03999999999985 L 285.12,311.03999999999985" style="stroke:white;fill:none;stroke-width:2;stroke-linecap:round;stroke-linejoin:round;" /><path d="M 285.12,311.03999999999985 L 272.16,311.03999999999985 L 259.20000000000005,311.03999999999985" style="stroke:white;fill:none;stroke-width:2;stroke-linecap:round;stroke-linejoin:round;" /><path d="M 259.20000000000005,311.03999999999985 L 246.24,311.03999999999985 L 233.28000000000003,311.03999999999985" style="stroke:white;fill:none;stroke-width:2;stroke-linecap:round;stroke-linejoin:round;" /><path d="M 233.28000000000003,311.03999999999985 L 220.32000000000002,311.03999999999985 L 207.36,311.03999999999985" style="stroke:white;fill:none;stroke-width:2;stroke-linecap:round;stroke-linejoin:round;" /><path d="M 207.36,311.03999999999985 L 194.4,311.03999999999985 L 181.44,311.03999999999985" style="stroke:white;fill:none;stroke-width:2;stroke-linecap:round;stroke-linejoin:round;" /><path d="M 181.44,311.03999999999985 L 168.48000000000002,311.03999999999985 L 155.52,311.03999999999985" style="stroke:white;fill:none;stroke-width:2;stroke-linecap:round;stroke-linejoin:round;" /><path d="M 155.52,311.03999999999985 L 142.56,311.03999999999985 L 129.60000000000002,311.03999999999985" style="stroke:white;fill:none;stroke-width:2;stroke-linecap:round;stroke-linejoin:round;" /><path d="M 129.60000000000002,311.03999999999985 L 116.64000000000001,311.03999999999985 L 103.68,311.03999999999985" style="stroke:white;fill:none;stroke-width:2;stroke-linecap:round;stroke-linejoin:round;" /><path d="M 103.68,311.03999999999985 L 90.72,311.03999999999985 L 77.76,311.03999999999985" style="stroke:white;fill:none;stroke-width:2;stroke-linecap:round;stroke-linejoin:round;" /><path d="M 77.76,311.03999999999985 L 64.80000000000001,311.03999999999985 L 51.84,311.03999999999985" style="stroke:white;fill:none;stroke-width:2;stroke-linecap:round;stroke-linejoin:round;" /><path d="M 51.84,311.03999999999985 L 38.88,311.03999999999985 L 25.92,311.03999999999985" style="stroke:white;fill:none;stroke-width:2;stroke-linecap:round;stroke-linejoin:round;" /><path d="M 25.92,311.03999999999985 L 12.96,311.03999999999985 L 0.0,311.03999999999985" style="stroke:white;fill:none;stroke-width:2;stroke-linecap:round;stroke-linejoin:round;" /><path d="M 0.0,311.03999999999985 L -2.3807133775424547e-15,323.99999999999983 L -4.761426755084909e-15,336.95999999999987" style="stroke:white;fill:none;stroke-width:2;stroke-linecap:round;stroke-linejoin:round;" /><path d="M -4.761426755084909e-15,336.95999999999987 L 12.959999999999997,336.95999999999987 L 25.919999999999995,336.95999999999987" style="stroke:white;fill:none;stroke-width:2;stroke-linecap:round;stroke-linejoin:round;" /><path d="M 25.919999999999995,336.95999999999987 L 38.879999999999995,336.95999999999987 L 51.839999999999996,336.95999999999987" style="stroke:white;fill:none;stroke-width:2;stroke-linecap:round;stroke-linejoin:round;" /><path d="M 51.839999999999996,336.95999999999987 L 64.80000000000001,336.95999999999987 L 77.76,336.95999999999987" style="stroke:white;fill:none;stroke-width:2;stroke-linecap:round;stroke-linejoin:round;" /><path d="M 77.76,336.95999999999987 L 90.72,336.95999999999987 L 103.68,336.95999999999987" style="stroke:white;fill:none;stroke-width:2;stroke-linecap:round;stroke-linejoin:round;" /><path d="M 103.68,336.95999999999987 L 116.64000000000001,336.95999999999987 L 129.60000000000002,336.95999999999987" style="stroke:white;fill:none;stroke-width:2;stroke-linecap:round;stroke-linejoin:round;" /><path d="M 129.60000000000002,336.95999999999987 L 142.56,336.95999999999987 L 155.52,336.95999999999987" style="stroke:white;fill:none;stroke-width:2;stroke-linecap:round;stroke-linejoin:round;" /><path d="M 155.52,336.95999999999987 L 168.48000000000002,336.95999999999987 L 181.44,336.95999999999987" style="stroke:white;fill:none;stroke-width:2;stroke-linecap:round;stroke-linejoin:round;" /><path d="M 181.44,336.95999999999987 L 194.4,336.95999999999987 L 207.36,336.95999999999987" style="stroke:white;fill:none;stroke-width:2;stroke-linecap:round;stroke-linejoin:round;" /><path d="M 207.36,336.95999999999987 L 220.32000000000002,336.95999999999987 L 233.28000000000003,336.95999999999987" style="stroke:white;fill:none;stroke-width:2;stroke-linecap:round;stroke-linejoin:round;" /><path d="M 233.28000000000003,336.95999999999987 L 246.24,336.95999999999987 L 259.20000000000005,336.95999999999987" style="stroke:white;fill:none;stroke-width:2;stroke-linecap:round;stroke-linejoin:round;" /><path d="M 259.20000000000005,336.95999999999987 L 272.16,336.95999999999987 L 285.12,336.95999999999987" style="stroke:white;fill:none;stroke-width:2;stroke-linecap:round;stroke-linejoin:round;" /><path d="M 285.12,336.95999999999987 L 298.08000000000004,336.95999999999987 L 311.04,336.95999999999987" style="stroke:white;fill:none;stroke-width:2;stroke-linecap:round;stroke-linejoin:round;" /><path d="M 311.04,336.95999999999987 L 324.0,336.95999999999987 L 336.96000000000004,336.95999999999987" style="stroke:white;fill:none;stroke-width:2;stroke-linecap:round;stroke-linejoin:round;" /><path d="M 336.96000000000004,336.95999999999987 L 349.92,336.95999999999987 L 362.88,336.95999999999987" style="stroke:white;fill:none;stroke-width:2;stroke-linecap:round;stroke-linejoin:round;" /><path d="M 362.88,336.95999999999987 L 375.84000000000003,336.95999999999987 L 388.8,336.95999999999987" style="stroke:white;fill:none;stroke-width:2;stroke-linecap:round;stroke-linejoin:round;" /><path d="M 388.8,336.95999999999987 L 401.76000000000005,336.95999999999987 L 414.72,336.95999999999987" style="stroke:white;fill:none;stroke-width:2;stroke-linecap:round;stroke-linejoin:round;" /><path d="M 414.72,336.95999999999987 L 427.68,336.95999999999987 L 440.64000000000004,336.95999999999987" style="stroke:white;fill:none;stroke-width:2;stroke-linecap:round;stroke-linejoin:round;" /><path d="M 440.64000000000004,336.95999999999987 L 453.6,336.95999999999987 L 466.56000000000006,336.95999999999987" style="stroke:white;fill:none;stroke-width:2;stroke-linecap:round;stroke-linejoin:round;" /><path d="M 466.56000000000006,336.95999999999987 L 479.52000000000004,336.95999999999987 L 492.48,336.95999999999987" style="stroke:white;fill:none;stroke-width:2;stroke-linecap:round;stroke-linejoin:round;" /><path d="M 492.48,336.95999999999987 L 505.44000000000005,336.95999999999987 L 518.4000000000001,336.95999999999987" style="stroke:white;fill:none;stroke-width:2;stroke-linecap:round;stroke-linejoin:round;" /><path d="M 518.4000000000001,336.95999999999987 L 531.36,336.95999999999987 L 544.32,336.95999999999987" style="stroke:white;fill:none;stroke-width:2;stroke-linecap:round;stroke-linejoin:round;" /><path d="M 544.32,336.95999999999987 L 557.2800000000001,336.95999999999987 L 570.24,336.95999999999987" style="stroke:white;fill:none;stroke-width:2;stroke-linecap:round;stroke-linejoin:round;" /><path d="M 570.24,336.95999999999987 L 583.2,336.95999999999987 L 596.1600000000001,336.95999999999987" style="stroke:white;fill:none;stroke-width:2;stroke-linecap:round;stroke-linejoin:round;" /><path d="M 596.1600000000001,336.95999999999987 L 609.12,336.95999999999987 L 622.08,336.95999999999987" style="stroke:white;fill:none;stroke-width:2;stroke-linecap:round;stroke-linejoin:round;" /><path d="M 622.08,336.95999999999987 L 635.0400000000001,336.95999999999987 L 648.0,336.95999999999987" style="stroke:white;fill:none;stroke-width:2;stroke-linecap:round;stroke-linejoin:round;" /><path d="M 648.0,336.95999999999987 L 660.96,336.95999999999987 L 673.9200000000001,336.95999999999987" style="stroke:white;fill:none;stroke-width:2;stroke-linecap:round;stroke-linejoin:round;" /><path d="M 673.9200000000001,336.95999999999987 L 686.88,336.95999999999987 L 699.84,336.95999999999987" style="stroke:white;fill:none;stroke-width:2;stroke-linecap:round;stroke-linejoin:round;" /><path d="M 699.84,336.95999999999987 L 712.8000000000001,336.95999999999987 L 725.76,336.95999999999987" style="stroke:white;fill:none;stroke-width:2;stroke-linecap:round;stroke-linejoin:round;" /><path d="M 725.76,336.95999999999987 L 738.72,336.95999999999987 L 751.6800000000001,336.95999999999987" style="stroke:white;fill:none;stroke-width:2;stroke-linecap:round;stroke-linejoin:round;" /><path d="M 751.6800000000001,336.95999999999987 L 751.6800000000001,349.91999999999985 L 751.6800000000001,362.8799999999998" style="stroke:white;fill:none;stroke-width:2;stroke-linecap:round;stroke-linejoin:round;" /><path d="M 751.6800000000001,362.8799999999998 L 738.72,362.8799999999998 L 725.76,362.8799999999998" style="stroke:white;fill:none;stroke-width:2;stroke-linecap:round;stroke-linejoin:round;" /><path d="M 725.76,362.8799999999998 L 712.8000000000001,362.8799999999998 L 699.84,362.8799999999998" style="stroke:white;fill:none;stroke-width:2;stroke-linecap:round;stroke-linejoin:round;" /><path d="M 699.84,362.8799999999998 L 686.88,362.8799999999998 L 673.9200000000001,362.8799999999998" style="stroke:white;fill:none;stroke-width:2;stroke-linecap:round;stroke-linejoin:round;" /><path d="M 673.9200000000001,362.8799999999998 L 660.96,362.8799999999998 L 648.0,362.8799999999998" style="stroke:white;fill:none;stroke-width:2;stroke-linecap:round;stroke-linejoin:round;" /><path d="M 648.0,362.8799999999998 L 635.0400000000001,362.8799999999998 L 622.08,362.8799999999998" style="stroke:white;fill:none;stroke-width:2;stroke-linecap:round;stroke-linejoin:round;" /><path d="M 622.08,362.8799999999998 L 609.12,362.8799999999998 L 596.1600000000001,362.8799999999998" style="stroke:white;fill:none;stroke-width:2;stroke-linecap:round;stroke-linejoin:round;" /><path d="M 596.1600000000001,362.8799999999998 L 583.2,362.8799999999998 L 570.24,362.8799999999998" style="stroke:white;fill:none;stroke-width:2;stroke-linecap:round;stroke-linejoin:round;" /><path d="M 570.24,362.8799999999998 L 557.2800000000001,362.8799999999998 L 544.32,362.8799999999998" style="stroke:white;fill:none;stroke-width:2;stroke-linecap:round;stroke-linejoin:round;" /><path d="M 544.32,362.8799999999998 L 531.36,362.8799999999998 L 518.4000000000001,362.8799999999998" style="stroke:white;fill:none;stroke-width:2;stroke-linecap:round;stroke-linejoin:round;" /><path d="M 518.4000000000001,362.8799999999998 L 505.44000000000005,362.8799999999998 L 492.48,362.8799999999998" style="stroke:white;fill:none;stroke-width:2;stroke-linecap:round;stroke-linejoin:round;" /><path d="M 492.48,362.8799999999998 L 479.52000000000004,362.8799999999998 L 466.56000000000006,362.8799999999998" style="stroke:white;fill:none;stroke-width:2;stroke-linecap:round;stroke-linejoin:round;" /><path d="M 466.56000000000006,362.8799999999998 L 453.6,362.8799999999998 L 440.64000000000004,362.8799999999998" style="stroke:white;fill:none;stroke-width:2;stroke-linecap:round;stroke-linejoin:round;" /><path d="M 440.64000000000004,362.8799999999998 L 427.68,362.8799999999998 L 414.72,362.8799999999998" style="stroke:white;fill:none;stroke-width:2;stroke-linecap:round;stroke-linejoin:round;" /><path d="M 414.72,362.8799999999998 L 401.76000000000005,362.8799999999998 L 388.8,362.8799999999998" style="stroke:white;fill:none;stroke-width:2;stroke-linecap:round;stroke-linejoin:round;" /><path d="M 388.8,362.8799999999998 L 375.84000000000003,362.8799999999998 L 362.88,362.8799999999998" style="stroke:white;fill:none;stroke-width:2;stroke-linecap:round;stroke-linejoin:round;" /><path d="M 362.88,362.8799999999998 L 349.92,362.8799999999998 L 336.96000000000004,362.8799999999998" style="stroke:white;fill:none;stroke-width:2;stroke-linecap:round;stroke-linejoin:round;" /><path d="M 336.96000000000004,362.8799999999998 L 324.0,362.8799999999998 L 311.04,362.8799999999998" style="stroke:white;fill:none;stroke-width:2;stroke-linecap:round;stroke-linejoin:round;" /><path d="M 311.04,362.8799999999998 L 298.08000000000004,362.8799999999998 L 285.12,362.8799999999998" style="stroke:white;fill:none;stroke-width:2;stroke-linecap:round;stroke-linejoin:round;" /><path d="M 285.12,362.8799999999998 L 272.16,362.8799999999998 L 259.20000000000005,362.8799999999998" style="stroke:white;fill:none;stroke-width:2;stroke-linecap:round;stroke-linejoin:round;" /><path d="M 259.20000000000005,362.8799999999998 L 246.24,362.8799999999998 L 233.28000000000003,362.8799999999998" style="stroke:white;fill:none;stroke-width:2;stroke-linecap:round;stroke-linejoin:round;" /><path d="M 233.28000000000003,362.8799999999998 L 220.32000000000002,362.8799999999998 L 207.36,362.8799999999998" style="stroke:white;fill:none;stroke-width:2;stroke-linecap:round;stroke-linejoin:round;" /><path d="M 207.36,362.8799999999998 L 194.4,362.8799999999998 L 181.44,362.8799999999998" style="stroke:white;fill:none;stroke-width:2;stroke-linecap:round;stroke-linejoin:round;" /><path d="M 181.44,362.8799999999998 L 168.48000000000002,362.8799999999998 L 155.52,362.8799999999998" style="stroke:white;fill:none;stroke-width:2;stroke-linecap:round;stroke-linejoin:round;" /><path d="M 155.52,362.8799999999998 L 142.56,362.8799999999998 L 129.60000000000002,362.8799999999998" style="stroke:white;fill:none;stroke-width:2;stroke-linecap:round;stroke-linejoin:round;" /><path d="M 129.60000000000002,362.8799999999998 L 116.64000000000001,362.8799999999998 L 103.68,362.8799999999998" style="stroke:white;fill:none;stroke-width:2;stroke-linecap:round;stroke-linejoin:round;" /><path d="M 103.68,362.8799999999998 L 90.72,362.8799999999998 L 77.76,362.8799999999998" style="stroke:white;fill:none;stroke-width:2;stroke-linecap:round;stroke-linejoin:round;" /><path d="M 77.76,362.8799999999998 L 64.80000000000001,362.8799999999998 L 51.84,362.8799999999998" style="stroke:white;fill:none;stroke-width:2;stroke-linecap:round;stroke-linejoin:round;" /><path d="M 51.84,362.8799999999998 L 38.88,362.8799999999998 L 25.92,362.8799999999998" style="stroke:white;fill:none;stroke-width:2;stroke-linecap:round;stroke-linejoin:round;" /><path d="M 25.92,362.8799999999998 L 12.96,362.8799999999998 L 0.0,362.8799999999998" style="stroke:white;fill:none;stroke-width:2;stroke-linecap:round;stroke-linejoin:round;" /><path d="M 0.0,362.8799999999998 L -2.3807133775424547e-15,375.83999999999986 L -4.761426755084909e-15,388.79999999999984" style="stroke:white;fill:none;stroke-width:2;stroke-linecap:round;stroke-linejoin:round;" /><path d="M 103.68,51.83999999999986 L 103.68,64.79999999999986 L 103.68,77.75999999999985" style="stroke:black;fill:none;stroke-width:2;stroke-linecap:round;stroke-linejoin:round;" /><path d="M 77.76,51.839999999999854 L 90.72,51.839999999999854 L 103.68,51.83999999999986" style="stroke:white;fill:none;stroke-width:2;stroke-linecap:round;stroke-linejoin:round;" /><path d="M 103.68,51.83999999999986 L 103.68,41.47199999999985" style="stroke:black;fill:none;stroke-width:2;stroke-linecap:round;stroke-linejoin:round;" /><path d="M 103.68,41.47199999999985 L 98.82000000000001,41.47199999999985" style="stroke:black;fill:none;stroke-width:2;stroke-linecap:round;stroke-linejoin:round;" /><path d="M 103.68,41.47199999999985 L 108.54,41.47199999999985" style="stroke:black;fill:none;stroke-width:2;stroke-linecap:round;stroke-linejoin:round;" /><path d="M 181.44,77.75999999999985 L 233.28000000000003,77.75999999999985 L 285.12,77.75999999999985" style="stroke:black;fill:none;stroke-width:2;stroke-linecap:round;stroke-linejoin:round;" /><path d="M 311.04,77.75999999999985 L 349.92,77.75999999999985 L 388.8,77.75999999999985" style="stroke:black;fill:none;stroke-width:2;stroke-linecap:round;stroke-linejoin:round;" /><path d="M 303.17760000000004,161.95679999999987 L 303.17760000000004,171.46079999999986" style="stroke:black;fill:none;stroke-width:2;stroke-linecap:round;stroke-linejoin:round;" /><path d="M 293.6736,171.46079999999986 L 312.6816,171.46079999999986" style="stroke:black;fill:none;stroke-width:2;stroke-linecap:round;stroke-linejoin:round;" /><path d="M 298.42560000000003,171.46079999999986 L 289.872,181.43999999999986 L 285.12,181.43999999999986" style="stroke:black;fill:none;stroke-width:2;stroke-linecap:round;stroke-linejoin:round;" /><path d="M 307.92960000000005,171.46079999999986 L 316.48320000000007,181.43999999999986 L 321.2352,181.43999999999986" style="stroke:black;fill:none;stroke-width:2;stroke-linecap:round;stroke-linejoin:round;" /><path d="M 303.17760000000004,161.95679999999987 L 320.06880000000007,171.69839999999985 L 336.96000000000004,181.43999999999986" style="stroke:black;fill:none;stroke-width:2;stroke-linecap:round;stroke-linejoin:round;" /><path d="M 321.2352,181.43999999999986 L 316.13759999999996,181.43999999999986 L 311.04,181.43999999999986" style="stroke:black;fill:none;stroke-width:2;stroke-linecap:round;stroke-linejoin:round;" /><path d="M 388.8,129.59999999999985 L 388.8,168.47999999999985 L 388.8,207.35999999999984" style="stroke:black;fill:none;stroke-width:2;stroke-linecap:round;stroke-linejoin:round;" /><path d="M 103.68,181.43999999999986" style="stroke:black;fill:none;stroke-width:2;stroke-linecap:round;stroke-linejoin:round;" /><path d="M 88.12799999999999,181.43999999999986 L 82.944,181.43999999999986 L 77.76,181.43999999999986" style="stroke:black;fill:none;stroke-width:2;stroke-linecap:round;stroke-linejoin:round;" /><path d="M 119.232,181.43999999999986 L 124.416,181.43999999999986 L 129.60000000000002,181.43999999999986" style="stroke:black;fill:none;stroke-width:2;stroke-linecap:round;stroke-linejoin:round;" /><path d="M 134.784,181.43999999999986 L 145.152,181.43999999999986 L 155.52,181.43999999999986" style="stroke:black;fill:none;stroke-width:2;stroke-linecap:round;stroke-linejoin:round;" /><path d="M 134.784,196.99199999999985 L 158.112,202.17599999999985 L 181.44,207.35999999999984" style="stroke:black;fill:none;stroke-width:2;stroke-linecap:round;stroke-linejoin:round;" /><path d="M 119.232,196.99199999999985 L 137.376,202.17599999999985 L 155.52,207.35999999999984" style="stroke:black;fill:none;stroke-width:2;stroke-linecap:round;stroke-linejoin:round;" /><path d="M 103.68,196.99199999999985 L 116.64000000000001,202.17599999999985 L 129.60000000000002,207.35999999999984" style="stroke:black;fill:none;stroke-width:2;stroke-linecap:round;stroke-linejoin:round;" /><path d="M 88.12799999999999,196.99199999999985 L 95.904,202.17599999999985 L 103.68,207.35999999999984" style="stroke:black;fill:none;stroke-width:2;stroke-linecap:round;stroke-linejoin:round;" /><path d="M 103.68,77.75999999999985 L 103.68,129.59999999999985 L 103.68,181.43999999999986" style="stroke:black;fill:none;stroke-width:2;stroke-linecap:round;stroke-linejoin:round;" /><path d="M 181.44,77.75999999999985 L 181.44,129.59999999999985 L 181.44,181.43999999999986" style="stroke:black;fill:none;stroke-width:2;stroke-linecap:round;stroke-linejoin:round;" /><path d="M 285.12,77.75999999999985 L 285.12,129.59999999999985 L 285.12,181.43999999999986" style="stroke:black;fill:none;stroke-width:2;stroke-linecap:round;stroke-linejoin:round;" /><path d="M 311.04,77.75999999999985 L 311.04,129.59999999999985 L 311.04,181.43999999999986" style="stroke:black;fill:none;stroke-width:2;stroke-linecap:round;stroke-linejoin:round;" /><path d="M 388.8,77.75999999999985 L 388.8,103.67999999999985 L 388.8,129.59999999999985" style="stroke:black;fill:none;stroke-width:2;stroke-linecap:round;stroke-linejoin:round;" /><path d="M 388.8,207.35999999999984 L 388.8,259.1999999999998 L 388.8,311.03999999999985" style="stroke:black;fill:none;stroke-width:2;stroke-linecap:round;stroke-linejoin:round;" /><text x="88.12799999999999" y="198.86399999999986" fill="black" font-size="9" font-family="sans-serif" text-anchor="end" transform="rotate(0 88.12799999999999 206.06399999999985)"><tspan x="88.12799999999999" dy="7.2">1</tspan></text><text x="88.12799999999999" y="165.16799999999984" fill="black" font-size="9" font-family="sans-serif" text-anchor="start" transform="rotate(0 88.12799999999999 172.36799999999982)"><tspan x="88.12799999999999" dy="7.2">8</tspan></text><text x="103.68" y="198.86399999999986" fill="black" font-size="9" font-family="sans-serif" text-anchor="end" transform="rotate(0 103.68 206.06399999999985)"><tspan x="103.68" dy="7.2">2</tspan></text><text x="103.68" y="165.16799999999984" fill="black" font-size="9" font-family="sans-serif" text-anchor="start" transform="rotate(0 103.68 172.36799999999982)"><tspan x="103.68" dy="7.2">7</tspan></text><text x="119.232" y="198.86399999999986" fill="black" font-size="9" font-family="sans-serif" text-anchor="end" transform="rotate(0 119.232 206.06399999999985)"><tspan x="119.232" dy="7.2">3</tspan></text><text x="119.232" y="165.16799999999986" fill="black" font-size="9" font-family="sans-serif" text-anchor="start" transform="rotate(0 119.232 172.36799999999985)"><tspan x="119.232" dy="7.2">6</tspan></text><text x="134.784" y="198.86399999999986" fill="black" font-size="9" font-family="sans-serif" text-anchor="end" transform="rotate(0 134.784 206.06399999999985)"><tspan x="134.784" dy="7.2">4</tspan></text><text x="134.784" y="165.16799999999986" fill="black" font-size="9" font-family="sans-serif" text-anchor="start" transform="rotate(0 134.784 172.36799999999985)"><tspan x="134.784" dy="7.2">5</tspan></text><circle cx="88.12799999999999" cy="196.99199999999985" r="2.5920000000000005" style="stroke:black;fill:white;stroke-width:2;" /><circle cx="88.12799999999999" cy="181.43999999999986" r="2.5920000000000005" style="stroke:black;fill:white;stroke-width:2;" /><circle cx="103.68" cy="196.99199999999985" r="2.5920000000000005" style="stroke:black;fill:white;stroke-width:2;" /><circle cx="103.68" cy="181.43999999999986" r="2.5920000000000005" style="stroke:black;fill:white;stroke-width:2;" /><circle cx="119.232" cy="196.99199999999985" r="2.5920000000000005" style="stroke:black;fill:white;stroke-width:2;" /><circle cx="119.232" cy="181.43999999999986" r="2.5920000000000005" style="stroke:black;fill:white;stroke-width:2;" /><circle cx="134.784" cy="196.99199999999985" r="2.5920000000000005" style="stroke:black;fill:white;stroke-width:2;" /><circle cx="134.784" cy="181.43999999999986" r="2.5920000000000005" style="stroke:black;fill:white;stroke-width:2;" /></svg>