<svg xmlns="http://www.w3.org/2000/svg" xml:lang="en" height="131.53pt" width="233.59720000000002pt" viewBox="-29.09720000000001 -29.900000000000002 233.59720000000002 131.53"><path d="M 0.0,-0.0 L 32.4,-0.0 L 35.099999999999994,-8.1 L 40.5,8.1 L 45.89999999999999,-8.1 L 51.3,8.1 L 56.699999999999996,-8.1 L 62.099999999999994,8.1 L 64.8,-0.0 L 97.19999999999999,-0.0" style="stroke:black;fill:none;stroke-width:2;stroke-linecap:round;stroke-linejoin:round;" /><path d="M 97.19999999999999,-0.0 L 97.19999999999999,32.4 L 105.3,35.099999999999994 L 89.1,40.5 L 105.29999999999998,45.89999999999999 L 89.09999999999998,51.3 L 105.29999999999998,56.699999999999996 L 89.09999999999998,62.099999999999994 L 97.19999999999997,64.8 L 97.19999999999997,97.19999999999999" style="stroke:black;fill:none;stroke-width:2;stroke-linecap:round;stroke-linejoin:round;" /><path d="M 97.19999999999997,97.19999999999999 L 48.59999999999998,97.19999999999999 L -1.4388490399142028e-14,97.19999999999997" style="stroke:black;fill:none;stroke-width:2;stroke-linecap:round;stroke-linejoin:round;" /><path d="M -1.4388490399142028e-14,97.19999999999997 L -1.1598591909834466e-14,51.63749999999998 M -1.1226605444593455e-14,45.562499999999986 L -8.436706955285893e-15,-1.4388490399142028e-14" style="stroke:black;fill:none;stroke-width:2;stroke-linecap:round;stroke-linejoin:round;" /><path d="M 12.149999999999988,45.562499999999986 L -12.150000000000011,45.562499999999986" style="stroke:black;fill:none;stroke-width:2;stroke-linecap:round;stroke-linejoin:round;" /><path d="M 6.074999999999988,51.63749999999998 L -6.075000000000012,51.63749999999998" style="stroke:black;fill:none;stroke-width:2;stroke-linecap:round;stroke-linejoin:round;" /><path d="M 97.19999999999999,-0.0 L 145.79999999999998,-0.0 L 194.39999999999998,-0.0" style="stroke:black;fill:none;stroke-width:2;stroke-linecap:round;stroke-linejoin:round;" /><path d="M 194.39999999999998,-0.0 L 194.39999999999998,32.4 L 202.5,35.099999999999994 L 186.29999999999998,40.5 L 202.5,45.89999999999999 L 186.29999999999998,51.3 L 202.5,56.699999999999996 L 186.29999999999998,62.099999999999994 L 194.39999999999998,64.8 L 194.39999999999995,97.19999999999999" style="stroke:black;fill:none;stroke-width:2;stroke-linecap:round;stroke-linejoin:round;" /><path d="M 194.39999999999995,97.19999999999999 L 145.79999999999995,97.19999999999999 L 97.19999999999996,97.19999999999997" style="stroke:black;fill:none;stroke-width:2;stroke-linecap:round;stroke-linejoin:round;" /><text x="48.599999999999994" y="-22.54" fill="black" font-size="14" font-family="sans-serif" text-anchor="middle" transform="rotate(0 48.599999999999994 -11.339999999999998)"><tspan x="48.599999999999994" dy="11.200000000000001">R1</tspan></text><text x="85.86" y="42.99999999999999" fill="black" font-size="14" font-family="sans-serif" text-anchor="end" transform="rotate(0 85.86 48.599999999999994)"><tspan x="85.86" dy="11.200000000000001">R2</tspan></text><text x="-15.39000000000001" y="42.99999999999998" fill="black" font-size="14" font-family="sans-serif" text-anchor="end" transform="rotate(0 -15.39000000000001 48.59999999999998)"><tspan x="-15.39000000000001" dy="11.200000000000001">E</tspan></text><text x="183.05999999999997" y="42.99999999999999" fill="black" font-size="14" font-family="sans-serif" text-anchor="end" transform="rotate(0 183.05999999999997 48.599999999999994)"><tspan x="183.05999999999997" dy="11.200000000000001">R3</tspan></text><circle cx="97.19999999999999" cy="-0.0" r="2.4299999999999997" style="stroke:black;fill:black;stroke-width:2;" /><circle cx="97.19999999999997" cy="97.19999999999999" r="2.4299999999999997" style="stroke:black;fill:black;stroke-width:2;" /></svg>