<svg xmlns="http://www.w3.org/2000/svg" xml:lang="en" height="232.096pt" width="301.15659999999997pt" viewBox="-129.4292 -14.96 301.15659999999997 232.096"><polygon points="8.099999999999973,140.13 -2.7824587600027436e-14,151.47 -8.100000000000025,140.13 " style="stroke:black;fill:none;stroke-width:2;stroke-linecap:round;stroke-linejoin:round;" /><path d="M 24.58851371575105 155.3377221232863 L 19.412792310812563 155.3655059038343 L 21.984776567254386 150.86453345506112 Z" style="stroke:black;fill:black;stroke-linecap:butt;stroke-linejoin:miter;" /><path d="M 20.698784439033474 153.1150196794477 L 12.149999999999972 148.23 Z" style="stroke:black;fill:black;stroke-width:2;stroke-linecap:butt;stroke-linejoin:miter;" /><path d="M 24.588513715751052 148.04772212328632 L 19.412792310812563 148.0755059038343 L 21.984776567254393 143.5745334550611 Z" style="stroke:black;fill:black;stroke-linecap:butt;stroke-linejoin:miter;" /><path d="M 20.698784439033478 145.8250196794477 L 12.149999999999974 140.93999999999997 Z" style="stroke:black;fill:black;stroke-width:2;stroke-linecap:butt;stroke-linejoin:miter;" /><polygon points="-89.10000000000002,140.12999999999997 -97.20000000000003,151.46999999999997 -105.30000000000003,140.12999999999997 " style="stroke:black;fill:none;stroke-width:2;stroke-linecap:round;stroke-linejoin:round;" /><path d="M -72.61148628424894 155.33772212328628 L -77.78720768918744 155.36550590383428 L -75.2152234327456 150.8645334550611 Z" style="stroke:black;fill:black;stroke-linecap:butt;stroke-linejoin:miter;" /><path d="M -76.50121556096653 153.11501967944767 L -85.05000000000003 148.22999999999996 Z" style="stroke:black;fill:black;stroke-width:2;stroke-linecap:butt;stroke-linejoin:miter;" /><path d="M -72.61148628424894 148.0477221232863 L -77.78720768918744 148.07550590383428 L -75.2152234327456 143.5745334550611 Z" style="stroke:black;fill:black;stroke-linecap:butt;stroke-linejoin:miter;" /><path d="M -76.50121556096653 145.82501967944768 L -85.05000000000003 140.93999999999997 Z" style="stroke:black;fill:black;stroke-width:2;stroke-linecap:butt;stroke-linejoin:miter;" /><polygon points="105.29999999999997,140.13 97.19999999999996,151.47 89.09999999999997,140.13 " style="stroke:black;fill:none;stroke-width:2;stroke-linecap:round;stroke-linejoin:round;" /><path d="M 121.78851371575105 155.3377221232863 L 116.61279231081255 155.3655059038343 L 119.18477656725437 150.86453345506112 Z" style="stroke:black;fill:black;stroke-linecap:butt;stroke-linejoin:miter;" /><path d="M 117.89878443903346 153.1150196794477 L 109.34999999999997 148.23 Z" style="stroke:black;fill:black;stroke-width:2;stroke-linecap:butt;stroke-linejoin:miter;" /><path d="M 121.78851371575105 148.04772212328632 L 116.61279231081255 148.0755059038343 L 119.18477656725439 143.5745334550611 Z" style="stroke:black;fill:black;stroke-linecap:butt;stroke-linejoin:miter;" /><path d="M 117.89878443903348 145.8250196794477 L 109.34999999999997 140.93999999999997 Z" style="stroke:black;fill:black;stroke-width:2;stroke-linecap:butt;stroke-linejoin:miter;" /><path d="M 0.0,-0.0 L 0.0,-12.96" style="stroke:black;fill:none;stroke-width:2;stroke-linecap:round;stroke-linejoin:round;" /><path d="M 0.0,-12.96 L -6.074999999999999,-12.96" style="stroke:black;fill:none;stroke-width:2;stroke-linecap:round;stroke-linejoin:round;" /><path d="M 0.0,-12.96 L 6.074999999999999,-12.96" style="stroke:black;fill:none;stroke-width:2;stroke-linecap:round;stroke-linejoin:round;" /><path d="M 0.0,-0.0 L -5.951783443856136e-15,32.4 L 8.099999999999993,35.099999999999994 L -8.100000000000007,40.5 L 8.09999999999999,45.89999999999999 L -8.100000000000009,51.3 L 8.099999999999989,56.699999999999996 L -8.10000000000001,62.099999999999994 L -1.1903566887712272e-14,64.8 L -1.785535033156841e-14,97.19999999999999" style="stroke:black;fill:none;stroke-width:2;stroke-linecap:round;stroke-linejoin:round;" /><path d="M -1.785535033156841e-14,97.19999999999999 L -2.574146339467779e-14,140.13 M 8.099999999999971,151.47 L -8.100000000000028,151.47 M -2.7824587600027436e-14,151.47 L -3.571070066313682e-14,194.39999999999998" style="stroke:black;fill:none;stroke-width:2;stroke-linecap:round;stroke-linejoin:round;" /><path d="M 0.0,-0.0 L -48.599999999999994,-5.951783443856136e-15 L -97.19999999999999,-1.1903566887712272e-14" style="stroke:black;fill:none;stroke-width:2;stroke-linecap:round;stroke-linejoin:round;" /><path d="M -97.19999999999999,-1.1903566887712272e-14 L -97.19999999999999,32.399999999999984 L -89.1,35.09999999999998 L -105.3,40.499999999999986 L -89.10000000000001,45.89999999999998 L -105.30000000000001,51.29999999999998 L -89.10000000000001,56.69999999999998 L -105.30000000000001,62.09999999999998 L -97.20000000000002,64.79999999999998 L -97.20000000000002,97.19999999999997" style="stroke:black;fill:none;stroke-width:2;stroke-linecap:round;stroke-linejoin:round;" /><path d="M -97.20000000000002,97.19999999999997 L -97.20000000000003,140.12999999999997 M -89.10000000000002,151.46999999999997 L -105.30000000000003,151.46999999999997 M -97.20000000000003,151.46999999999997 L -97.20000000000003,194.39999999999998" style="stroke:black;fill:none;stroke-width:2;stroke-linecap:round;stroke-linejoin:round;" /><path d="M -97.20000000000003,194.39999999999998 L -48.60000000000003,194.39999999999998 L -2.8776980798284056e-14,194.39999999999998" style="stroke:black;fill:none;stroke-width:2;stroke-linecap:round;stroke-linejoin:round;" /><path d="M 0.0,-0.0 L 48.599999999999994,-0.0 L 97.19999999999999,-0.0" style="stroke:black;fill:none;stroke-width:2;stroke-linecap:round;stroke-linejoin:round;" /><path d="M 97.19999999999999,-0.0 L 97.19999999999999,32.4 L 105.3,35.099999999999994 L 89.1,40.5 L 105.29999999999998,45.89999999999999 L 89.09999999999998,51.3 L 105.29999999999998,56.699999999999996 L 89.09999999999998,62.099999999999994 L 97.19999999999997,64.8 L 97.19999999999997,97.19999999999999" style="stroke:black;fill:none;stroke-width:2;stroke-linecap:round;stroke-linejoin:round;" /><path d="M 97.19999999999997,97.19999999999999 L 97.19999999999996,140.13 M 105.29999999999997,151.47 L 89.09999999999997,151.47 M 97.19999999999996,151.47 L 97.19999999999996,194.39999999999998" style="stroke:black;fill:none;stroke-width:2;stroke-linecap:round;stroke-linejoin:round;" /><path d="M 97.19999999999996,194.39999999999998 L 48.599999999999966,194.39999999999998 L -2.8776980798284056e-14,194.39999999999998" style="stroke:black;fill:none;stroke-width:2;stroke-linecap:round;stroke-linejoin:round;" /><path d="M -2.8776980798284056e-14,194.39999999999998 L -2.8776980798284056e-14,207.36 L -8.100000000000028,207.36 L 8.099999999999971,207.36 M -5.670000000000028,211.248 L 5.669999999999971,211.248 M -1.6200000000000288,215.13599999999997 L 1.6199999999999712,215.13599999999997" style="stroke:black;fill:none;stroke-width:2;stroke-linecap:round;stroke-linejoin:round;" /><text x="-11.340000000000007" y="42.99999999999999" fill="black" font-size="14" font-family="sans-serif" text-anchor="end" transform="rotate(0 -11.340000000000007 48.599999999999994)"><tspan x="-11.340000000000007" dy="11.200000000000001">R1</tspan></text><text x="34.748999999999974" y="140.2" fill="black" font-size="14" font-family="sans-serif" text-anchor="start" transform="rotate(0 34.748999999999974 145.79999999999998)"><tspan x="34.748999999999974" dy="11.200000000000001">LED1</tspan></text><text x="-108.53999999999999" y="42.99999999999998" fill="black" font-size="14" font-family="sans-serif" text-anchor="end" transform="rotate(0 -108.53999999999999 48.59999999999998)"><tspan x="-108.53999999999999" dy="11.200000000000001">R2</tspan></text><text x="-62.45100000000002" y="140.2" fill="black" font-size="14" font-family="sans-serif" text-anchor="start" transform="rotate(0 -62.45100000000002 145.79999999999998)"><tspan x="-62.45100000000002" dy="11.200000000000001">LED2</tspan></text><text x="85.86" y="42.99999999999999" fill="black" font-size="14" font-family="sans-serif" text-anchor="end" transform="rotate(0 85.86 48.599999999999994)"><tspan x="85.86" dy="11.200000000000001">R3</tspan></text><text x="131.94899999999998" y="140.2" fill="black" font-size="14" font-family="sans-serif" text-anchor="start" transform="rotate(0 131.94899999999998 145.79999999999998)"><tspan x="131.94899999999998" dy="11.200000000000001">LED3</tspan></text><circle cx="0.0" cy="-0.0" r="2.4299999999999997" style="stroke:black;fill:black;stroke-width:2;" /><circle cx="-3.571070066313682e-14" cy="194.39999999999998" r="2.4299999999999997" style="stroke:black;fill:black;stroke-width:2;" /><circle cx="-2.8776980798284056e-14" cy="194.39999999999998" r="2.4299999999999997" style="stroke:black;fill:black;stroke-width:2;" /><circle cx="-2.8776980798284056e-14" cy="194.39999999999998" r="2.4299999999999997" style="stroke:black;fill:black;stroke-width:2;" /></svg>