<svg xmlns="http://www.w3.org/2000/svg" xml:lang="en" height="489.9999999999998pt" width="943.5999999999999pt" viewBox="-2.0000000000000058 -2.0 943.5999999999999 489.9999999999998"><polygon points="398.27734614752455,191.58241060478977 387.0069885666845,199.77903429994618 382.9086767191063,186.45952079531696 " style="stroke:black;fill:none;stroke-width:2;stroke-linecap:round;stroke-linejoin:round;" /><path d="M 409.11061972608275 211.22384844181474 L 404.1917132710009 209.6134996329681 L 408.055044240315 206.15683508147652 Z" style="stroke:black;fill:black;stroke-linecap:butt;stroke-linejoin:miter;" /><path d="M 406.12337875565794 207.8851673572223 L 399.5580685998928 200.5474677713671 Z" style="stroke:black;fill:black;stroke-width:2;stroke-linecap:butt;stroke-linejoin:miter;" /><path d="M 411.4159201403455 204.30794719902653 L 406.49701368526365 202.69759839017988 L 410.3603446545778 199.2409338386883 Z" style="stroke:black;fill:black;stroke-linecap:butt;stroke-linejoin:miter;" /><path d="M 408.4286791699207 200.96926611443408 L 401.8633690141555 193.63156652857887 Z" style="stroke:black;fill:black;stroke-width:2;stroke-linecap:butt;stroke-linejoin:miter;" /><polygon points="444.45764852501895,187.47551465469812 438.33214225802135,199.99285354812804 428.47806695893826,190.13877824904492 " style="stroke:black;fill:none;stroke-width:2;stroke-linecap:round;stroke-linejoin:round;" /><path d="M 463.22195238354834 199.76562439539543 L 458.12121986365463 200.6439135052556 L 459.91825419393314 195.78135002332547 Z" style="stroke:black;fill:black;stroke-linecap:butt;stroke-linejoin:miter;" /><path d="M 459.0197370287939 198.21263176429053 L 449.78417571371256 194.79948953915178 Z" style="stroke:black;fill:black;stroke-width:2;stroke-linecap:butt;stroke-linejoin:miter;" /><path d="M 462.0234837660923 192.57481269065912 L 456.9227512461986 193.45310180051928 L 458.71978557647714 188.59053831858915 Z" style="stroke:black;fill:black;stroke-linecap:butt;stroke-linejoin:miter;" /><path d="M 457.8212684113378 191.02182005955422 L 448.5857070962565 187.60867783441543 Z" style="stroke:black;fill:black;stroke-width:2;stroke-linecap:butt;stroke-linejoin:miter;" /><polygon points="399.33,283.4999999999998 410.67,291.59999999999974 399.33,299.69999999999976 " style="stroke:black;fill:none;stroke-width:2;stroke-linecap:round;stroke-linejoin:round;" /><path d="M 414.5377221232863 267.0114862842487 L 414.56550590383426 272.1872076891872 L 410.06453345506105 269.6152234327453 Z" style="stroke:black;fill:black;stroke-linecap:butt;stroke-linejoin:miter;" /><path d="M 412.3150196794477 270.90121556096625 L 407.42999999999995 279.44999999999976 Z" style="stroke:black;fill:black;stroke-width:2;stroke-linecap:butt;stroke-linejoin:miter;" /><path d="M 407.24772212328634 267.0114862842487 L 407.2755059038343 272.1872076891872 L 402.7745334550611 269.6152234327453 Z" style="stroke:black;fill:black;stroke-linecap:butt;stroke-linejoin:miter;" /><path d="M 405.0250196794477 270.90121556096625 L 400.14 279.44999999999976 Z" style="stroke:black;fill:black;stroke-width:2;stroke-linecap:butt;stroke-linejoin:miter;" /><path d="M 0.0,-0.0 L -2.975891721928068e-15,16.2 L -5.951783443856136e-15,32.4" style="stroke:white;fill:none;stroke-width:2;stroke-linecap:round;stroke-linejoin:round;" /><path d="M -5.951783443856136e-15,32.4 L 16.199999999999992,32.4 L 32.39999999999999,32.4" style="stroke:white;fill:none;stroke-width:2;stroke-linecap:round;stroke-linejoin:round;" /><path d="M 32.39999999999999,32.4 L 48.59999999999999,32.4 L 64.79999999999998,32.4" style="stroke:white;fill:none;stroke-width:2;stroke-linecap:round;stroke-linejoin:round;" /><path d="M 64.79999999999998,32.4 L 81.0,32.4 L 97.19999999999999,32.4" style="stroke:white;fill:none;stroke-width:2;stroke-linecap:round;stroke-linejoin:round;" /><path d="M 97.19999999999999,32.4 L 113.39999999999999,32.4 L 129.6,32.4" style="stroke:white;fill:none;stroke-width:2;stroke-linecap:round;stroke-linejoin:round;" /><path d="M 129.6,32.4 L 145.79999999999998,32.4 L 162.0,32.4" style="stroke:white;fill:none;stroke-width:2;stroke-linecap:round;stroke-linejoin:round;" /><path d="M 162.0,32.4 L 178.2,32.4 L 194.39999999999998,32.4" style="stroke:white;fill:none;stroke-width:2;stroke-linecap:round;stroke-linejoin:round;" /><path d="M 194.39999999999998,32.4 L 210.6,32.4 L 226.79999999999998,32.4" style="stroke:white;fill:none;stroke-width:2;stroke-linecap:round;stroke-linejoin:round;" /><path d="M 226.79999999999998,32.4 L 243.0,32.4 L 259.2,32.4" style="stroke:white;fill:none;stroke-width:2;stroke-linecap:round;stroke-linejoin:round;" /><path d="M 259.2,32.4 L 275.4,32.4 L 291.59999999999997,32.4" style="stroke:white;fill:none;stroke-width:2;stroke-linecap:round;stroke-linejoin:round;" /><path d="M 291.59999999999997,32.4 L 307.8,32.4 L 324.0,32.4" style="stroke:white;fill:none;stroke-width:2;stroke-linecap:round;stroke-linejoin:round;" /><path d="M 324.0,32.4 L 340.2,32.4 L 356.4,32.4" style="stroke:white;fill:none;stroke-width:2;stroke-linecap:round;stroke-linejoin:round;" /><path d="M 356.4,32.4 L 372.59999999999997,32.4 L 388.79999999999995,32.4" style="stroke:white;fill:none;stroke-width:2;stroke-linecap:round;stroke-linejoin:round;" /><path d="M 388.79999999999995,32.4 L 405.0,32.4 L 421.2,32.4" style="stroke:white;fill:none;stroke-width:2;stroke-linecap:round;stroke-linejoin:round;" /><path d="M 421.2,32.4 L 437.4,32.4 L 453.59999999999997,32.4" style="stroke:white;fill:none;stroke-width:2;stroke-linecap:round;stroke-linejoin:round;" /><path d="M 453.59999999999997,32.4 L 469.79999999999995,32.4 L 486.0,32.4" style="stroke:white;fill:none;stroke-width:2;stroke-linecap:round;stroke-linejoin:round;" /><path d="M 486.0,32.4 L 502.2,32.4 L 518.4,32.4" style="stroke:white;fill:none;stroke-width:2;stroke-linecap:round;stroke-linejoin:round;" /><path d="M 518.4,32.4 L 534.6,32.4 L 550.8,32.4" style="stroke:white;fill:none;stroke-width:2;stroke-linecap:round;stroke-linejoin:round;" /><path d="M 550.8,32.4 L 567.0,32.4 L 583.1999999999999,32.4" style="stroke:white;fill:none;stroke-width:2;stroke-linecap:round;stroke-linejoin:round;" /><path d="M 583.1999999999999,32.4 L 599.4,32.4 L 615.6,32.4" style="stroke:white;fill:none;stroke-width:2;stroke-linecap:round;stroke-linejoin:round;" /><path d="M 615.6,32.4 L 631.8,32.4 L 648.0,32.4" style="stroke:white;fill:none;stroke-width:2;stroke-linecap:round;stroke-linejoin:round;" /><path d="M 648.0,32.4 L 664.1999999999999,32.4 L 680.4,32.4" style="stroke:white;fill:none;stroke-width:2;stroke-linecap:round;stroke-linejoin:round;" /><path d="M 680.4,32.4 L 696.6,32.4 L 712.8,32.4" style="stroke:white;fill:none;stroke-width:2;stroke-linecap:round;stroke-linejoin:round;" /><path d="M 712.8,32.4 L 729.0,32.4 L 745.1999999999999,32.4" style="stroke:white;fill:none;stroke-width:2;stroke-linecap:round;stroke-linejoin:round;" /><path d="M 745.1999999999999,32.4 L 761.4,32.4 L 777.5999999999999,32.4" style="stroke:white;fill:none;stroke-width:2;stroke-linecap:round;stroke-linejoin:round;" /><path d="M 777.5999999999999,32.4 L 793.8,32.4 L 810.0,32.4" style="stroke:white;fill:none;stroke-width:2;stroke-linecap:round;stroke-linejoin:round;" /><path d="M 810.0,32.4 L 826.1999999999999,32.4 L 842.4,32.4" style="stroke:white;fill:none;stroke-width:2;stroke-linecap:round;stroke-linejoin:round;" /><path d="M 842.4,32.4 L 858.5999999999999,32.4 L 874.8,32.4" style="stroke:white;fill:none;stroke-width:2;stroke-linecap:round;stroke-linejoin:round;" /><path d="M 874.8,32.4 L 891.0,32.4 L 907.1999999999999,32.4" style="stroke:white;fill:none;stroke-width:2;stroke-linecap:round;stroke-linejoin:round;" /><path d="M 907.1999999999999,32.4 L 923.4,32.4 L 939.5999999999999,32.4" style="stroke:white;fill:none;stroke-width:2;stroke-linecap:round;stroke-linejoin:round;" /><path d="M 939.5999999999999,32.4 L 939.5999999999999,48.599999999999994 L 939.5999999999999,64.8" style="stroke:white;fill:none;stroke-width:2;stroke-linecap:round;stroke-linejoin:round;" /><path d="M 939.5999999999999,64.8 L 923.4,64.8 L 907.1999999999999,64.79999999999998" style="stroke:white;fill:none;stroke-width:2;stroke-linecap:round;stroke-linejoin:round;" /><path d="M 907.1999999999999,64.79999999999998 L 891.0,64.79999999999998 L 874.8,64.79999999999998" style="stroke:white;fill:none;stroke-width:2;stroke-linecap:round;stroke-linejoin:round;" /><path d="M 874.8,64.79999999999998 L 858.5999999999999,64.79999999999998 L 842.4,64.79999999999997" style="stroke:white;fill:none;stroke-width:2;stroke-linecap:round;stroke-linejoin:round;" /><path d="M 842.4,64.79999999999997 L 826.1999999999999,64.79999999999997 L 810.0,64.79999999999997" style="stroke:white;fill:none;stroke-width:2;stroke-linecap:round;stroke-linejoin:round;" /><path d="M 810.0,64.79999999999997 L 793.8,64.79999999999997 L 777.5999999999999,64.79999999999995" style="stroke:white;fill:none;stroke-width:2;stroke-linecap:round;stroke-linejoin:round;" /><path d="M 777.5999999999999,64.79999999999995 L 761.4,64.79999999999995 L 745.1999999999999,64.79999999999995" style="stroke:white;fill:none;stroke-width:2;stroke-linecap:round;stroke-linejoin:round;" /><path d="M 745.1999999999999,64.79999999999995 L 729.0,64.79999999999995 L 712.8,64.79999999999994" style="stroke:white;fill:none;stroke-width:2;stroke-linecap:round;stroke-linejoin:round;" /><path d="M 712.8,64.79999999999994 L 696.6,64.79999999999994 L 680.4,64.79999999999994" style="stroke:white;fill:none;stroke-width:2;stroke-linecap:round;stroke-linejoin:round;" /><path d="M 680.4,64.79999999999994 L 664.1999999999999,64.79999999999994 L 648.0,64.79999999999993" style="stroke:white;fill:none;stroke-width:2;stroke-linecap:round;stroke-linejoin:round;" /><path d="M 648.0,64.79999999999993 L 631.8,64.79999999999993 L 615.6,64.79999999999993" style="stroke:white;fill:none;stroke-width:2;stroke-linecap:round;stroke-linejoin:round;" /><path d="M 615.6,64.79999999999993 L 599.4,64.79999999999993 L 583.1999999999999,64.79999999999991" style="stroke:white;fill:none;stroke-width:2;stroke-linecap:round;stroke-linejoin:round;" /><path d="M 583.1999999999999,64.79999999999991 L 567.0,64.79999999999991 L 550.8,64.79999999999991" style="stroke:white;fill:none;stroke-width:2;stroke-linecap:round;stroke-linejoin:round;" /><path d="M 550.8,64.79999999999991 L 534.6,64.79999999999991 L 518.4,64.7999999999999" style="stroke:white;fill:none;stroke-width:2;stroke-linecap:round;stroke-linejoin:round;" /><path d="M 518.4,64.7999999999999 L 502.2,64.7999999999999 L 486.0,64.7999999999999" style="stroke:white;fill:none;stroke-width:2;stroke-linecap:round;stroke-linejoin:round;" /><path d="M 486.0,64.7999999999999 L 469.79999999999995,64.7999999999999 L 453.59999999999997,64.79999999999988" style="stroke:white;fill:none;stroke-width:2;stroke-linecap:round;stroke-linejoin:round;" /><path d="M 453.59999999999997,64.79999999999988 L 437.4,64.79999999999988 L 421.2,64.79999999999988" style="stroke:white;fill:none;stroke-width:2;stroke-linecap:round;stroke-linejoin:round;" /><path d="M 421.2,64.79999999999988 L 405.0,64.79999999999988 L 388.79999999999995,64.79999999999987" style="stroke:white;fill:none;stroke-width:2;stroke-linecap:round;stroke-linejoin:round;" /><path d="M 388.79999999999995,64.79999999999987 L 372.59999999999997,64.79999999999987 L 356.4,64.79999999999987" style="stroke:white;fill:none;stroke-width:2;stroke-linecap:round;stroke-linejoin:round;" /><path d="M 356.4,64.79999999999987 L 340.2,64.79999999999987 L 324.0,64.79999999999986" style="stroke:white;fill:none;stroke-width:2;stroke-linecap:round;stroke-linejoin:round;" /><path d="M 324.0,64.79999999999986 L 307.8,64.79999999999986 L 291.59999999999997,64.79999999999986" style="stroke:white;fill:none;stroke-width:2;stroke-linecap:round;stroke-linejoin:round;" /><path d="M 291.59999999999997,64.79999999999986 L 275.4,64.79999999999986 L 259.2,64.79999999999984" style="stroke:white;fill:none;stroke-width:2;stroke-linecap:round;stroke-linejoin:round;" /><path d="M 259.2,64.79999999999984 L 243.0,64.79999999999984 L 226.79999999999998,64.79999999999984" style="stroke:white;fill:none;stroke-width:2;stroke-linecap:round;stroke-linejoin:round;" /><path d="M 226.79999999999998,64.79999999999984 L 210.6,64.79999999999984 L 194.39999999999998,64.79999999999983" style="stroke:white;fill:none;stroke-width:2;stroke-linecap:round;stroke-linejoin:round;" /><path d="M 194.39999999999998,64.79999999999983 L 178.2,64.79999999999983 L 162.0,64.79999999999983" style="stroke:white;fill:none;stroke-width:2;stroke-linecap:round;stroke-linejoin:round;" /><path d="M 162.0,64.79999999999983 L 145.79999999999998,64.79999999999983 L 129.6,64.79999999999981" style="stroke:white;fill:none;stroke-width:2;stroke-linecap:round;stroke-linejoin:round;" /><path d="M 129.6,64.79999999999981 L 113.39999999999999,64.79999999999981 L 97.19999999999999,64.79999999999981" style="stroke:white;fill:none;stroke-width:2;stroke-linecap:round;stroke-linejoin:round;" /><path d="M 97.19999999999999,64.79999999999981 L 81.0,64.79999999999981 L 64.8,64.7999999999998" style="stroke:white;fill:none;stroke-width:2;stroke-linecap:round;stroke-linejoin:round;" /><path d="M 64.8,64.7999999999998 L 48.599999999999994,64.7999999999998 L 32.4,64.7999999999998" style="stroke:white;fill:none;stroke-width:2;stroke-linecap:round;stroke-linejoin:round;" /><path d="M 32.4,64.7999999999998 L 16.2,64.7999999999998 L 0.0,64.79999999999978" style="stroke:white;fill:none;stroke-width:2;stroke-linecap:round;stroke-linejoin:round;" /><path d="M 0.0,64.79999999999978 L -2.975891721928068e-15,80.9999999999998 L -5.951783443856136e-15,97.19999999999979" style="stroke:white;fill:none;stroke-width:2;stroke-linecap:round;stroke-linejoin:round;" /><path d="M -5.951783443856136e-15,97.19999999999979 L 16.199999999999992,97.19999999999979 L 32.39999999999999,97.19999999999979" style="stroke:white;fill:none;stroke-width:2;stroke-linecap:round;stroke-linejoin:round;" /><path d="M 32.39999999999999,97.19999999999979 L 48.59999999999999,97.19999999999979 L 64.79999999999998,97.19999999999979" style="stroke:white;fill:none;stroke-width:2;stroke-linecap:round;stroke-linejoin:round;" /><path d="M 64.79999999999998,97.19999999999979 L 81.0,97.19999999999979 L 97.19999999999999,97.19999999999979" style="stroke:white;fill:none;stroke-width:2;stroke-linecap:round;stroke-linejoin:round;" /><path d="M 97.19999999999999,97.19999999999979 L 113.39999999999999,97.19999999999979 L 129.6,97.19999999999979" style="stroke:white;fill:none;stroke-width:2;stroke-linecap:round;stroke-linejoin:round;" /><path d="M 129.6,97.19999999999979 L 145.79999999999998,97.19999999999979 L 162.0,97.19999999999979" style="stroke:white;fill:none;stroke-width:2;stroke-linecap:round;stroke-linejoin:round;" /><path d="M 162.0,97.19999999999979 L 178.2,97.19999999999979 L 194.39999999999998,97.19999999999979" style="stroke:white;fill:none;stroke-width:2;stroke-linecap:round;stroke-linejoin:round;" /><path d="M 194.39999999999998,97.19999999999979 L 210.6,97.19999999999979 L 226.79999999999998,97.19999999999979" style="stroke:white;fill:none;stroke-width:2;stroke-linecap:round;stroke-linejoin:round;" /><path d="M 226.79999999999998,97.19999999999979 L 243.0,97.19999999999979 L 259.2,97.19999999999979" style="stroke:white;fill:none;stroke-width:2;stroke-linecap:round;stroke-linejoin:round;" /><path d="M 259.2,97.19999999999979 L 275.4,97.19999999999979 L 291.59999999999997,97.19999999999979" style="stroke:white;fill:none;stroke-width:2;stroke-linecap:round;stroke-linejoin:round;" /><path d="M 291.59999999999997,97.19999999999979 L 307.8,97.19999999999979 L 324.0,97.19999999999979" style="stroke:white;fill:none;stroke-width:2;stroke-linecap:round;stroke-linejoin:round;" /><path d="M 324.0,97.19999999999979 L 340.2,97.19999999999979 L 356.4,97.19999999999979" style="stroke:white;fill:none;stroke-width:2;stroke-linecap:round;stroke-linejoin:round;" /><path d="M 356.4,97.19999999999979 L 372.59999999999997,97.19999999999979 L 388.79999999999995,97.19999999999979" style="stroke:white;fill:none;stroke-width:2;stroke-linecap:round;stroke-linejoin:round;" /><path d="M 388.79999999999995,97.19999999999979 L 405.0,97.19999999999979 L 421.2,97.19999999999979" style="stroke:white;fill:none;stroke-width:2;stroke-linecap:round;stroke-linejoin:round;" /><path d="M 421.2,97.19999999999979 L 437.4,97.19999999999979 L 453.59999999999997,97.19999999999979" style="stroke:white;fill:none;stroke-width:2;stroke-linecap:round;stroke-linejoin:round;" /><path d="M 453.59999999999997,97.19999999999979 L 469.79999999999995,97.19999999999979 L 486.0,97.19999999999979" style="stroke:white;fill:none;stroke-width:2;stroke-linecap:round;stroke-linejoin:round;" /><path d="M 486.0,97.19999999999979 L 502.2,97.19999999999979 L 518.4,97.19999999999979" style="stroke:white;fill:none;stroke-width:2;stroke-linecap:round;stroke-linejoin:round;" /><path d="M 518.4,97.19999999999979 L 534.6,97.19999999999979 L 550.8,97.19999999999979" style="stroke:white;fill:none;stroke-width:2;stroke-linecap:round;stroke-linejoin:round;" /><path d="M 550.8,97.19999999999979 L 567.0,97.19999999999979 L 583.1999999999999,97.19999999999979" style="stroke:white;fill:none;stroke-width:2;stroke-linecap:round;stroke-linejoin:round;" /><path d="M 583.1999999999999,97.19999999999979 L 599.4,97.19999999999979 L 615.6,97.19999999999979" style="stroke:white;fill:none;stroke-width:2;stroke-linecap:round;stroke-linejoin:round;" /><path d="M 615.6,97.19999999999979 L 631.8,97.19999999999979 L 648.0,97.19999999999979" style="stroke:white;fill:none;stroke-width:2;stroke-linecap:round;stroke-linejoin:round;" /><path d="M 648.0,97.19999999999979 L 664.1999999999999,97.19999999999979 L 680.4,97.19999999999979" style="stroke:white;fill:none;stroke-width:2;stroke-linecap:round;stroke-linejoin:round;" /><path d="M 680.4,97.19999999999979 L 696.6,97.19999999999979 L 712.8,97.19999999999979" style="stroke:white;fill:none;stroke-width:2;stroke-linecap:round;stroke-linejoin:round;" /><path d="M 712.8,97.19999999999979 L 729.0,97.19999999999979 L 745.1999999999999,97.19999999999979" style="stroke:white;fill:none;stroke-width:2;stroke-linecap:round;stroke-linejoin:round;" /><path d="M 745.1999999999999,97.19999999999979 L 761.4,97.19999999999979 L 777.5999999999999,97.19999999999979" style="stroke:white;fill:none;stroke-width:2;stroke-linecap:round;stroke-linejoin:round;" /><path d="M 777.5999999999999,97.19999999999979 L 793.8,97.19999999999979 L 810.0,97.19999999999979" style="stroke:white;fill:none;stroke-width:2;stroke-linecap:round;stroke-linejoin:round;" /><path d="M 810.0,97.19999999999979 L 826.1999999999999,97.19999999999979 L 842.4,97.19999999999979" style="stroke:white;fill:none;stroke-width:2;stroke-linecap:round;stroke-linejoin:round;" /><path d="M 842.4,97.19999999999979 L 858.5999999999999,97.19999999999979 L 874.8,97.19999999999979" style="stroke:white;fill:none;stroke-width:2;stroke-linecap:round;stroke-linejoin:round;" /><path d="M 874.8,97.19999999999979 L 891.0,97.19999999999979 L 907.1999999999999,97.19999999999979" style="stroke:white;fill:none;stroke-width:2;stroke-linecap:round;stroke-linejoin:round;" /><path d="M 907.1999999999999,97.19999999999979 L 923.4,97.19999999999979 L 939.5999999999999,97.19999999999979" style="stroke:white;fill:none;stroke-width:2;stroke-linecap:round;stroke-linejoin:round;" /><path d="M 939.5999999999999,97.19999999999979 L 939.5999999999999,113.39999999999979 L 939.5999999999999,129.5999999999998" style="stroke:white;fill:none;stroke-width:2;stroke-linecap:round;stroke-linejoin:round;" /><path d="M 939.5999999999999,129.5999999999998 L 923.4,129.5999999999998 L 907.1999999999999,129.5999999999998" style="stroke:white;fill:none;stroke-width:2;stroke-linecap:round;stroke-linejoin:round;" /><path d="M 907.1999999999999,129.5999999999998 L 891.0,129.5999999999998 L 874.8,129.5999999999998" style="stroke:white;fill:none;stroke-width:2;stroke-linecap:round;stroke-linejoin:round;" /><path d="M 874.8,129.5999999999998 L 858.5999999999999,129.5999999999998 L 842.4,129.5999999999998" style="stroke:white;fill:none;stroke-width:2;stroke-linecap:round;stroke-linejoin:round;" /><path d="M 842.4,129.5999999999998 L 826.1999999999999,129.5999999999998 L 810.0,129.5999999999998" style="stroke:white;fill:none;stroke-width:2;stroke-linecap:round;stroke-linejoin:round;" /><path d="M 810.0,129.5999999999998 L 793.8,129.5999999999998 L 777.5999999999999,129.5999999999998" style="stroke:white;fill:none;stroke-width:2;stroke-linecap:round;stroke-linejoin:round;" /><path d="M 777.5999999999999,129.5999999999998 L 761.4,129.5999999999998 L 745.1999999999999,129.5999999999998" style="stroke:white;fill:none;stroke-width:2;stroke-linecap:round;stroke-linejoin:round;" /><path d="M 745.1999999999999,129.5999999999998 L 729.0,129.5999999999998 L 712.8,129.5999999999998" style="stroke:white;fill:none;stroke-width:2;stroke-linecap:round;stroke-linejoin:round;" /><path d="M 712.8,129.5999999999998 L 696.6,129.5999999999998 L 680.4,129.5999999999998" style="stroke:white;fill:none;stroke-width:2;stroke-linecap:round;stroke-linejoin:round;" /><path d="M 680.4,129.5999999999998 L 664.1999999999999,129.5999999999998 L 648.0,129.5999999999998" style="stroke:white;fill:none;stroke-width:2;stroke-linecap:round;stroke-linejoin:round;" /><path d="M 648.0,129.5999999999998 L 631.8,129.5999999999998 L 615.6,129.5999999999998" style="stroke:white;fill:none;stroke-width:2;stroke-linecap:round;stroke-linejoin:round;" /><path d="M 615.6,129.5999999999998 L 599.4,129.5999999999998 L 583.1999999999999,129.5999999999998" style="stroke:white;fill:none;stroke-width:2;stroke-linecap:round;stroke-linejoin:round;" /><path d="M 583.1999999999999,129.5999999999998 L 567.0,129.5999999999998 L 550.8,129.5999999999998" style="stroke:white;fill:none;stroke-width:2;stroke-linecap:round;stroke-linejoin:round;" /><path d="M 550.8,129.5999999999998 L 534.6,129.5999999999998 L 518.4,129.5999999999998" style="stroke:white;fill:none;stroke-width:2;stroke-linecap:round;stroke-linejoin:round;" /><path d="M 518.4,129.5999999999998 L 502.2,129.5999999999998 L 486.0,129.5999999999998" style="stroke:white;fill:none;stroke-width:2;stroke-linecap:round;stroke-linejoin:round;" /><path d="M 486.0,129.5999999999998 L 469.79999999999995,129.5999999999998 L 453.59999999999997,129.5999999999998" style="stroke:white;fill:none;stroke-width:2;stroke-linecap:round;stroke-linejoin:round;" /><path d="M 453.59999999999997,129.5999999999998 L 437.4,129.5999999999998 L 421.2,129.5999999999998" style="stroke:white;fill:none;stroke-width:2;stroke-linecap:round;stroke-linejoin:round;" /><path d="M 421.2,129.5999999999998 L 405.0,129.5999999999998 L 388.79999999999995,129.5999999999998" style="stroke:white;fill:none;stroke-width:2;stroke-linecap:round;stroke-linejoin:round;" /><path d="M 388.79999999999995,129.5999999999998 L 372.59999999999997,129.5999999999998 L 356.4,129.5999999999998" style="stroke:white;fill:none;stroke-width:2;stroke-linecap:round;stroke-linejoin:round;" /><path d="M 356.4,129.5999999999998 L 340.2,129.5999999999998 L 324.0,129.5999999999998" style="stroke:white;fill:none;stroke-width:2;stroke-linecap:round;stroke-linejoin:round;" /><path d="M 324.0,129.5999999999998 L 307.8,129.5999999999998 L 291.59999999999997,129.5999999999998" style="stroke:white;fill:none;stroke-width:2;stroke-linecap:round;stroke-linejoin:round;" /><path d="M 291.59999999999997,129.5999999999998 L 275.4,129.5999999999998 L 259.2,129.5999999999998" style="stroke:white;fill:none;stroke-width:2;stroke-linecap:round;stroke-linejoin:round;" /><path d="M 259.2,129.5999999999998 L 243.0,129.5999999999998 L 226.79999999999998,129.5999999999998" style="stroke:white;fill:none;stroke-width:2;stroke-linecap:round;stroke-linejoin:round;" /><path d="M 226.79999999999998,129.5999999999998 L 210.6,129.5999999999998 L 194.39999999999998,129.5999999999998" style="stroke:white;fill:none;stroke-width:2;stroke-linecap:round;stroke-linejoin:round;" /><path d="M 194.39999999999998,129.5999999999998 L 178.2,129.5999999999998 L 162.0,129.5999999999998" style="stroke:white;fill:none;stroke-width:2;stroke-linecap:round;stroke-linejoin:round;" /><path d="M 162.0,129.5999999999998 L 145.79999999999998,129.5999999999998 L 129.6,129.5999999999998" style="stroke:white;fill:none;stroke-width:2;stroke-linecap:round;stroke-linejoin:round;" /><path d="M 129.6,129.5999999999998 L 113.39999999999999,129.5999999999998 L 97.19999999999999,129.5999999999998" style="stroke:white;fill:none;stroke-width:2;stroke-linecap:round;stroke-linejoin:round;" /><path d="M 97.19999999999999,129.5999999999998 L 81.0,129.5999999999998 L 64.8,129.5999999999998" style="stroke:white;fill:none;stroke-width:2;stroke-linecap:round;stroke-linejoin:round;" /><path d="M 64.8,129.5999999999998 L 48.599999999999994,129.5999999999998 L 32.4,129.5999999999998" style="stroke:white;fill:none;stroke-width:2;stroke-linecap:round;stroke-linejoin:round;" /><path d="M 32.4,129.5999999999998 L 16.2,129.5999999999998 L 0.0,129.5999999999998" style="stroke:white;fill:none;stroke-width:2;stroke-linecap:round;stroke-linejoin:round;" /><path d="M 0.0,129.5999999999998 L -2.975891721928068e-15,145.79999999999978 L -5.951783443856136e-15,161.9999999999998" style="stroke:white;fill:none;stroke-width:2;stroke-linecap:round;stroke-linejoin:round;" /><path d="M -5.951783443856136e-15,161.9999999999998 L 16.199999999999992,161.9999999999998 L 32.39999999999999,161.9999999999998" style="stroke:white;fill:none;stroke-width:2;stroke-linecap:round;stroke-linejoin:round;" /><path d="M 32.39999999999999,161.9999999999998 L 48.59999999999999,161.9999999999998 L 64.79999999999998,161.9999999999998" style="stroke:white;fill:none;stroke-width:2;stroke-linecap:round;stroke-linejoin:round;" /><path d="M 64.79999999999998,161.9999999999998 L 81.0,161.9999999999998 L 97.19999999999999,161.9999999999998" style="stroke:white;fill:none;stroke-width:2;stroke-linecap:round;stroke-linejoin:round;" /><path d="M 97.19999999999999,161.9999999999998 L 113.39999999999999,161.9999999999998 L 129.6,161.9999999999998" style="stroke:white;fill:none;stroke-width:2;stroke-linecap:round;stroke-linejoin:round;" /><path d="M 129.6,161.9999999999998 L 145.79999999999998,161.9999999999998 L 162.0,161.9999999999998" style="stroke:white;fill:none;stroke-width:2;stroke-linecap:round;stroke-linejoin:round;" /><path d="M 162.0,161.9999999999998 L 178.2,161.9999999999998 L 194.39999999999998,161.9999999999998" style="stroke:white;fill:none;stroke-width:2;stroke-linecap:round;stroke-linejoin:round;" /><path d="M 194.39999999999998,161.9999999999998 L 210.6,161.9999999999998 L 226.79999999999998,161.9999999999998" style="stroke:white;fill:none;stroke-width:2;stroke-linecap:round;stroke-linejoin:round;" /><path d="M 226.79999999999998,161.9999999999998 L 243.0,161.9999999999998 L 259.2,161.9999999999998" style="stroke:white;fill:none;stroke-width:2;stroke-linecap:round;stroke-linejoin:round;" /><path d="M 259.2,161.9999999999998 L 275.4,161.9999999999998 L 291.59999999999997,161.9999999999998" style="stroke:white;fill:none;stroke-width:2;stroke-linecap:round;stroke-linejoin:round;" /><path d="M 291.59999999999997,161.9999999999998 L 307.8,161.9999999999998 L 324.0,161.9999999999998" style="stroke:white;fill:none;stroke-width:2;stroke-linecap:round;stroke-linejoin:round;" /><path d="M 324.0,161.9999999999998 L 340.2,161.9999999999998 L 356.4,161.9999999999998" style="stroke:white;fill:none;stroke-width:2;stroke-linecap:round;stroke-linejoin:round;" /><path d="M 356.4,161.9999999999998 L 372.59999999999997,161.9999999999998 L 388.79999999999995,161.9999999999998" style="stroke:white;fill:none;stroke-width:2;stroke-linecap:round;stroke-linejoin:round;" /><path d="M 388.79999999999995,161.9999999999998 L 405.0,161.9999999999998 L 421.2,161.9999999999998" style="stroke:white;fill:none;stroke-width:2;stroke-linecap:round;stroke-linejoin:round;" /><path d="M 421.2,161.9999999999998 L 437.4,161.9999999999998 L 453.59999999999997,161.9999999999998" style="stroke:white;fill:none;stroke-width:2;stroke-linecap:round;stroke-linejoin:round;" /><path d="M 453.59999999999997,161.9999999999998 L 469.79999999999995,161.9999999999998 L 486.0,161.9999999999998" style="stroke:white;fill:none;stroke-width:2;stroke-linecap:round;stroke-linejoin:round;" /><path d="M 486.0,161.9999999999998 L 502.2,161.9999999999998 L 518.4,161.9999999999998" style="stroke:white;fill:none;stroke-width:2;stroke-linecap:round;stroke-linejoin:round;" /><path d="M 518.4,161.9999999999998 L 534.6,161.9999999999998 L 550.8,161.9999999999998" style="stroke:white;fill:none;stroke-width:2;stroke-linecap:round;stroke-linejoin:round;" /><path d="M 550.8,161.9999999999998 L 567.0,161.9999999999998 L 583.1999999999999,161.9999999999998" style="stroke:white;fill:none;stroke-width:2;stroke-linecap:round;stroke-linejoin:round;" /><path d="M 583.1999999999999,161.9999999999998 L 599.4,161.9999999999998 L 615.6,161.9999999999998" style="stroke:white;fill:none;stroke-width:2;stroke-linecap:round;stroke-linejoin:round;" /><path d="M 615.6,161.9999999999998 L 631.8,161.9999999999998 L 648.0,161.9999999999998" style="stroke:white;fill:none;stroke-width:2;stroke-linecap:round;stroke-linejoin:round;" /><path d="M 648.0,161.9999999999998 L 664.1999999999999,161.9999999999998 L 680.4,161.9999999999998" style="stroke:white;fill:none;stroke-width:2;stroke-linecap:round;stroke-linejoin:round;" /><path d="M 680.4,161.9999999999998 L 696.6,161.9999999999998 L 712.8,161.9999999999998" style="stroke:white;fill:none;stroke-width:2;stroke-linecap:round;stroke-linejoin:round;" /><path d="M 712.8,161.9999999999998 L 729.0,161.9999999999998 L 745.1999999999999,161.9999999999998" style="stroke:white;fill:none;stroke-width:2;stroke-linecap:round;stroke-linejoin:round;" /><path d="M 745.1999999999999,161.9999999999998 L 761.4,161.9999999999998 L 777.5999999999999,161.9999999999998" style="stroke:white;fill:none;stroke-width:2;stroke-linecap:round;stroke-linejoin:round;" /><path d="M 777.5999999999999,161.9999999999998 L 793.8,161.9999999999998 L 810.0,161.9999999999998" style="stroke:white;fill:none;stroke-width:2;stroke-linecap:round;stroke-linejoin:round;" /><path d="M 810.0,161.9999999999998 L 826.1999999999999,161.9999999999998 L 842.4,161.9999999999998" style="stroke:white;fill:none;stroke-width:2;stroke-linecap:round;stroke-linejoin:round;" /><path d="M 842.4,161.9999999999998 L 858.5999999999999,161.9999999999998 L 874.8,161.9999999999998" style="stroke:white;fill:none;stroke-width:2;stroke-linecap:round;stroke-linejoin:round;" /><path d="M 874.8,161.9999999999998 L 891.0,161.9999999999998 L 907.1999999999999,161.9999999999998" style="stroke:white;fill:none;stroke-width:2;stroke-linecap:round;stroke-linejoin:round;" /><path d="M 907.1999999999999,161.9999999999998 L 923.4,161.9999999999998 L 939.5999999999999,161.9999999999998" style="stroke:white;fill:none;stroke-width:2;stroke-linecap:round;stroke-linejoin:round;" /><path d="M 939.5999999999999,161.9999999999998 L 939.5999999999999,178.1999999999998 L 939.5999999999999,194.39999999999978" style="stroke:white;fill:none;stroke-width:2;stroke-linecap:round;stroke-linejoin:round;" /><path d="M 939.5999999999999,194.39999999999978 L 923.4,194.39999999999978 L 907.1999999999999,194.39999999999978" style="stroke:white;fill:none;stroke-width:2;stroke-linecap:round;stroke-linejoin:round;" /><path d="M 907.1999999999999,194.39999999999978 L 891.0,194.39999999999978 L 874.8,194.39999999999978" style="stroke:white;fill:none;stroke-width:2;stroke-linecap:round;stroke-linejoin:round;" /><path d="M 874.8,194.39999999999978 L 858.5999999999999,194.39999999999978 L 842.4,194.39999999999978" style="stroke:white;fill:none;stroke-width:2;stroke-linecap:round;stroke-linejoin:round;" /><path d="M 842.4,194.39999999999978 L 826.1999999999999,194.39999999999978 L 810.0,194.39999999999978" style="stroke:white;fill:none;stroke-width:2;stroke-linecap:round;stroke-linejoin:round;" /><path d="M 810.0,194.39999999999978 L 793.8,194.39999999999978 L 777.5999999999999,194.39999999999978" style="stroke:white;fill:none;stroke-width:2;stroke-linecap:round;stroke-linejoin:round;" /><path d="M 777.5999999999999,194.39999999999978 L 761.4,194.39999999999978 L 745.1999999999999,194.39999999999978" style="stroke:white;fill:none;stroke-width:2;stroke-linecap:round;stroke-linejoin:round;" /><path d="M 745.1999999999999,194.39999999999978 L 729.0,194.39999999999978 L 712.8,194.39999999999978" style="stroke:white;fill:none;stroke-width:2;stroke-linecap:round;stroke-linejoin:round;" /><path d="M 712.8,194.39999999999978 L 696.6,194.39999999999978 L 680.4,194.39999999999978" style="stroke:white;fill:none;stroke-width:2;stroke-linecap:round;stroke-linejoin:round;" /><path d="M 680.4,194.39999999999978 L 664.1999999999999,194.39999999999978 L 648.0,194.39999999999978" style="stroke:white;fill:none;stroke-width:2;stroke-linecap:round;stroke-linejoin:round;" /><path d="M 648.0,194.39999999999978 L 631.8,194.39999999999978 L 615.6,194.39999999999978" style="stroke:white;fill:none;stroke-width:2;stroke-linecap:round;stroke-linejoin:round;" /><path d="M 615.6,194.39999999999978 L 599.4,194.39999999999978 L 583.1999999999999,194.39999999999978" style="stroke:white;fill:none;stroke-width:2;stroke-linecap:round;stroke-linejoin:round;" /><path d="M 583.1999999999999,194.39999999999978 L 567.0,194.39999999999978 L 550.8,194.39999999999978" style="stroke:white;fill:none;stroke-width:2;stroke-linecap:round;stroke-linejoin:round;" /><path d="M 550.8,194.39999999999978 L 534.6,194.39999999999978 L 518.4,194.39999999999978" style="stroke:white;fill:none;stroke-width:2;stroke-linecap:round;stroke-linejoin:round;" /><path d="M 518.4,194.39999999999978 L 502.2,194.39999999999978 L 486.0,194.39999999999978" style="stroke:white;fill:none;stroke-width:2;stroke-linecap:round;stroke-linejoin:round;" /><path d="M 486.0,194.39999999999978 L 469.79999999999995,194.39999999999978 L 453.59999999999997,194.39999999999978" style="stroke:white;fill:none;stroke-width:2;stroke-linecap:round;stroke-linejoin:round;" /><path d="M 453.59999999999997,194.39999999999978 L 437.4,194.39999999999978 L 421.2,194.39999999999978" style="stroke:white;fill:none;stroke-width:2;stroke-linecap:round;stroke-linejoin:round;" /><path d="M 421.2,194.39999999999978 L 405.0,194.39999999999978 L 388.79999999999995,194.39999999999978" style="stroke:white;fill:none;stroke-width:2;stroke-linecap:round;stroke-linejoin:round;" /><path d="M 388.79999999999995,194.39999999999978 L 372.59999999999997,194.39999999999978 L 356.4,194.39999999999978" style="stroke:white;fill:none;stroke-width:2;stroke-linecap:round;stroke-linejoin:round;" /><path d="M 356.4,194.39999999999978 L 340.2,194.39999999999978 L 324.0,194.39999999999978" style="stroke:white;fill:none;stroke-width:2;stroke-linecap:round;stroke-linejoin:round;" /><path d="M 324.0,194.39999999999978 L 307.8,194.39999999999978 L 291.59999999999997,194.39999999999978" style="stroke:white;fill:none;stroke-width:2;stroke-linecap:round;stroke-linejoin:round;" /><path d="M 291.59999999999997,194.39999999999978 L 275.4,194.39999999999978 L 259.2,194.39999999999978" style="stroke:white;fill:none;stroke-width:2;stroke-linecap:round;stroke-linejoin:round;" /><path d="M 259.2,194.39999999999978 L 243.0,194.39999999999978 L 226.79999999999998,194.39999999999978" style="stroke:white;fill:none;stroke-width:2;stroke-linecap:round;stroke-linejoin:round;" /><path d="M 226.79999999999998,194.39999999999978 L 210.6,194.39999999999978 L 194.39999999999998,194.39999999999978" style="stroke:white;fill:none;stroke-width:2;stroke-linecap:round;stroke-linejoin:round;" /><path d="M 194.39999999999998,194.39999999999978 L 178.2,194.39999999999978 L 162.0,194.39999999999978" style="stroke:white;fill:none;stroke-width:2;stroke-linecap:round;stroke-linejoin:round;" /><path d="M 162.0,194.39999999999978 L 145.79999999999998,194.39999999999978 L 129.6,194.39999999999978" style="stroke:white;fill:none;stroke-width:2;stroke-linecap:round;stroke-linejoin:round;" /><path d="M 129.6,194.39999999999978 L 113.39999999999999,194.39999999999978 L 97.19999999999999,194.39999999999978" style="stroke:white;fill:none;stroke-width:2;stroke-linecap:round;stroke-linejoin:round;" /><path d="M 97.19999999999999,194.39999999999978 L 81.0,194.39999999999978 L 64.8,194.39999999999978" style="stroke:white;fill:none;stroke-width:2;stroke-linecap:round;stroke-linejoin:round;" /><path d="M 64.8,194.39999999999978 L 48.599999999999994,194.39999999999978 L 32.4,194.39999999999978" style="stroke:white;fill:none;stroke-width:2;stroke-linecap:round;stroke-linejoin:round;" /><path d="M 32.4,194.39999999999978 L 16.2,194.39999999999978 L 0.0,194.39999999999978" style="stroke:white;fill:none;stroke-width:2;stroke-linecap:round;stroke-linejoin:round;" /><path d="M 0.0,194.39999999999978 L -2.975891721928068e-15,210.5999999999998 L -5.951783443856136e-15,226.79999999999978" style="stroke:white;fill:none;stroke-width:2;stroke-linecap:round;stroke-linejoin:round;" /><path d="M -5.951783443856136e-15,226.79999999999978 L 16.199999999999992,226.79999999999978 L 32.39999999999999,226.79999999999978" style="stroke:white;fill:none;stroke-width:2;stroke-linecap:round;stroke-linejoin:round;" /><path d="M 32.39999999999999,226.79999999999978 L 48.59999999999999,226.79999999999978 L 64.79999999999998,226.79999999999978" style="stroke:white;fill:none;stroke-width:2;stroke-linecap:round;stroke-linejoin:round;" /><path d="M 64.79999999999998,226.79999999999978 L 81.0,226.79999999999978 L 97.19999999999999,226.79999999999978" style="stroke:white;fill:none;stroke-width:2;stroke-linecap:round;stroke-linejoin:round;" /><path d="M 97.19999999999999,226.79999999999978 L 113.39999999999999,226.79999999999978 L 129.6,226.79999999999978" style="stroke:white;fill:none;stroke-width:2;stroke-linecap:round;stroke-linejoin:round;" /><path d="M 129.6,226.79999999999978 L 145.79999999999998,226.79999999999978 L 162.0,226.79999999999978" style="stroke:white;fill:none;stroke-width:2;stroke-linecap:round;stroke-linejoin:round;" /><path d="M 162.0,226.79999999999978 L 178.2,226.79999999999978 L 194.39999999999998,226.79999999999978" style="stroke:white;fill:none;stroke-width:2;stroke-linecap:round;stroke-linejoin:round;" /><path d="M 194.39999999999998,226.79999999999978 L 210.6,226.79999999999978 L 226.79999999999998,226.79999999999978" style="stroke:white;fill:none;stroke-width:2;stroke-linecap:round;stroke-linejoin:round;" /><path d="M 226.79999999999998,226.79999999999978 L 243.0,226.79999999999978 L 259.2,226.79999999999978" style="stroke:white;fill:none;stroke-width:2;stroke-linecap:round;stroke-linejoin:round;" /><path d="M 259.2,226.79999999999978 L 275.4,226.79999999999978 L 291.59999999999997,226.79999999999978" style="stroke:white;fill:none;stroke-width:2;stroke-linecap:round;stroke-linejoin:round;" /><path d="M 291.59999999999997,226.79999999999978 L 307.8,226.79999999999978 L 324.0,226.79999999999978" style="stroke:white;fill:none;stroke-width:2;stroke-linecap:round;stroke-linejoin:round;" /><path d="M 324.0,226.79999999999978 L 340.2,226.79999999999978 L 356.4,226.79999999999978" style="stroke:white;fill:none;stroke-width:2;stroke-linecap:round;stroke-linejoin:round;" /><path d="M 356.4,226.79999999999978 L 372.59999999999997,226.79999999999978 L 388.79999999999995,226.79999999999978" style="stroke:white;fill:none;stroke-width:2;stroke-linecap:round;stroke-linejoin:round;" /><path d="M 388.79999999999995,226.79999999999978 L 405.0,226.79999999999978 L 421.2,226.79999999999978" style="stroke:white;fill:none;stroke-width:2;stroke-linecap:round;stroke-linejoin:round;" /><path d="M 421.2,226.79999999999978 L 437.4,226.79999999999978 L 453.59999999999997,226.79999999999978" style="stroke:white;fill:none;stroke-width:2;stroke-linecap:round;stroke-linejoin:round;" /><path d="M 453.59999999999997,226.79999999999978 L 469.79999999999995,226.79999999999978 L 486.0,226.79999999999978" style="stroke:white;fill:none;stroke-width:2;stroke-linecap:round;stroke-linejoin:round;" /><path d="M 486.0,226.79999999999978 L 502.2,226.79999999999978 L 518.4,226.79999999999978" style="stroke:white;fill:none;stroke-width:2;stroke-linecap:round;stroke-linejoin:round;" /><path d="M 518.4,226.79999999999978 L 534.6,226.79999999999978 L 550.8,226.79999999999978" style="stroke:white;fill:none;stroke-width:2;stroke-linecap:round;stroke-linejoin:round;" /><path d="M 550.8,226.79999999999978 L 567.0,226.79999999999978 L 583.1999999999999,226.79999999999978" style="stroke:white;fill:none;stroke-width:2;stroke-linecap:round;stroke-linejoin:round;" /><path d="M 583.1999999999999,226.79999999999978 L 599.4,226.79999999999978 L 615.6,226.79999999999978" style="stroke:white;fill:none;stroke-width:2;stroke-linecap:round;stroke-linejoin:round;" /><path d="M 615.6,226.79999999999978 L 631.8,226.79999999999978 L 648.0,226.79999999999978" style="stroke:white;fill:none;stroke-width:2;stroke-linecap:round;stroke-linejoin:round;" /><path d="M 648.0,226.79999999999978 L 664.1999999999999,226.79999999999978 L 680.4,226.79999999999978" style="stroke:white;fill:none;stroke-width:2;stroke-linecap:round;stroke-linejoin:round;" /><path d="M 680.4,226.79999999999978 L 696.6,226.79999999999978 L 712.8,226.79999999999978" style="stroke:white;fill:none;stroke-width:2;stroke-linecap:round;stroke-linejoin:round;" /><path d="M 712.8,226.79999999999978 L 729.0,226.79999999999978 L 745.1999999999999,226.79999999999978" style="stroke:white;fill:none;stroke-width:2;stroke-linecap:round;stroke-linejoin:round;" /><path d="M 745.1999999999999,226.79999999999978 L 761.4,226.79999999999978 L 777.5999999999999,226.79999999999978" style="stroke:white;fill:none;stroke-width:2;stroke-linecap:round;stroke-linejoin:round;" /><path d="M 777.5999999999999,226.79999999999978 L 793.8,226.79999999999978 L 810.0,226.79999999999978" style="stroke:white;fill:none;stroke-width:2;stroke-linecap:round;stroke-linejoin:round;" /><path d="M 810.0,226.79999999999978 L 826.1999999999999,226.79999999999978 L 842.4,226.79999999999978" style="stroke:white;fill:none;stroke-width:2;stroke-linecap:round;stroke-linejoin:round;" /><path d="M 842.4,226.79999999999978 L 858.5999999999999,226.79999999999978 L 874.8,226.79999999999978" style="stroke:white;fill:none;stroke-width:2;stroke-linecap:round;stroke-linejoin:round;" /><path d="M 874.8,226.79999999999978 L 891.0,226.79999999999978 L 907.1999999999999,226.79999999999978" style="stroke:white;fill:none;stroke-width:2;stroke-linecap:round;stroke-linejoin:round;" /><path d="M 907.1999999999999,226.79999999999978 L 923.4,226.79999999999978 L 939.5999999999999,226.79999999999978" style="stroke:white;fill:none;stroke-width:2;stroke-linecap:round;stroke-linejoin:round;" /><path d="M 939.5999999999999,226.79999999999978 L 939.5999999999999,242.9999999999998 L 939.5999999999999,259.19999999999976" style="stroke:white;fill:none;stroke-width:2;stroke-linecap:round;stroke-linejoin:round;" /><path d="M 939.5999999999999,259.19999999999976 L 923.4,259.19999999999976 L 907.1999999999999,259.19999999999976" style="stroke:white;fill:none;stroke-width:2;stroke-linecap:round;stroke-linejoin:round;" /><path d="M 907.1999999999999,259.19999999999976 L 891.0,259.19999999999976 L 874.8,259.19999999999976" style="stroke:white;fill:none;stroke-width:2;stroke-linecap:round;stroke-linejoin:round;" /><path d="M 874.8,259.19999999999976 L 858.5999999999999,259.19999999999976 L 842.4,259.19999999999976" style="stroke:white;fill:none;stroke-width:2;stroke-linecap:round;stroke-linejoin:round;" /><path d="M 842.4,259.19999999999976 L 826.1999999999999,259.19999999999976 L 810.0,259.19999999999976" style="stroke:white;fill:none;stroke-width:2;stroke-linecap:round;stroke-linejoin:round;" /><path d="M 810.0,259.19999999999976 L 793.8,259.19999999999976 L 777.5999999999999,259.19999999999976" style="stroke:white;fill:none;stroke-width:2;stroke-linecap:round;stroke-linejoin:round;" /><path d="M 777.5999999999999,259.19999999999976 L 761.4,259.19999999999976 L 745.1999999999999,259.19999999999976" style="stroke:white;fill:none;stroke-width:2;stroke-linecap:round;stroke-linejoin:round;" /><path d="M 745.1999999999999,259.19999999999976 L 729.0,259.19999999999976 L 712.8,259.19999999999976" style="stroke:white;fill:none;stroke-width:2;stroke-linecap:round;stroke-linejoin:round;" /><path d="M 712.8,259.19999999999976 L 696.6,259.19999999999976 L 680.4,259.19999999999976" style="stroke:white;fill:none;stroke-width:2;stroke-linecap:round;stroke-linejoin:round;" /><path d="M 680.4,259.19999999999976 L 664.1999999999999,259.19999999999976 L 648.0,259.19999999999976" style="stroke:white;fill:none;stroke-width:2;stroke-linecap:round;stroke-linejoin:round;" /><path d="M 648.0,259.19999999999976 L 631.8,259.19999999999976 L 615.6,259.19999999999976" style="stroke:white;fill:none;stroke-width:2;stroke-linecap:round;stroke-linejoin:round;" /><path d="M 615.6,259.19999999999976 L 599.4,259.19999999999976 L 583.1999999999999,259.19999999999976" style="stroke:white;fill:none;stroke-width:2;stroke-linecap:round;stroke-linejoin:round;" /><path d="M 583.1999999999999,259.19999999999976 L 567.0,259.19999999999976 L 550.8,259.19999999999976" style="stroke:white;fill:none;stroke-width:2;stroke-linecap:round;stroke-linejoin:round;" /><path d="M 550.8,259.19999999999976 L 534.6,259.19999999999976 L 518.4,259.19999999999976" style="stroke:white;fill:none;stroke-width:2;stroke-linecap:round;stroke-linejoin:round;" /><path d="M 518.4,259.19999999999976 L 502.2,259.19999999999976 L 486.0,259.19999999999976" style="stroke:white;fill:none;stroke-width:2;stroke-linecap:round;stroke-linejoin:round;" /><path d="M 486.0,259.19999999999976 L 469.79999999999995,259.19999999999976 L 453.59999999999997,259.19999999999976" style="stroke:white;fill:none;stroke-width:2;stroke-linecap:round;stroke-linejoin:round;" /><path d="M 453.59999999999997,259.19999999999976 L 437.4,259.19999999999976 L 421.2,259.19999999999976" style="stroke:white;fill:none;stroke-width:2;stroke-linecap:round;stroke-linejoin:round;" /><path d="M 421.2,259.19999999999976 L 405.0,259.19999999999976 L 388.79999999999995,259.19999999999976" style="stroke:white;fill:none;stroke-width:2;stroke-linecap:round;stroke-linejoin:round;" /><path d="M 388.79999999999995,259.19999999999976 L 372.59999999999997,259.19999999999976 L 356.4,259.19999999999976" style="stroke:white;fill:none;stroke-width:2;stroke-linecap:round;stroke-linejoin:round;" /><path d="M 356.4,259.19999999999976 L 340.2,259.19999999999976 L 324.0,259.19999999999976" style="stroke:white;fill:none;stroke-width:2;stroke-linecap:round;stroke-linejoin:round;" /><path d="M 324.0,259.19999999999976 L 307.8,259.19999999999976 L 291.59999999999997,259.19999999999976" style="stroke:white;fill:none;stroke-width:2;stroke-linecap:round;stroke-linejoin:round;" /><path d="M 291.59999999999997,259.19999999999976 L 275.4,259.19999999999976 L 259.2,259.19999999999976" style="stroke:white;fill:none;stroke-width:2;stroke-linecap:round;stroke-linejoin:round;" /><path d="M 259.2,259.19999999999976 L 243.0,259.19999999999976 L 226.79999999999998,259.19999999999976" style="stroke:white;fill:none;stroke-width:2;stroke-linecap:round;stroke-linejoin:round;" /><path d="M 226.79999999999998,259.19999999999976 L 210.6,259.19999999999976 L 194.39999999999998,259.19999999999976" style="stroke:white;fill:none;stroke-width:2;stroke-linecap:round;stroke-linejoin:round;" /><path d="M 194.39999999999998,259.19999999999976 L 178.2,259.19999999999976 L 162.0,259.19999999999976" style="stroke:white;fill:none;stroke-width:2;stroke-linecap:round;stroke-linejoin:round;" /><path d="M 162.0,259.19999999999976 L 145.79999999999998,259.19999999999976 L 129.6,259.19999999999976" style="stroke:white;fill:none;stroke-width:2;stroke-linecap:round;stroke-linejoin:round;" /><path d="M 129.6,259.19999999999976 L 113.39999999999999,259.19999999999976 L 97.19999999999999,259.19999999999976" style="stroke:white;fill:none;stroke-width:2;stroke-linecap:round;stroke-linejoin:round;" /><path d="M 97.19999999999999,259.19999999999976 L 81.0,259.19999999999976 L 64.8,259.19999999999976" style="stroke:white;fill:none;stroke-width:2;stroke-linecap:round;stroke-linejoin:round;" /><path d="M 64.8,259.19999999999976 L 48.599999999999994,259.19999999999976 L 32.4,259.19999999999976" style="stroke:white;fill:none;stroke-width:2;stroke-linecap:round;stroke-linejoin:round;" /><path d="M 32.4,259.19999999999976 L 16.2,259.19999999999976 L 0.0,259.19999999999976" style="stroke:white;fill:none;stroke-width:2;stroke-linecap:round;stroke-linejoin:round;" /><path d="M 0.0,259.19999999999976 L -2.975891721928068e-15,275.39999999999975 L -5.951783443856136e-15,291.59999999999974" style="stroke:white;fill:none;stroke-width:2;stroke-linecap:round;stroke-linejoin:round;" /><path d="M -5.951783443856136e-15,291.59999999999974 L 16.199999999999992,291.59999999999974 L 32.39999999999999,291.59999999999974" style="stroke:white;fill:none;stroke-width:2;stroke-linecap:round;stroke-linejoin:round;" /><path d="M 32.39999999999999,291.59999999999974 L 48.59999999999999,291.59999999999974 L 64.79999999999998,291.59999999999974" style="stroke:white;fill:none;stroke-width:2;stroke-linecap:round;stroke-linejoin:round;" /><path d="M 64.79999999999998,291.59999999999974 L 81.0,291.59999999999974 L 97.19999999999999,291.59999999999974" style="stroke:white;fill:none;stroke-width:2;stroke-linecap:round;stroke-linejoin:round;" /><path d="M 97.19999999999999,291.59999999999974 L 113.39999999999999,291.59999999999974 L 129.6,291.59999999999974" style="stroke:white;fill:none;stroke-width:2;stroke-linecap:round;stroke-linejoin:round;" /><path d="M 129.6,291.59999999999974 L 145.79999999999998,291.59999999999974 L 162.0,291.59999999999974" style="stroke:white;fill:none;stroke-width:2;stroke-linecap:round;stroke-linejoin:round;" /><path d="M 162.0,291.59999999999974 L 178.2,291.59999999999974 L 194.39999999999998,291.59999999999974" style="stroke:white;fill:none;stroke-width:2;stroke-linecap:round;stroke-linejoin:round;" /><path d="M 194.39999999999998,291.59999999999974 L 210.6,291.59999999999974 L 226.79999999999998,291.59999999999974" style="stroke:white;fill:none;stroke-width:2;stroke-linecap:round;stroke-linejoin:round;" /><path d="M 226.79999999999998,291.59999999999974 L 243.0,291.59999999999974 L 259.2,291.59999999999974" style="stroke:white;fill:none;stroke-width:2;stroke-linecap:round;stroke-linejoin:round;" /><path d="M 259.2,291.59999999999974 L 275.4,291.59999999999974 L 291.59999999999997,291.59999999999974" style="stroke:white;fill:none;stroke-width:2;stroke-linecap:round;stroke-linejoin:round;" /><path d="M 291.59999999999997,291.59999999999974 L 307.8,291.59999999999974 L 324.0,291.59999999999974" style="stroke:white;fill:none;stroke-width:2;stroke-linecap:round;stroke-linejoin:round;" /><path d="M 324.0,291.59999999999974 L 340.2,291.59999999999974 L 356.4,291.59999999999974" style="stroke:white;fill:none;stroke-width:2;stroke-linecap:round;stroke-linejoin:round;" /><path d="M 356.4,291.59999999999974 L 372.59999999999997,291.59999999999974 L 388.79999999999995,291.59999999999974" style="stroke:white;fill:none;stroke-width:2;stroke-linecap:round;stroke-linejoin:round;" /><path d="M 388.79999999999995,291.59999999999974 L 405.0,291.59999999999974 L 421.2,291.59999999999974" style="stroke:white;fill:none;stroke-width:2;stroke-linecap:round;stroke-linejoin:round;" /><path d="M 421.2,291.59999999999974 L 437.4,291.59999999999974 L 453.59999999999997,291.59999999999974" style="stroke:white;fill:none;stroke-width:2;stroke-linecap:round;stroke-linejoin:round;" /><path d="M 453.59999999999997,291.59999999999974 L 469.79999999999995,291.59999999999974 L 486.0,291.59999999999974" style="stroke:white;fill:none;stroke-width:2;stroke-linecap:round;stroke-linejoin:round;" /><path d="M 486.0,291.59999999999974 L 502.2,291.59999999999974 L 518.4,291.59999999999974" style="stroke:white;fill:none;stroke-width:2;stroke-linecap:round;stroke-linejoin:round;" /><path d="M 518.4,291.59999999999974 L 534.6,291.59999999999974 L 550.8,291.59999999999974" style="stroke:white;fill:none;stroke-width:2;stroke-linecap:round;stroke-linejoin:round;" /><path d="M 550.8,291.59999999999974 L 567.0,291.59999999999974 L 583.1999999999999,291.59999999999974" style="stroke:white;fill:none;stroke-width:2;stroke-linecap:round;stroke-linejoin:round;" /><path d="M 583.1999999999999,291.59999999999974 L 599.4,291.59999999999974 L 615.6,291.59999999999974" style="stroke:white;fill:none;stroke-width:2;stroke-linecap:round;stroke-linejoin:round;" /><path d="M 615.6,291.59999999999974 L 631.8,291.59999999999974 L 648.0,291.59999999999974" style="stroke:white;fill:none;stroke-width:2;stroke-linecap:round;stroke-linejoin:round;" /><path d="M 648.0,291.59999999999974 L 664.1999999999999,291.59999999999974 L 680.4,291.59999999999974" style="stroke:white;fill:none;stroke-width:2;stroke-linecap:round;stroke-linejoin:round;" /><path d="M 680.4,291.59999999999974 L 696.6,291.59999999999974 L 712.8,291.59999999999974" style="stroke:white;fill:none;stroke-width:2;stroke-linecap:round;stroke-linejoin:round;" /><path d="M 712.8,291.59999999999974 L 729.0,291.59999999999974 L 745.1999999999999,291.59999999999974" style="stroke:white;fill:none;stroke-width:2;stroke-linecap:round;stroke-linejoin:round;" /><path d="M 745.1999999999999,291.59999999999974 L 761.4,291.59999999999974 L 777.5999999999999,291.59999999999974" style="stroke:white;fill:none;stroke-width:2;stroke-linecap:round;stroke-linejoin:round;" /><path d="M 777.5999999999999,291.59999999999974 L 793.8,291.59999999999974 L 810.0,291.59999999999974" style="stroke:white;fill:none;stroke-width:2;stroke-linecap:round;stroke-linejoin:round;" /><path d="M 810.0,291.59999999999974 L 826.1999999999999,291.59999999999974 L 842.4,291.59999999999974" style="stroke:white;fill:none;stroke-width:2;stroke-linecap:round;stroke-linejoin:round;" /><path d="M 842.4,291.59999999999974 L 858.5999999999999,291.59999999999974 L 874.8,291.59999999999974" style="stroke:white;fill:none;stroke-width:2;stroke-linecap:round;stroke-linejoin:round;" /><path d="M 874.8,291.59999999999974 L 891.0,291.59999999999974 L 907.1999999999999,291.59999999999974" style="stroke:white;fill:none;stroke-width:2;stroke-linecap:round;stroke-linejoin:round;" /><path d="M 907.1999999999999,291.59999999999974 L 923.4,291.59999999999974 L 939.5999999999999,291.59999999999974" style="stroke:white;fill:none;stroke-width:2;stroke-linecap:round;stroke-linejoin:round;" /><path d="M 939.5999999999999,291.59999999999974 L 939.5999999999999,307.7999999999998 L 939.5999999999999,323.9999999999998" style="stroke:white;fill:none;stroke-width:2;stroke-linecap:round;stroke-linejoin:round;" /><path d="M 939.5999999999999,323.9999999999998 L 923.4,323.9999999999998 L 907.1999999999999,323.9999999999998" style="stroke:white;fill:none;stroke-width:2;stroke-linecap:round;stroke-linejoin:round;" /><path d="M 907.1999999999999,323.9999999999998 L 891.0,323.9999999999998 L 874.8,323.9999999999998" style="stroke:white;fill:none;stroke-width:2;stroke-linecap:round;stroke-linejoin:round;" /><path d="M 874.8,323.9999999999998 L 858.5999999999999,323.9999999999998 L 842.4,323.9999999999998" style="stroke:white;fill:none;stroke-width:2;stroke-linecap:round;stroke-linejoin:round;" /><path d="M 842.4,323.9999999999998 L 826.1999999999999,323.9999999999998 L 810.0,323.9999999999998" style="stroke:white;fill:none;stroke-width:2;stroke-linecap:round;stroke-linejoin:round;" /><path d="M 810.0,323.9999999999998 L 793.8,323.9999999999998 L 777.5999999999999,323.9999999999998" style="stroke:white;fill:none;stroke-width:2;stroke-linecap:round;stroke-linejoin:round;" /><path d="M 777.5999999999999,323.9999999999998 L 761.4,323.9999999999998 L 745.1999999999999,323.9999999999998" style="stroke:white;fill:none;stroke-width:2;stroke-linecap:round;stroke-linejoin:round;" /><path d="M 745.1999999999999,323.9999999999998 L 729.0,323.9999999999998 L 712.8,323.9999999999998" style="stroke:white;fill:none;stroke-width:2;stroke-linecap:round;stroke-linejoin:round;" /><path d="M 712.8,323.9999999999998 L 696.6,323.9999999999998 L 680.4,323.9999999999998" style="stroke:white;fill:none;stroke-width:2;stroke-linecap:round;stroke-linejoin:round;" /><path d="M 680.4,323.9999999999998 L 664.1999999999999,323.9999999999998 L 648.0,323.9999999999998" style="stroke:white;fill:none;stroke-width:2;stroke-linecap:round;stroke-linejoin:round;" /><path d="M 648.0,323.9999999999998 L 631.8,323.9999999999998 L 615.6,323.9999999999998" style="stroke:white;fill:none;stroke-width:2;stroke-linecap:round;stroke-linejoin:round;" /><path d="M 615.6,323.9999999999998 L 599.4,323.9999999999998 L 583.1999999999999,323.9999999999998" style="stroke:white;fill:none;stroke-width:2;stroke-linecap:round;stroke-linejoin:round;" /><path d="M 583.1999999999999,323.9999999999998 L 567.0,323.9999999999998 L 550.8,323.9999999999998" style="stroke:white;fill:none;stroke-width:2;stroke-linecap:round;stroke-linejoin:round;" /><path d="M 550.8,323.9999999999998 L 534.6,323.9999999999998 L 518.4,323.9999999999998" style="stroke:white;fill:none;stroke-width:2;stroke-linecap:round;stroke-linejoin:round;" /><path d="M 518.4,323.9999999999998 L 502.2,323.9999999999998 L 486.0,323.9999999999998" style="stroke:white;fill:none;stroke-width:2;stroke-linecap:round;stroke-linejoin:round;" /><path d="M 486.0,323.9999999999998 L 469.79999999999995,323.9999999999998 L 453.59999999999997,323.9999999999998" style="stroke:white;fill:none;stroke-width:2;stroke-linecap:round;stroke-linejoin:round;" /><path d="M 453.59999999999997,323.9999999999998 L 437.4,323.9999999999998 L 421.2,323.9999999999998" style="stroke:white;fill:none;stroke-width:2;stroke-linecap:round;stroke-linejoin:round;" /><path d="M 421.2,323.9999999999998 L 405.0,323.9999999999998 L 388.79999999999995,323.9999999999998" style="stroke:white;fill:none;stroke-width:2;stroke-linecap:round;stroke-linejoin:round;" /><path d="M 388.79999999999995,323.9999999999998 L 372.59999999999997,323.9999999999998 L 356.4,323.9999999999998" style="stroke:white;fill:none;stroke-width:2;stroke-linecap:round;stroke-linejoin:round;" /><path d="M 356.4,323.9999999999998 L 340.2,323.9999999999998 L 324.0,323.9999999999998" style="stroke:white;fill:none;stroke-width:2;stroke-linecap:round;stroke-linejoin:round;" /><path d="M 324.0,323.9999999999998 L 307.8,323.9999999999998 L 291.59999999999997,323.9999999999998" style="stroke:white;fill:none;stroke-width:2;stroke-linecap:round;stroke-linejoin:round;" /><path d="M 291.59999999999997,323.9999999999998 L 275.4,323.9999999999998 L 259.2,323.9999999999998" style="stroke:white;fill:none;stroke-width:2;stroke-linecap:round;stroke-linejoin:round;" /><path d="M 259.2,323.9999999999998 L 243.0,323.9999999999998 L 226.79999999999998,323.9999999999998" style="stroke:white;fill:none;stroke-width:2;stroke-linecap:round;stroke-linejoin:round;" /><path d="M 226.79999999999998,323.9999999999998 L 210.6,323.9999999999998 L 194.39999999999998,323.9999999999998" style="stroke:white;fill:none;stroke-width:2;stroke-linecap:round;stroke-linejoin:round;" /><path d="M 194.39999999999998,323.9999999999998 L 178.2,323.9999999999998 L 162.0,323.9999999999998" style="stroke:white;fill:none;stroke-width:2;stroke-linecap:round;stroke-linejoin:round;" /><path d="M 162.0,323.9999999999998 L 145.79999999999998,323.9999999999998 L 129.6,323.9999999999998" style="stroke:white;fill:none;stroke-width:2;stroke-linecap:round;stroke-linejoin:round;" /><path d="M 129.6,323.9999999999998 L 113.39999999999999,323.9999999999998 L 97.19999999999999,323.9999999999998" style="stroke:white;fill:none;stroke-width:2;stroke-linecap:round;stroke-linejoin:round;" /><path d="M 97.19999999999999,323.9999999999998 L 81.0,323.9999999999998 L 64.8,323.9999999999998" style="stroke:white;fill:none;stroke-width:2;stroke-linecap:round;stroke-linejoin:round;" /><path d="M 64.8,323.9999999999998 L 48.599999999999994,323.9999999999998 L 32.4,323.9999999999998" style="stroke:white;fill:none;stroke-width:2;stroke-linecap:round;stroke-linejoin:round;" /><path d="M 32.4,323.9999999999998 L 16.2,323.9999999999998 L 0.0,323.9999999999998" style="stroke:white;fill:none;stroke-width:2;stroke-linecap:round;stroke-linejoin:round;" /><path d="M 0.0,323.9999999999998 L -2.975891721928068e-15,340.19999999999976 L -5.951783443856136e-15,356.39999999999975" style="stroke:white;fill:none;stroke-width:2;stroke-linecap:round;stroke-linejoin:round;" /><path d="M -5.951783443856136e-15,356.39999999999975 L 16.199999999999992,356.39999999999975 L 32.39999999999999,356.39999999999975" style="stroke:white;fill:none;stroke-width:2;stroke-linecap:round;stroke-linejoin:round;" /><path d="M 32.39999999999999,356.39999999999975 L 48.59999999999999,356.39999999999975 L 64.79999999999998,356.39999999999975" style="stroke:white;fill:none;stroke-width:2;stroke-linecap:round;stroke-linejoin:round;" /><path d="M 64.79999999999998,356.39999999999975 L 81.0,356.39999999999975 L 97.19999999999999,356.39999999999975" style="stroke:white;fill:none;stroke-width:2;stroke-linecap:round;stroke-linejoin:round;" /><path d="M 97.19999999999999,356.39999999999975 L 113.39999999999999,356.39999999999975 L 129.6,356.39999999999975" style="stroke:white;fill:none;stroke-width:2;stroke-linecap:round;stroke-linejoin:round;" /><path d="M 129.6,356.39999999999975 L 145.79999999999998,356.39999999999975 L 162.0,356.39999999999975" style="stroke:white;fill:none;stroke-width:2;stroke-linecap:round;stroke-linejoin:round;" /><path d="M 162.0,356.39999999999975 L 178.2,356.39999999999975 L 194.39999999999998,356.39999999999975" style="stroke:white;fill:none;stroke-width:2;stroke-linecap:round;stroke-linejoin:round;" /><path d="M 194.39999999999998,356.39999999999975 L 210.6,356.39999999999975 L 226.79999999999998,356.39999999999975" style="stroke:white;fill:none;stroke-width:2;stroke-linecap:round;stroke-linejoin:round;" /><path d="M 226.79999999999998,356.39999999999975 L 243.0,356.39999999999975 L 259.2,356.39999999999975" style="stroke:white;fill:none;stroke-width:2;stroke-linecap:round;stroke-linejoin:round;" /><path d="M 259.2,356.39999999999975 L 275.4,356.39999999999975 L 291.59999999999997,356.39999999999975" style="stroke:white;fill:none;stroke-width:2;stroke-linecap:round;stroke-linejoin:round;" /><path d="M 291.59999999999997,356.39999999999975 L 307.8,356.39999999999975 L 324.0,356.39999999999975" style="stroke:white;fill:none;stroke-width:2;stroke-linecap:round;stroke-linejoin:round;" /><path d="M 324.0,356.39999999999975 L 340.2,356.39999999999975 L 356.4,356.39999999999975" style="stroke:white;fill:none;stroke-width:2;stroke-linecap:round;stroke-linejoin:round;" /><path d="M 356.4,356.39999999999975 L 372.59999999999997,356.39999999999975 L 388.79999999999995,356.39999999999975" style="stroke:white;fill:none;stroke-width:2;stroke-linecap:round;stroke-linejoin:round;" /><path d="M 388.79999999999995,356.39999999999975 L 405.0,356.39999999999975 L 421.2,356.39999999999975" style="stroke:white;fill:none;stroke-width:2;stroke-linecap:round;stroke-linejoin:round;" /><path d="M 421.2,356.39999999999975 L 437.4,356.39999999999975 L 453.59999999999997,356.39999999999975" style="stroke:white;fill:none;stroke-width:2;stroke-linecap:round;stroke-linejoin:round;" /><path d="M 453.59999999999997,356.39999999999975 L 469.79999999999995,356.39999999999975 L 486.0,356.39999999999975" style="stroke:white;fill:none;stroke-width:2;stroke-linecap:round;stroke-linejoin:round;" /><path d="M 486.0,356.39999999999975 L 502.2,356.39999999999975 L 518.4,356.39999999999975" style="stroke:white;fill:none;stroke-width:2;stroke-linecap:round;stroke-linejoin:round;" /><path d="M 518.4,356.39999999999975 L 534.6,356.39999999999975 L 550.8,356.39999999999975" style="stroke:white;fill:none;stroke-width:2;stroke-linecap:round;stroke-linejoin:round;" /><path d="M 550.8,356.39999999999975 L 567.0,356.39999999999975 L 583.1999999999999,356.39999999999975" style="stroke:white;fill:none;stroke-width:2;stroke-linecap:round;stroke-linejoin:round;" /><path d="M 583.1999999999999,356.39999999999975 L 599.4,356.39999999999975 L 615.6,356.39999999999975" style="stroke:white;fill:none;stroke-width:2;stroke-linecap:round;stroke-linejoin:round;" /><path d="M 615.6,356.39999999999975 L 631.8,356.39999999999975 L 648.0,356.39999999999975" style="stroke:white;fill:none;stroke-width:2;stroke-linecap:round;stroke-linejoin:round;" /><path d="M 648.0,356.39999999999975 L 664.1999999999999,356.39999999999975 L 680.4,356.39999999999975" style="stroke:white;fill:none;stroke-width:2;stroke-linecap:round;stroke-linejoin:round;" /><path d="M 680.4,356.39999999999975 L 696.6,356.39999999999975 L 712.8,356.39999999999975" style="stroke:white;fill:none;stroke-width:2;stroke-linecap:round;stroke-linejoin:round;" /><path d="M 712.8,356.39999999999975 L 729.0,356.39999999999975 L 745.1999999999999,356.39999999999975" style="stroke:white;fill:none;stroke-width:2;stroke-linecap:round;stroke-linejoin:round;" /><path d="M 745.1999999999999,356.39999999999975 L 761.4,356.39999999999975 L 777.5999999999999,356.39999999999975" style="stroke:white;fill:none;stroke-width:2;stroke-linecap:round;stroke-linejoin:round;" /><path d="M 777.5999999999999,356.39999999999975 L 793.8,356.39999999999975 L 810.0,356.39999999999975" style="stroke:white;fill:none;stroke-width:2;stroke-linecap:round;stroke-linejoin:round;" /><path d="M 810.0,356.39999999999975 L 826.1999999999999,356.39999999999975 L 842.4,356.39999999999975" style="stroke:white;fill:none;stroke-width:2;stroke-linecap:round;stroke-linejoin:round;" /><path d="M 842.4,356.39999999999975 L 858.5999999999999,356.39999999999975 L 874.8,356.39999999999975" style="stroke:white;fill:none;stroke-width:2;stroke-linecap:round;stroke-linejoin:round;" /><path d="M 874.8,356.39999999999975 L 891.0,356.39999999999975 L 907.1999999999999,356.39999999999975" style="stroke:white;fill:none;stroke-width:2;stroke-linecap:round;stroke-linejoin:round;" /><path d="M 907.1999999999999,356.39999999999975 L 923.4,356.39999999999975 L 939.5999999999999,356.39999999999975" style="stroke:white;fill:none;stroke-width:2;stroke-linecap:round;stroke-linejoin:round;" /><path d="M 939.5999999999999,356.39999999999975 L 939.5999999999999,372.59999999999974 L 939.5999999999999,388.7999999999997" style="stroke:white;fill:none;stroke-width:2;stroke-linecap:round;stroke-linejoin:round;" /><path d="M 939.5999999999999,388.7999999999997 L 923.4,388.7999999999997 L 907.1999999999999,388.7999999999997" style="stroke:white;fill:none;stroke-width:2;stroke-linecap:round;stroke-linejoin:round;" /><path d="M 907.1999999999999,388.7999999999997 L 891.0,388.7999999999997 L 874.8,388.7999999999997" style="stroke:white;fill:none;stroke-width:2;stroke-linecap:round;stroke-linejoin:round;" /><path d="M 874.8,388.7999999999997 L 858.5999999999999,388.7999999999997 L 842.4,388.7999999999997" style="stroke:white;fill:none;stroke-width:2;stroke-linecap:round;stroke-linejoin:round;" /><path d="M 842.4,388.7999999999997 L 826.1999999999999,388.7999999999997 L 810.0,388.7999999999997" style="stroke:white;fill:none;stroke-width:2;stroke-linecap:round;stroke-linejoin:round;" /><path d="M 810.0,388.7999999999997 L 793.8,388.7999999999997 L 777.5999999999999,388.7999999999997" style="stroke:white;fill:none;stroke-width:2;stroke-linecap:round;stroke-linejoin:round;" /><path d="M 777.5999999999999,388.7999999999997 L 761.4,388.7999999999997 L 745.1999999999999,388.7999999999997" style="stroke:white;fill:none;stroke-width:2;stroke-linecap:round;stroke-linejoin:round;" /><path d="M 745.1999999999999,388.7999999999997 L 729.0,388.7999999999997 L 712.8,388.7999999999997" style="stroke:white;fill:none;stroke-width:2;stroke-linecap:round;stroke-linejoin:round;" /><path d="M 712.8,388.7999999999997 L 696.6,388.7999999999997 L 680.4,388.7999999999997" style="stroke:white;fill:none;stroke-width:2;stroke-linecap:round;stroke-linejoin:round;" /><path d="M 680.4,388.7999999999997 L 664.1999999999999,388.7999999999997 L 648.0,388.7999999999997" style="stroke:white;fill:none;stroke-width:2;stroke-linecap:round;stroke-linejoin:round;" /><path d="M 648.0,388.7999999999997 L 631.8,388.7999999999997 L 615.6,388.7999999999997" style="stroke:white;fill:none;stroke-width:2;stroke-linecap:round;stroke-linejoin:round;" /><path d="M 615.6,388.7999999999997 L 599.4,388.7999999999997 L 583.1999999999999,388.7999999999997" style="stroke:white;fill:none;stroke-width:2;stroke-linecap:round;stroke-linejoin:round;" /><path d="M 583.1999999999999,388.7999999999997 L 567.0,388.7999999999997 L 550.8,388.7999999999997" style="stroke:white;fill:none;stroke-width:2;stroke-linecap:round;stroke-linejoin:round;" /><path d="M 550.8,388.7999999999997 L 534.6,388.7999999999997 L 518.4,388.7999999999997" style="stroke:white;fill:none;stroke-width:2;stroke-linecap:round;stroke-linejoin:round;" /><path d="M 518.4,388.7999999999997 L 502.2,388.7999999999997 L 486.0,388.7999999999997" style="stroke:white;fill:none;stroke-width:2;stroke-linecap:round;stroke-linejoin:round;" /><path d="M 486.0,388.7999999999997 L 469.79999999999995,388.7999999999997 L 453.59999999999997,388.7999999999997" style="stroke:white;fill:none;stroke-width:2;stroke-linecap:round;stroke-linejoin:round;" /><path d="M 453.59999999999997,388.7999999999997 L 437.4,388.7999999999997 L 421.2,388.7999999999997" style="stroke:white;fill:none;stroke-width:2;stroke-linecap:round;stroke-linejoin:round;" /><path d="M 421.2,388.7999999999997 L 405.0,388.7999999999997 L 388.79999999999995,388.7999999999997" style="stroke:white;fill:none;stroke-width:2;stroke-linecap:round;stroke-linejoin:round;" /><path d="M 388.79999999999995,388.7999999999997 L 372.59999999999997,388.7999999999997 L 356.4,388.7999999999997" style="stroke:white;fill:none;stroke-width:2;stroke-linecap:round;stroke-linejoin:round;" /><path d="M 356.4,388.7999999999997 L 340.2,388.7999999999997 L 324.0,388.7999999999997" style="stroke:white;fill:none;stroke-width:2;stroke-linecap:round;stroke-linejoin:round;" /><path d="M 324.0,388.7999999999997 L 307.8,388.7999999999997 L 291.59999999999997,388.7999999999997" style="stroke:white;fill:none;stroke-width:2;stroke-linecap:round;stroke-linejoin:round;" /><path d="M 291.59999999999997,388.7999999999997 L 275.4,388.7999999999997 L 259.2,388.7999999999997" style="stroke:white;fill:none;stroke-width:2;stroke-linecap:round;stroke-linejoin:round;" /><path d="M 259.2,388.7999999999997 L 243.0,388.7999999999997 L 226.79999999999998,388.7999999999997" style="stroke:white;fill:none;stroke-width:2;stroke-linecap:round;stroke-linejoin:round;" /><path d="M 226.79999999999998,388.7999999999997 L 210.6,388.7999999999997 L 194.39999999999998,388.7999999999997" style="stroke:white;fill:none;stroke-width:2;stroke-linecap:round;stroke-linejoin:round;" /><path d="M 194.39999999999998,388.7999999999997 L 178.2,388.7999999999997 L 162.0,388.7999999999997" style="stroke:white;fill:none;stroke-width:2;stroke-linecap:round;stroke-linejoin:round;" /><path d="M 162.0,388.7999999999997 L 145.79999999999998,388.7999999999997 L 129.6,388.7999999999997" style="stroke:white;fill:none;stroke-width:2;stroke-linecap:round;stroke-linejoin:round;" /><path d="M 129.6,388.7999999999997 L 113.39999999999999,388.7999999999997 L 97.19999999999999,388.7999999999997" style="stroke:white;fill:none;stroke-width:2;stroke-linecap:round;stroke-linejoin:round;" /><path d="M 97.19999999999999,388.7999999999997 L 81.0,388.7999999999997 L 64.8,388.7999999999997" style="stroke:white;fill:none;stroke-width:2;stroke-linecap:round;stroke-linejoin:round;" /><path d="M 64.8,388.7999999999997 L 48.599999999999994,388.7999999999997 L 32.4,388.7999999999997" style="stroke:white;fill:none;stroke-width:2;stroke-linecap:round;stroke-linejoin:round;" /><path d="M 32.4,388.7999999999997 L 16.2,388.7999999999997 L 0.0,388.7999999999997" style="stroke:white;fill:none;stroke-width:2;stroke-linecap:round;stroke-linejoin:round;" /><path d="M 0.0,388.7999999999997 L -2.975891721928068e-15,404.9999999999998 L -5.951783443856136e-15,421.19999999999976" style="stroke:white;fill:none;stroke-width:2;stroke-linecap:round;stroke-linejoin:round;" /><path d="M -5.951783443856136e-15,421.19999999999976 L 16.199999999999992,421.19999999999976 L 32.39999999999999,421.19999999999976" style="stroke:white;fill:none;stroke-width:2;stroke-linecap:round;stroke-linejoin:round;" /><path d="M 32.39999999999999,421.19999999999976 L 48.59999999999999,421.19999999999976 L 64.79999999999998,421.19999999999976" style="stroke:white;fill:none;stroke-width:2;stroke-linecap:round;stroke-linejoin:round;" /><path d="M 64.79999999999998,421.19999999999976 L 81.0,421.19999999999976 L 97.19999999999999,421.19999999999976" style="stroke:white;fill:none;stroke-width:2;stroke-linecap:round;stroke-linejoin:round;" /><path d="M 97.19999999999999,421.19999999999976 L 113.39999999999999,421.19999999999976 L 129.6,421.19999999999976" style="stroke:white;fill:none;stroke-width:2;stroke-linecap:round;stroke-linejoin:round;" /><path d="M 129.6,421.19999999999976 L 145.79999999999998,421.19999999999976 L 162.0,421.19999999999976" style="stroke:white;fill:none;stroke-width:2;stroke-linecap:round;stroke-linejoin:round;" /><path d="M 162.0,421.19999999999976 L 178.2,421.19999999999976 L 194.39999999999998,421.19999999999976" style="stroke:white;fill:none;stroke-width:2;stroke-linecap:round;stroke-linejoin:round;" /><path d="M 194.39999999999998,421.19999999999976 L 210.6,421.19999999999976 L 226.79999999999998,421.19999999999976" style="stroke:white;fill:none;stroke-width:2;stroke-linecap:round;stroke-linejoin:round;" /><path d="M 226.79999999999998,421.19999999999976 L 243.0,421.19999999999976 L 259.2,421.19999999999976" style="stroke:white;fill:none;stroke-width:2;stroke-linecap:round;stroke-linejoin:round;" /><path d="M 259.2,421.19999999999976 L 275.4,421.19999999999976 L 291.59999999999997,421.19999999999976" style="stroke:white;fill:none;stroke-width:2;stroke-linecap:round;stroke-linejoin:round;" /><path d="M 291.59999999999997,421.19999999999976 L 307.8,421.19999999999976 L 324.0,421.19999999999976" style="stroke:white;fill:none;stroke-width:2;stroke-linecap:round;stroke-linejoin:round;" /><path d="M 324.0,421.19999999999976 L 340.2,421.19999999999976 L 356.4,421.19999999999976" style="stroke:white;fill:none;stroke-width:2;stroke-linecap:round;stroke-linejoin:round;" /><path d="M 356.4,421.19999999999976 L 372.59999999999997,421.19999999999976 L 388.79999999999995,421.19999999999976" style="stroke:white;fill:none;stroke-width:2;stroke-linecap:round;stroke-linejoin:round;" /><path d="M 388.79999999999995,421.19999999999976 L 405.0,421.19999999999976 L 421.2,421.19999999999976" style="stroke:white;fill:none;stroke-width:2;stroke-linecap:round;stroke-linejoin:round;" /><path d="M 421.2,421.19999999999976 L 437.4,421.19999999999976 L 453.59999999999997,421.19999999999976" style="stroke:white;fill:none;stroke-width:2;stroke-linecap:round;stroke-linejoin:round;" /><path d="M 453.59999999999997,421.19999999999976 L 469.79999999999995,421.19999999999976 L 486.0,421.19999999999976" style="stroke:white;fill:none;stroke-width:2;stroke-linecap:round;stroke-linejoin:round;" /><path d="M 486.0,421.19999999999976 L 502.2,421.19999999999976 L 518.4,421.19999999999976" style="stroke:white;fill:none;stroke-width:2;stroke-linecap:round;stroke-linejoin:round;" /><path d="M 518.4,421.19999999999976 L 534.6,421.19999999999976 L 550.8,421.19999999999976" style="stroke:white;fill:none;stroke-width:2;stroke-linecap:round;stroke-linejoin:round;" /><path d="M 550.8,421.19999999999976 L 567.0,421.19999999999976 L 583.1999999999999,421.19999999999976" style="stroke:white;fill:none;stroke-width:2;stroke-linecap:round;stroke-linejoin:round;" /><path d="M 583.1999999999999,421.19999999999976 L 599.4,421.19999999999976 L 615.6,421.19999999999976" style="stroke:white;fill:none;stroke-width:2;stroke-linecap:round;stroke-linejoin:round;" /><path d="M 615.6,421.19999999999976 L 631.8,421.19999999999976 L 648.0,421.19999999999976" style="stroke:white;fill:none;stroke-width:2;stroke-linecap:round;stroke-linejoin:round;" /><path d="M 648.0,421.19999999999976 L 664.1999999999999,421.19999999999976 L 680.4,421.19999999999976" style="stroke:white;fill:none;stroke-width:2;stroke-linecap:round;stroke-linejoin:round;" /><path d="M 680.4,421.19999999999976 L 696.6,421.19999999999976 L 712.8,421.19999999999976" style="stroke:white;fill:none;stroke-width:2;stroke-linecap:round;stroke-linejoin:round;" /><path d="M 712.8,421.19999999999976 L 729.0,421.19999999999976 L 745.1999999999999,421.19999999999976" style="stroke:white;fill:none;stroke-width:2;stroke-linecap:round;stroke-linejoin:round;" /><path d="M 745.1999999999999,421.19999999999976 L 761.4,421.19999999999976 L 777.5999999999999,421.19999999999976" style="stroke:white;fill:none;stroke-width:2;stroke-linecap:round;stroke-linejoin:round;" /><path d="M 777.5999999999999,421.19999999999976 L 793.8,421.19999999999976 L 810.0,421.19999999999976" style="stroke:white;fill:none;stroke-width:2;stroke-linecap:round;stroke-linejoin:round;" /><path d="M 810.0,421.19999999999976 L 826.1999999999999,421.19999999999976 L 842.4,421.19999999999976" style="stroke:white;fill:none;stroke-width:2;stroke-linecap:round;stroke-linejoin:round;" /><path d="M 842.4,421.19999999999976 L 858.5999999999999,421.19999999999976 L 874.8,421.19999999999976" style="stroke:white;fill:none;stroke-width:2;stroke-linecap:round;stroke-linejoin:round;" /><path d="M 874.8,421.19999999999976 L 891.0,421.19999999999976 L 907.1999999999999,421.19999999999976" style="stroke:white;fill:none;stroke-width:2;stroke-linecap:round;stroke-linejoin:round;" /><path d="M 907.1999999999999,421.19999999999976 L 923.4,421.19999999999976 L 939.5999999999999,421.19999999999976" style="stroke:white;fill:none;stroke-width:2;stroke-linecap:round;stroke-linejoin:round;" /><path d="M 939.5999999999999,421.19999999999976 L 939.5999999999999,437.39999999999975 L 939.5999999999999,453.59999999999974" style="stroke:white;fill:none;stroke-width:2;stroke-linecap:round;stroke-linejoin:round;" /><path d="M 939.5999999999999,453.59999999999974 L 923.4,453.59999999999974 L 907.1999999999999,453.59999999999974" style="stroke:white;fill:none;stroke-width:2;stroke-linecap:round;stroke-linejoin:round;" /><path d="M 907.1999999999999,453.59999999999974 L 891.0,453.59999999999974 L 874.8,453.59999999999974" style="stroke:white;fill:none;stroke-width:2;stroke-linecap:round;stroke-linejoin:round;" /><path d="M 874.8,453.59999999999974 L 858.5999999999999,453.59999999999974 L 842.4,453.59999999999974" style="stroke:white;fill:none;stroke-width:2;stroke-linecap:round;stroke-linejoin:round;" /><path d="M 842.4,453.59999999999974 L 826.1999999999999,453.59999999999974 L 810.0,453.59999999999974" style="stroke:white;fill:none;stroke-width:2;stroke-linecap:round;stroke-linejoin:round;" /><path d="M 810.0,453.59999999999974 L 793.8,453.59999999999974 L 777.5999999999999,453.59999999999974" style="stroke:white;fill:none;stroke-width:2;stroke-linecap:round;stroke-linejoin:round;" /><path d="M 777.5999999999999,453.59999999999974 L 761.4,453.59999999999974 L 745.1999999999999,453.59999999999974" style="stroke:white;fill:none;stroke-width:2;stroke-linecap:round;stroke-linejoin:round;" /><path d="M 745.1999999999999,453.59999999999974 L 729.0,453.59999999999974 L 712.8,453.59999999999974" style="stroke:white;fill:none;stroke-width:2;stroke-linecap:round;stroke-linejoin:round;" /><path d="M 712.8,453.59999999999974 L 696.6,453.59999999999974 L 680.4,453.59999999999974" style="stroke:white;fill:none;stroke-width:2;stroke-linecap:round;stroke-linejoin:round;" /><path d="M 680.4,453.59999999999974 L 664.1999999999999,453.59999999999974 L 648.0,453.59999999999974" style="stroke:white;fill:none;stroke-width:2;stroke-linecap:round;stroke-linejoin:round;" /><path d="M 648.0,453.59999999999974 L 631.8,453.59999999999974 L 615.6,453.59999999999974" style="stroke:white;fill:none;stroke-width:2;stroke-linecap:round;stroke-linejoin:round;" /><path d="M 615.6,453.59999999999974 L 599.4,453.59999999999974 L 583.1999999999999,453.59999999999974" style="stroke:white;fill:none;stroke-width:2;stroke-linecap:round;stroke-linejoin:round;" /><path d="M 583.1999999999999,453.59999999999974 L 567.0,453.59999999999974 L 550.8,453.59999999999974" style="stroke:white;fill:none;stroke-width:2;stroke-linecap:round;stroke-linejoin:round;" /><path d="M 550.8,453.59999999999974 L 534.6,453.59999999999974 L 518.4,453.59999999999974" style="stroke:white;fill:none;stroke-width:2;stroke-linecap:round;stroke-linejoin:round;" /><path d="M 518.4,453.59999999999974 L 502.2,453.59999999999974 L 486.0,453.59999999999974" style="stroke:white;fill:none;stroke-width:2;stroke-linecap:round;stroke-linejoin:round;" /><path d="M 486.0,453.59999999999974 L 469.79999999999995,453.59999999999974 L 453.59999999999997,453.59999999999974" style="stroke:white;fill:none;stroke-width:2;stroke-linecap:round;stroke-linejoin:round;" /><path d="M 453.59999999999997,453.59999999999974 L 437.4,453.59999999999974 L 421.2,453.59999999999974" style="stroke:white;fill:none;stroke-width:2;stroke-linecap:round;stroke-linejoin:round;" /><path d="M 421.2,453.59999999999974 L 405.0,453.59999999999974 L 388.79999999999995,453.59999999999974" style="stroke:white;fill:none;stroke-width:2;stroke-linecap:round;stroke-linejoin:round;" /><path d="M 388.79999999999995,453.59999999999974 L 372.59999999999997,453.59999999999974 L 356.4,453.59999999999974" style="stroke:white;fill:none;stroke-width:2;stroke-linecap:round;stroke-linejoin:round;" /><path d="M 356.4,453.59999999999974 L 340.2,453.59999999999974 L 324.0,453.59999999999974" style="stroke:white;fill:none;stroke-width:2;stroke-linecap:round;stroke-linejoin:round;" /><path d="M 324.0,453.59999999999974 L 307.8,453.59999999999974 L 291.59999999999997,453.59999999999974" style="stroke:white;fill:none;stroke-width:2;stroke-linecap:round;stroke-linejoin:round;" /><path d="M 291.59999999999997,453.59999999999974 L 275.4,453.59999999999974 L 259.2,453.59999999999974" style="stroke:white;fill:none;stroke-width:2;stroke-linecap:round;stroke-linejoin:round;" /><path d="M 259.2,453.59999999999974 L 243.0,453.59999999999974 L 226.79999999999998,453.59999999999974" style="stroke:white;fill:none;stroke-width:2;stroke-linecap:round;stroke-linejoin:round;" /><path d="M 226.79999999999998,453.59999999999974 L 210.6,453.59999999999974 L 194.39999999999998,453.59999999999974" style="stroke:white;fill:none;stroke-width:2;stroke-linecap:round;stroke-linejoin:round;" /><path d="M 194.39999999999998,453.59999999999974 L 178.2,453.59999999999974 L 162.0,453.59999999999974" style="stroke:white;fill:none;stroke-width:2;stroke-linecap:round;stroke-linejoin:round;" /><path d="M 162.0,453.59999999999974 L 145.79999999999998,453.59999999999974 L 129.6,453.59999999999974" style="stroke:white;fill:none;stroke-width:2;stroke-linecap:round;stroke-linejoin:round;" /><path d="M 129.6,453.59999999999974 L 113.39999999999999,453.59999999999974 L 97.19999999999999,453.59999999999974" style="stroke:white;fill:none;stroke-width:2;stroke-linecap:round;stroke-linejoin:round;" /><path d="M 97.19999999999999,453.59999999999974 L 81.0,453.59999999999974 L 64.8,453.59999999999974" style="stroke:white;fill:none;stroke-width:2;stroke-linecap:round;stroke-linejoin:round;" /><path d="M 64.8,453.59999999999974 L 48.599999999999994,453.59999999999974 L 32.4,453.59999999999974" style="stroke:white;fill:none;stroke-width:2;stroke-linecap:round;stroke-linejoin:round;" /><path d="M 32.4,453.59999999999974 L 16.2,453.59999999999974 L 0.0,453.59999999999974" style="stroke:white;fill:none;stroke-width:2;stroke-linecap:round;stroke-linejoin:round;" /><path d="M 0.0,453.59999999999974 L -2.975891721928068e-15,469.7999999999997 L -5.951783443856136e-15,485.9999999999998" style="stroke:white;fill:none;stroke-width:2;stroke-linecap:round;stroke-linejoin:round;" /><path d="M 259.2,97.19999999999979 L 259.2,145.79999999999978 L 259.2,194.39999999999978" style="stroke:black;fill:none;stroke-width:2;stroke-linecap:round;stroke-linejoin:round;" /><path d="M 259.2,291.59999999999974 L 259.2,323.9999999999998 L 259.2,356.39999999999975" style="stroke:black;fill:none;stroke-width:2;stroke-linecap:round;stroke-linejoin:round;" /><path d="M 356.4,291.59999999999974 L 356.4,323.9999999999998 L 356.4,356.39999999999975" style="stroke:black;fill:none;stroke-width:2;stroke-linecap:round;stroke-linejoin:round;" /><path d="M 453.59999999999997,291.59999999999974 L 453.59999999999997,340.19999999999976 L 453.59999999999997,388.7999999999997" style="stroke:black;fill:none;stroke-width:2;stroke-linecap:round;stroke-linejoin:round;" /><path d="M 194.39999999999998,64.79999999999983 L 226.79999999999998,80.99999999999983 L 259.2,97.19999999999979" style="stroke:black;fill:none;stroke-width:2;stroke-linecap:round;stroke-linejoin:round;" /><path d="M 162.0,64.79999999999983 L 178.2,64.79999999999983 L 194.39999999999998,64.79999999999983" style="stroke:white;fill:none;stroke-width:2;stroke-linecap:round;stroke-linejoin:round;" /><path d="M 194.39999999999998,64.79999999999983 L 194.39999999999998,51.839999999999826" style="stroke:black;fill:none;stroke-width:2;stroke-linecap:round;stroke-linejoin:round;" /><path d="M 194.39999999999998,51.839999999999826 L 188.325,51.839999999999826" style="stroke:black;fill:none;stroke-width:2;stroke-linecap:round;stroke-linejoin:round;" /><path d="M 194.39999999999998,51.839999999999826 L 200.475,51.839999999999826" style="stroke:black;fill:none;stroke-width:2;stroke-linecap:round;stroke-linejoin:round;" /><path d="M 421.2,97.19999999999979 L 390.59301143331544,189.02096570005338 M 394.69132328089364,202.3404792046826 L 379.32265385247536,197.2175893952098 M 387.0069885666845,199.77903429994618 L 356.4,291.59999999999974" style="stroke:black;fill:none;stroke-width:2;stroke-linecap:round;stroke-linejoin:round;" /><path d="M 421.2,97.19999999999979 L 436.4678577419786,188.8071464518715 M 446.32193304106175,198.66122175095464 L 430.342351474981,201.3244853453014 M 438.33214225802135,199.99285354812804 L 453.59999999999997,291.59999999999974" style="stroke:black;fill:none;stroke-width:2;stroke-linecap:round;stroke-linejoin:round;" /><path d="M 356.4,291.59999999999974 L 399.33,291.59999999999974 M 410.67,283.4999999999998 L 410.67,299.69999999999976 M 410.67,291.59999999999974 L 453.59999999999997,291.59999999999974" style="stroke:black;fill:none;stroke-width:2;stroke-linecap:round;stroke-linejoin:round;" /><path d="M 259.2,194.39999999999978 L 259.2,226.79999999999976 L 267.3,229.49999999999977 L 251.1,234.89999999999975 L 267.3,240.29999999999976 L 251.1,245.6999999999998 L 267.3,251.09999999999977 L 251.1,256.4999999999998 L 259.2,259.19999999999976 L 259.2,291.59999999999974" style="stroke:black;fill:none;stroke-width:2;stroke-linecap:round;stroke-linejoin:round;" /><path d="M 259.2,356.39999999999975 L 307.8,356.39999999999975 L 356.4,356.39999999999975" style="stroke:black;fill:none;stroke-width:2;stroke-linecap:round;stroke-linejoin:round;" /><path d="M 453.59999999999997,388.7999999999997 L 453.59999999999997,404.9999999999998 L 453.59999999999997,421.19999999999976" style="stroke:black;fill:none;stroke-width:2;stroke-linecap:round;stroke-linejoin:round;" /><path d="M 421.2,421.19999999999976 L 437.4,421.19999999999976 L 453.59999999999997,421.19999999999976" style="stroke:white;fill:none;stroke-width:2;stroke-linecap:round;stroke-linejoin:round;" /><path d="M 453.59999999999997,421.19999999999976 L 453.59999999999997,434.15999999999974 L 445.5,434.15999999999974 L 461.7,434.15999999999974 M 447.92999999999995,438.0479999999997 L 459.27,438.0479999999997 M 451.97999999999996,441.93599999999975 L 455.22,441.93599999999975" style="stroke:black;fill:none;stroke-width:2;stroke-linecap:round;stroke-linejoin:round;" /></svg>